# Blender 4.1.1
# www.blender.org
o Plane.023
v -8.500000 0.000000 9.500000
v -8.500000 0.166667 9.500000
v -8.750000 0.166667 9.750000
v -8.750000 0.333333 9.750000
v -9.000000 0.333333 10.000000
v 8.500000 0.000000 9.500000
v 9.000000 0.333333 10.000000
v 8.750000 0.333333 9.750000
v 8.750000 0.166667 9.750000
v 8.500000 0.166667 9.500000
v -9.500000 0.000000 1.500000
v -10.000000 0.333333 2.000000
v -9.750000 0.333333 1.750000
v -9.750000 0.166667 1.750000
v -9.500000 0.166667 1.500000
v -9.500000 0.000000 -1.500000
v -9.500000 0.166667 -1.500000
v -9.750000 0.166667 -1.750000
v -9.750000 0.333333 -1.750000
v -10.000000 0.333333 -2.000000
v -11.000000 0.000000 1.500000
v -11.000000 0.333333 2.000000
v -11.000000 0.333333 1.750000
v -11.000000 0.166667 1.750000
v -11.000000 0.166667 1.500000
v -11.000000 0.000000 -1.500000
v -11.000000 0.166667 -1.500000
v -11.000000 0.166667 -1.750000
v -11.000000 0.333333 -1.750000
v -11.000000 0.333333 -2.000000
v -8.500002 0.000000 -9.499998
v -9.000002 0.333333 -9.999998
v -8.750002 0.333333 -9.749998
v -8.750002 0.166667 -9.749998
v -8.500002 0.166667 -9.499998
v 9.500000 0.000000 -1.500001
v 10.000000 0.333333 -2.000001
v 9.750000 0.333333 -1.750001
v 9.750000 0.166667 -1.750001
v 9.500000 0.166667 -1.500001
v 9.500000 0.000000 1.499999
v 9.500000 0.166667 1.499999
v 9.750000 0.166667 1.749999
v 9.750000 0.333333 1.749999
v 10.000000 0.333333 1.999999
v 11.000000 0.000000 -1.500002
v 11.000000 0.333333 -2.000002
v 11.000000 0.333333 -1.750002
v 11.000000 0.166667 -1.750002
v 11.000000 0.166667 -1.500002
v 11.000000 0.000000 1.499998
v 11.000000 0.166667 1.499998
v 11.000000 0.166667 1.749998
v 11.000000 0.333333 1.749998
v 11.000000 0.333333 1.999998
v 8.500000 0.000000 -9.500002
v 9.000000 0.333333 -10.000002
v 8.750000 0.333333 -9.750002
v 8.750000 0.166667 -9.750002
v 8.500000 0.166667 -9.500002
v -9.000000 12.000000 10.000000
v 9.000000 12.000000 10.000000
v -10.000000 12.000000 2.000000
v -10.000000 12.000000 -2.000000
v -11.000000 12.000000 2.000000
v -11.000000 12.000000 -2.000000
v -9.000002 12.000000 -9.999998
v 10.000000 12.000000 -2.000001
v 10.000000 12.000000 1.999999
v 11.000000 12.000000 -2.000002
v 11.000000 12.000000 1.999998
v 9.000000 12.000000 -10.000002
vn -0.0000 1.0000 -0.0000
vn -0.0000 -0.0000 -1.0000
vn -0.0000 -0.0000 1.0000
vn -0.9923 -0.0000 0.1240
vn 0.9923 -0.0000 0.1240
vn -0.9923 -0.0000 -0.1240
vn 0.9923 -0.0000 -0.1240
vn -0.0000 -1.0000 -0.0000
vt 0.514493 0.913043
vt 0.514493 0.478261
vt 0.521739 0.483696
vt 0.521739 0.907609
vt 0.000000 0.451087
vt 0.000000 0.027174
vt 0.005435 0.027174
vt 0.005435 0.451087
vt 0.010870 0.032609
vt 0.010870 0.445652
vt 0.869565 0.514493
vt 0.891305 0.514493
vt 0.891305 0.521739
vt 0.869565 0.521739
vt 0.260870 0.456522
vt 0.260870 0.478261
vt 0.255435 0.478261
vt 0.255435 0.451087
vt 0.250000 0.478261
vt 0.250000 0.445652
vt 0.869565 0.253623
vt 0.891304 0.253623
vt 0.891304 0.260870
vt 0.869565 0.260870
vt 0.173913 0.478261
vt 0.173913 0.456522
vt 0.179348 0.451087
vt 0.179348 0.478261
vt 0.184783 0.445652
vt 0.184783 0.478261
vt 0.891305 0.253623
vt 0.913044 0.253623
vt 0.913044 0.260870
vt 0.891305 0.260870
vt 0.173913 0.021739
vt 0.173913 -0.000000
vt 0.179348 -0.000000
vt 0.179348 0.027174
vt 0.184783 -0.000000
vt 0.184783 0.032609
vt 0.869565 0.775362
vt 0.891305 0.775362
vt 0.891305 0.782609
vt 0.869565 0.782609
vt 0.260870 -0.000000
vt 0.260870 0.021739
vt 0.255435 0.027174
vt 0.255435 -0.000000
vt 0.250000 0.032609
vt 0.250000 -0.000000
vt 0.250000 0.032609
vt 0.423913 0.032609
vt 0.429348 0.027174
vt 0.429348 0.021739
vt 0.864131 0.739130
vt 0.695652 0.739130
vt 0.695652 0.731884
vt 0.869565 0.731884
vt 0.253623 0.913044
vt 0.253623 0.478261
vt 0.260870 0.483696
vt 0.260870 0.907609
vt 0.434783 0.027174
vt 0.434783 0.451087
vt 0.429348 0.451087
vt 0.423913 0.445652
vt 0.695652 0.992754
vt 0.869565 0.992754
vt 0.869565 1.000000
vt 0.701087 1.000000
vt 0.429348 0.456522
vt 0.521739 0.731884
vt 0.695652 0.731884
vt 0.695652 0.739130
vt 0.527174 0.739130
vt 0.005435 0.021739
vt 0.521739 0.992754
vt 0.695652 0.992754
vt 0.690217 1.000000
vt 0.521739 1.000000
vt 0.005435 0.456522
s 1
f 5/1/1 7/2/1 8/3/1 4/4/1
f 4/5/2 8/6/2 9/7/2 3/8/2
f 3/8/1 9/7/1 10/9/1 2/10/1
f 2/10/2 10/9/2 6/9/2 1/10/2
f 20/11/1 30/12/1 29/13/1 19/14/1
f 19/15/3 29/16/3 28/17/3 18/18/3
f 18/18/1 28/17/1 27/19/1 17/20/1
f 17/20/3 27/19/3 26/19/3 16/20/3
f 22/21/1 12/22/1 13/23/1 23/24/1
f 23/25/2 13/26/2 14/27/2 24/28/2
f 24/28/1 14/27/1 15/29/1 25/30/1
f 25/30/2 15/29/2 11/29/2 21/30/2
f 45/31/1 55/32/1 54/33/1 44/34/1
f 44/35/2 54/36/2 53/37/2 43/38/2
f 43/38/1 53/37/1 52/39/1 42/40/1
f 42/40/2 52/39/2 51/39/2 41/40/2
f 47/41/1 37/42/1 38/43/1 48/44/1
f 48/45/3 38/46/3 39/47/3 49/48/3
f 49/48/1 39/47/1 40/49/1 50/50/1
f 50/50/3 40/49/3 36/51/3 46/50/3
f 56/52/4 36/51/4 40/49/4 60/52/4
f 60/52/1 40/49/1 39/47/1 59/53/1
f 59/53/4 39/47/4 38/46/4 58/54/4
f 58/55/1 38/56/1 37/57/1 57/58/1
f 57/59/1 32/60/1 33/61/1 58/62/1
f 58/63/3 33/64/3 34/65/3 59/53/3
f 59/53/1 34/65/1 35/66/1 60/52/1
f 60/52/3 35/66/3 31/66/3 56/52/3
f 32/67/1 20/68/1 19/69/1 33/70/1
f 33/71/5 19/15/5 18/18/5 34/65/5
f 34/65/1 18/18/1 17/20/1 35/66/1
f 35/66/5 17/20/5 16/20/5 31/66/5
f 7/72/1 45/73/1 44/74/1 8/75/1
f 8/76/6 44/35/6 43/38/6 9/7/6
f 9/7/1 43/38/1 42/40/1 10/9/1
f 10/9/6 42/40/6 41/40/6 6/9/6
f 12/77/1 5/78/1 4/79/1 13/80/1
f 13/26/7 4/81/7 3/8/7 14/27/7
f 14/27/1 3/8/1 2/10/1 15/29/1
f 15/29/7 2/10/7 1/10/7 11/29/7
f 1/10/1 6/9/1 41/40/1 51/39/1 46/50/1 36/51/1 56/52/1 31/66/1 16/20/1 26/19/1 21/30/1 11/29/1
f 7/2/2 5/1/2 61/1/2 62/2/2
f 37/42/3 47/41/3 70/41/3 68/42/3
f 5/78/7 12/77/7 63/77/7 61/78/7
f 20/68/5 32/67/5 67/67/5 64/68/5
f 57/58/4 37/57/4 68/57/4 72/58/4
f 55/32/2 45/31/2 69/31/2 71/32/2
f 12/22/2 22/21/2 65/21/2 63/22/2
f 32/60/3 57/59/3 72/59/3 67/60/3
f 30/12/3 20/11/3 64/11/3 66/12/3
f 45/73/6 7/72/6 62/72/6 69/73/6
f 62/72/8 61/78/8 63/22/8 65/21/8 66/12/8 64/68/8 67/60/8 72/58/8 68/42/8 70/41/8 71/32/8 69/73/8
