# Blender 4.1.1
# www.blender.org
o Plane.038
v -9.500000 0.000000 4.500000
v -9.500000 0.166667 4.500000
v -9.750000 0.166667 4.750000
v -9.750000 0.333333 4.750000
v -10.000000 0.333333 5.000000
v 9.500000 0.000000 4.500000
v 10.000000 0.333333 5.000000
v 9.750000 0.333333 4.750000
v 9.750000 0.166667 4.750000
v 9.500000 0.166667 4.500000
v -9.500000 0.000000 1.500000
v -10.000000 0.333333 2.000000
v -9.750000 0.333333 1.750000
v -9.750000 0.166667 1.750000
v -9.500000 0.166667 1.500000
v -9.500000 0.000000 -1.500000
v -9.500000 0.166667 -1.500000
v -9.750000 0.166667 -1.750000
v -9.750000 0.333333 -1.750000
v -10.000000 0.333333 -2.000000
v -11.000000 0.000000 1.500000
v -11.000000 0.333333 2.000000
v -11.000000 0.333333 1.750000
v -11.000000 0.166667 1.750000
v -11.000000 0.166667 1.500000
v -11.000000 0.000000 -1.500000
v -11.000000 0.166667 -1.500000
v -11.000000 0.166667 -1.750000
v -11.000000 0.333333 -1.750000
v -11.000000 0.333333 -2.000000
v -9.500002 0.000000 -4.499998
v -10.000002 0.333333 -4.999998
v -9.750002 0.333333 -4.749998
v -9.750002 0.166667 -4.749998
v -9.500002 0.166667 -4.499998
v 9.500000 0.000000 -1.500001
v 10.000000 0.333333 -2.000001
v 9.750000 0.333333 -1.750001
v 9.750000 0.166667 -1.750001
v 9.500000 0.166667 -1.500001
v 9.500000 0.000000 1.499999
v 9.500000 0.166667 1.499999
v 9.750000 0.166667 1.749999
v 9.750000 0.333333 1.749999
v 10.000000 0.333333 1.999999
v 11.000000 0.000000 -1.500002
v 11.000000 0.333333 -2.000002
v 11.000000 0.333333 -1.750002
v 11.000000 0.166667 -1.750002
v 11.000000 0.166667 -1.500002
v 11.000000 0.000000 1.499998
v 11.000000 0.166667 1.499998
v 11.000000 0.166667 1.749998
v 11.000000 0.333333 1.749998
v 11.000000 0.333333 1.999998
v 9.500000 0.000000 -4.500002
v 10.000000 0.333333 -5.000002
v 9.750000 0.333333 -4.750002
v 9.750000 0.166667 -4.750002
v 9.500000 0.166667 -4.500002
v -10.000000 11.999999 5.000000
v 10.000000 11.999999 5.000000
v -10.000000 11.999999 2.000000
v -10.000000 11.999999 -2.000000
v -11.000000 11.999999 2.000000
v -11.000000 11.999999 -2.000000
v -10.000002 11.999999 -4.999998
v 10.000000 11.999999 -2.000001
v 10.000000 11.999999 1.999999
v 11.000000 11.999999 -2.000002
v 11.000000 11.999999 1.999998
v 10.000000 11.999999 -5.000002
vn -0.0000 1.0000 -0.0000
vn -0.0000 -0.0000 -1.0000
vn -0.0000 -0.0000 1.0000
vn -1.0000 -0.0000 -0.0000
vn 1.0000 -0.0000 -0.0000
vn -0.0000 -1.0000 -0.0000
vt 0.563492 0.476190
vt 0.563492 -0.000000
vt 0.571429 0.005952
vt 0.571429 0.470238
vt 0.000000 0.970238
vt 0.000000 0.505952
vt 0.005952 0.505953
vt 0.005952 0.970238
vt 0.011905 0.511905
vt 0.011905 0.964286
vt 0.642857 0.563492
vt 0.666667 0.563492
vt 0.666667 0.571429
vt 0.642857 0.571429
vt 0.166667 0.976191
vt 0.166667 1.000000
vt 0.160714 1.000000
vt 0.160714 0.970238
vt 0.154762 1.000000
vt 0.154762 0.964286
vt 0.642857 0.277778
vt 0.666667 0.277778
vt 0.666667 0.285714
vt 0.642857 0.285714
vt 0.071429 1.000000
vt 0.071429 0.976191
vt 0.077381 0.970238
vt 0.077381 1.000000
vt 0.083333 0.964286
vt 0.083333 1.000000
vt 0.666667 0.277778
vt 0.690476 0.277778
vt 0.690476 0.285714
vt 0.071429 0.500000
vt 0.071429 0.476191
vt 0.077381 0.476191
vt 0.077381 0.505952
vt 0.083333 0.476191
vt 0.083333 0.511905
vt 0.642857 0.849206
vt 0.666667 0.849206
vt 0.666667 0.857143
vt 0.642857 0.857143
vt 0.166667 0.476191
vt 0.166667 0.500000
vt 0.160714 0.505952
vt 0.160714 0.476191
vt 0.154762 0.511905
vt 0.154762 0.476191
vt 0.154762 0.511905
vt 0.226191 0.511905
vt 0.232143 0.505952
vt 0.232143 0.500000
vt 0.541667 0.761905
vt 0.476191 0.761905
vt 0.476191 0.753968
vt 0.547619 0.753968
vt 0.277778 0.476191
vt 0.277778 0.000000
vt 0.285714 0.005952
vt 0.285714 0.470238
vt 0.238095 0.505952
vt 0.238095 0.970238
vt 0.232143 0.970238
vt 0.226190 0.964286
vt 0.571429 0.849206
vt 0.642857 0.849206
vt 0.642857 0.857143
vt 0.577381 0.857143
vt 0.232143 0.976191
vt 0.571429 0.277778
vt 0.577381 0.285714
vt 0.005952 0.500000
vt 0.571429 0.563492
vt 0.642857 0.563492
vt 0.636905 0.571429
vt 0.571429 0.571429
vt 0.005952 0.976191
s 1
f 5/1/1 7/2/1 8/3/1 4/4/1
f 4/5/2 8/6/2 9/7/2 3/8/2
f 3/8/1 9/7/1 10/9/1 2/10/1
f 2/10/2 10/9/2 6/9/2 1/10/2
f 20/11/1 30/12/1 29/13/1 19/14/1
f 19/15/3 29/16/3 28/17/3 18/18/3
f 18/18/1 28/17/1 27/19/1 17/20/1
f 17/20/3 27/19/3 26/19/3 16/20/3
f 22/21/1 12/22/1 13/23/1 23/24/1
f 23/25/2 13/26/2 14/27/2 24/28/2
f 24/28/1 14/27/1 15/29/1 25/30/1
f 25/30/2 15/29/2 11/29/2 21/30/2
f 45/31/1 55/32/1 54/33/1 44/23/1
f 44/34/2 54/35/2 53/36/2 43/37/2
f 43/37/1 53/36/1 52/38/1 42/39/1
f 42/39/2 52/38/2 51/38/2 41/39/2
f 47/40/1 37/41/1 38/42/1 48/43/1
f 48/44/3 38/45/3 39/46/3 49/47/3
f 49/47/1 39/46/1 40/48/1 50/49/1
f 50/49/3 40/48/3 36/50/3 46/49/3
f 56/51/4 36/50/4 40/48/4 60/51/4
f 60/51/1 40/48/1 39/46/1 59/52/1
f 59/52/4 39/46/4 38/45/4 58/53/4
f 58/54/1 38/55/1 37/56/1 57/57/1
f 57/58/1 32/59/1 33/60/1 58/61/1
f 58/62/3 33/63/3 34/64/3 59/52/3
f 59/52/1 34/64/1 35/65/1 60/51/1
f 60/51/3 35/65/3 31/65/3 56/51/3
f 32/66/1 20/67/1 19/68/1 33/69/1
f 33/70/5 19/15/5 18/18/5 34/64/5
f 34/64/1 18/18/1 17/20/1 35/65/1
f 35/65/5 17/20/5 16/20/5 31/65/5
f 7/71/1 45/21/1 44/24/1 8/72/1
f 8/73/4 44/34/4 43/37/4 9/7/4
f 9/7/1 43/37/1 42/39/1 10/9/1
f 10/9/4 42/39/4 41/39/4 6/9/4
f 12/74/1 5/75/1 4/76/1 13/77/1
f 13/26/5 4/78/5 3/8/5 14/27/5
f 14/27/1 3/8/1 2/10/1 15/29/1
f 15/29/5 2/10/5 1/10/5 11/29/5
f 1/10/1 6/9/1 41/39/1 51/38/1 46/49/1 36/50/1 56/51/1 31/65/1 16/20/1 26/19/1 21/30/1 11/29/1
f 7/2/2 5/1/2 61/1/2 62/2/2
f 37/41/3 47/40/3 70/40/3 68/41/3
f 5/75/5 12/74/5 63/74/5 61/75/5
f 20/67/5 32/66/5 67/66/5 64/67/5
f 55/32/2 45/31/2 69/31/2 71/32/2
f 57/57/4 37/56/4 68/56/4 72/57/4
f 12/22/2 22/21/2 65/21/2 63/22/2
f 32/59/3 57/58/3 72/58/3 67/59/3
f 30/12/3 20/11/3 64/11/3 66/12/3
f 45/21/4 7/71/4 62/71/4 69/21/4
f 62/71/6 61/75/6 63/22/6 65/21/6 66/12/6 64/67/6 67/59/6 72/57/6 68/41/6 70/40/6 71/32/6 69/21/6
