# Blender 4.1.1
# www.blender.org
o Plane.020
v 1.500000 0.000000 9.792892
v 2.000000 0.333333 10.000000
v 1.750000 0.333333 9.896446
v 1.750000 0.166667 9.896446
v 1.500000 0.166667 9.792892
v -1.500000 0.000000 9.792892
v -1.500000 0.166667 9.792892
v -1.750000 0.166667 9.896446
v -1.750000 0.333333 9.896446
v -2.000000 0.333333 10.000000
v -9.792892 0.000000 1.500000
v -10.000000 0.333333 2.000000
v -9.896446 0.333333 1.750000
v -9.896446 0.166667 1.750000
v -9.792892 0.166667 1.500000
v -9.500000 0.000000 -1.500000
v -9.500000 0.166667 -1.500000
v -9.750000 0.166667 -1.750000
v -9.750000 0.333333 -1.750000
v -10.000000 0.333333 -2.000000
v -11.000000 0.000000 1.500000
v -11.000000 0.333333 2.000000
v -11.000000 0.333333 1.750000
v -11.000000 0.166667 1.750000
v -11.000000 0.166667 1.500000
v -11.000000 0.000000 -1.500000
v -11.000000 0.166667 -1.500000
v -11.000000 0.166667 -1.750000
v -11.000000 0.333333 -1.750000
v -11.000000 0.333333 -2.000000
v 1.500000 0.000000 11.000000
v 2.000000 0.333333 11.000000
v 1.750000 0.333333 11.000000
v 1.750000 0.166667 11.000000
v 1.500000 0.166667 11.000000
v -1.500000 0.000000 11.000000
v -1.500000 0.166667 11.000000
v -1.750000 0.166667 11.000000
v -1.750000 0.333333 11.000000
v -2.000000 0.333333 11.000000
v -8.500002 0.000000 -9.499998
v -9.000002 0.333333 -9.999998
v -8.750002 0.333333 -9.749998
v -8.750002 0.166667 -9.749998
v -8.500002 0.166667 -9.499998
v 9.500000 0.000000 -1.500001
v 10.000000 0.333333 -2.000001
v 9.750000 0.333333 -1.750001
v 9.750000 0.166667 -1.750001
v 9.500000 0.166667 -1.500001
v 9.792892 0.000000 1.499998
v 9.792892 0.166667 1.499999
v 9.896446 0.166667 1.749999
v 9.896446 0.333333 1.749998
v 10.000000 0.333333 1.999998
v 11.000000 0.000000 -1.500002
v 11.000000 0.333333 -2.000002
v 11.000000 0.333333 -1.750002
v 11.000000 0.166667 -1.750002
v 11.000000 0.166667 -1.500002
v 11.000000 0.000000 1.499998
v 11.000000 0.166667 1.499998
v 11.000000 0.166667 1.749998
v 11.000000 0.333333 1.749998
v 11.000000 0.333333 1.999998
v 8.500000 0.000000 -9.500002
v 9.000000 0.333333 -10.000002
v 8.750000 0.333333 -9.750002
v 8.750000 0.166667 -9.750002
v 8.500000 0.166667 -9.500002
v 2.000000 12.000000 10.000000
v -2.000000 12.000000 10.000000
v -10.000000 12.000000 2.000000
v -10.000000 12.000000 -2.000000
v -11.000000 12.000000 2.000000
v -11.000000 12.000000 -2.000000
v 2.000000 12.000000 11.000000
v -2.000000 12.000000 11.000000
v -9.000002 12.000000 -9.999998
v 10.000000 12.000000 -2.000001
v 10.000000 12.000000 1.999998
v 11.000000 12.000000 -2.000002
v 11.000000 12.000000 1.999998
v 9.000000 12.000000 -10.000002
vn -0.0000 1.0000 -0.0000
vn -0.0000 -0.0000 1.0000
vn -0.0000 -0.0000 -1.0000
vn 1.0000 -0.0000 -0.0000
vn -1.0000 -0.0000 -0.0000
vn 0.7071 -0.0000 -0.7071
vn -0.9923 -0.0000 0.1240
vn 0.9923 -0.0000 0.1240
vn -0.7071 -0.0000 -0.7071
vn -0.0000 -1.0000 -0.0000
vt 0.847826 0.731884
vt 0.869565 0.731884
vt 0.869565 0.739130
vt 0.847826 0.739130
vt 0.630435 0.021739
vt 0.630435 0.000000
vt 0.635870 0.000000
vt 0.635870 0.027174
vt 0.641304 -0.000000
vt 0.641304 0.032609
vt 0.826087 0.731884
vt 0.847826 0.731884
vt 0.826087 0.739130
vt 0.717391 -0.000000
vt 0.717391 0.021739
vt 0.711956 0.023990
vt 0.711957 -0.000000
vt 0.706522 0.026241
vt 0.706522 -0.000000
vt 0.706522 0.026241
vt 0.630435 0.731884
vt 0.652174 0.731884
vt 0.652174 0.739130
vt 0.630435 0.739130
vt 0.891304 0.195652
vt 0.913043 0.195652
vt 0.913043 0.201087
vt 0.889053 0.201087
vt 0.913043 0.206522
vt 0.886802 0.206522
vt 0.886802 0.206522
vt 0.260870 0.731884
vt 0.282609 0.731884
vt 0.282609 0.739130
vt 0.260870 0.739130
vt 0.913043 0.282609
vt 0.891304 0.282609
vt 0.889053 0.277174
vt 0.913043 0.277174
vt 0.886802 0.271739
vt 0.913043 0.271739
vt 0.456522 0.731884
vt 0.630435 0.731884
vt 0.456522 0.739130
vt 0.891305 0.731884
vt 0.913044 0.731884
vt 0.913044 0.739130
vt 0.891305 0.739130
vt 0.717391 0.456522
vt 0.717391 0.478261
vt 0.711957 0.478261
vt 0.711957 0.454271
vt 0.706522 0.478261
vt 0.706522 0.452019
vt 0.706522 0.452019
vt 0.869565 0.731884
vt 0.891305 0.731884
vt 0.630435 0.478261
vt 0.630435 0.456522
vt 0.635870 0.451087
vt 0.635870 0.478261
vt 0.641304 0.445652
vt 0.641304 0.478261
vt 0.641304 0.445652
vt 0.467391 0.445652
vt 0.461957 0.451087
vt 0.461957 0.456522
vt 0.820652 0.739130
vt 0.652174 0.739130
vt 0.652174 0.731884
vt 0.826087 0.731884
vt 0.253623 0.913044
vt 0.253623 0.478261
vt 0.260870 0.483696
vt 0.260870 0.907609
vt 0.456522 0.451087
vt 0.456522 0.027174
vt 0.461957 0.027174
vt 0.467391 0.032609
vt 0.260870 0.992754
vt 0.434783 0.992754
vt 0.434783 1.000000
vt 0.266304 1.000000
vt 0.461957 0.021739
vt 0.282609 0.731884
vt 0.456522 0.731884
vt 0.456522 0.739130
s 1
f 20/1/1 30/2/1 29/3/1 19/4/1
f 19/5/2 29/6/2 28/7/2 18/8/2
f 18/8/1 28/7/1 27/9/1 17/10/1
f 17/10/2 27/9/2 26/9/2 16/10/2
f 22/11/1 12/12/1 13/4/1 23/13/1
f 23/14/3 13/15/3 14/16/3 24/17/3
f 24/17/1 14/16/1 15/18/1 25/19/1
f 25/19/3 15/18/3 11/20/3 21/19/3
f 10/21/1 40/22/1 39/23/1 9/24/1
f 9/25/4 39/26/4 38/27/4 8/28/4
f 8/28/1 38/27/1 37/29/1 7/30/1
f 7/30/4 37/29/4 36/29/4 6/31/4
f 32/32/1 2/33/1 3/34/1 33/35/1
f 33/36/5 3/37/5 4/38/5 34/39/5
f 34/39/1 4/38/1 5/40/1 35/41/1
f 35/41/5 5/40/5 1/40/5 31/41/5
f 12/42/1 10/43/1 9/24/1 13/44/1
f 13/15/6 9/25/6 8/28/6 14/16/6
f 14/16/1 8/28/1 7/30/1 15/18/1
f 15/18/6 7/30/6 6/31/6 11/20/6
f 55/45/1 65/46/1 64/47/1 54/48/1
f 54/49/3 64/50/3 63/51/3 53/52/3
f 53/52/1 63/51/1 62/53/1 52/54/1
f 52/54/3 62/53/3 61/53/3 51/55/3
f 57/56/1 47/57/1 48/48/1 58/3/1
f 58/58/2 48/59/2 49/60/2 59/61/2
f 59/61/1 49/60/1 50/62/1 60/63/1
f 60/63/2 50/62/2 46/64/2 56/63/2
f 66/65/7 46/64/7 50/62/7 70/65/7
f 70/65/1 50/62/1 49/60/1 69/66/1
f 69/66/7 49/60/7 48/59/7 68/67/7
f 68/68/1 48/69/1 47/70/1 67/71/1
f 67/72/1 42/73/1 43/74/1 68/75/1
f 68/76/2 43/77/2 44/78/2 69/66/2
f 69/66/1 44/78/1 45/79/1 70/65/1
f 70/65/2 45/79/2 41/79/2 66/65/2
f 42/80/1 20/81/1 19/82/1 43/83/1
f 43/84/8 19/5/8 18/8/8 44/78/8
f 44/78/1 18/8/1 17/10/1 45/79/1
f 45/79/8 17/10/8 16/10/8 41/79/8
f 2/85/1 55/86/1 54/87/1 3/34/1
f 3/37/9 54/49/9 53/52/9 4/38/9
f 4/38/1 53/52/1 52/54/1 5/40/1
f 5/40/9 52/54/9 51/55/9 1/40/9
f 16/10/1 26/9/1 21/19/1 11/20/1 6/31/1 36/29/1 31/41/1 1/40/1 51/55/1 61/53/1 56/63/1 46/64/1 66/65/1 41/79/1
f 47/57/2 57/56/2 82/56/2 80/57/2
f 40/22/4 10/21/4 72/21/4 78/22/4
f 20/81/8 42/80/8 79/80/8 74/81/8
f 65/46/3 55/45/3 81/45/3 83/46/3
f 67/71/7 47/70/7 80/70/7 84/71/7
f 12/12/3 22/11/3 75/11/3 73/12/3
f 30/2/2 20/1/2 74/1/2 76/2/2
f 42/73/2 67/72/2 84/72/2 79/73/2
f 55/86/9 2/85/9 71/85/9 81/86/9
f 10/43/6 12/42/6 73/42/6 72/43/6
f 2/33/5 32/32/5 77/32/5 71/33/5
f 76/2/10 74/81/10 79/73/10 84/71/10 80/57/10 82/56/10 83/46/10 81/86/10 71/33/10 77/32/10 78/22/10 72/43/10 73/12/10 75/11/10
