# Blender 4.1.1
# www.blender.org
o Plane.041
v -9.500000 0.000000 1.500000
v -10.000000 0.333333 2.000000
v -9.750000 0.333333 1.750000
v -9.750000 0.166667 1.750000
v -9.500000 0.166667 1.500000
v -9.500000 0.000000 -1.500000
v -9.500000 0.166667 -1.500000
v -9.750000 0.166667 -1.750000
v -9.750000 0.333333 -1.750000
v -10.000000 0.333333 -2.000000
v -11.000000 0.000000 1.500000
v -11.000000 0.333333 2.000000
v -11.000000 0.333333 1.750000
v -11.000000 0.166667 1.750000
v -11.000000 0.166667 1.500000
v -11.000000 0.000000 -1.500000
v -11.000000 0.166667 -1.500000
v -11.000000 0.166667 -1.750000
v -11.000000 0.333333 -1.750000
v -11.000000 0.333333 -2.000000
v 1.500000 0.000000 11.000000
v 2.000000 0.333333 11.000000
v 1.750000 0.333333 11.000000
v 1.750000 0.166667 11.000000
v 1.500000 0.166667 11.000000
v -1.500000 0.000000 11.000000
v -1.500000 0.166667 11.000000
v -1.750000 0.166667 11.000000
v -1.750000 0.333333 11.000000
v -2.000000 0.333333 11.000000
v -9.500002 0.000000 -4.499998
v -10.000002 0.333333 -4.999998
v -9.750002 0.333333 -4.749998
v -9.750002 0.166667 -4.749998
v -9.500002 0.166667 -4.499998
v 9.500000 0.000000 -1.500001
v 10.000000 0.333333 -2.000001
v 9.750000 0.333333 -1.750001
v 9.750000 0.166667 -1.750001
v 9.500000 0.166667 -1.500001
v 9.500000 0.000000 1.499999
v 9.500000 0.166667 1.499999
v 9.750000 0.166667 1.749999
v 9.750000 0.333333 1.749999
v 10.000000 0.333333 1.999999
v 11.000000 0.000000 -1.500002
v 11.000000 0.333333 -2.000002
v 11.000000 0.333333 -1.750002
v 11.000000 0.166667 -1.750002
v 11.000000 0.166667 -1.500002
v 11.000000 0.000000 1.499998
v 11.000000 0.166667 1.499998
v 11.000000 0.166667 1.749998
v 11.000000 0.333333 1.749998
v 11.000000 0.333333 1.999998
v 9.500000 0.000000 -4.500002
v 10.000000 0.333333 -5.000002
v 9.750000 0.333333 -4.750002
v 9.750000 0.166667 -4.750002
v 9.500000 0.166667 -4.500002
v 9.500000 0.000000 4.499999
v 9.500000 0.166667 4.499999
v 9.750000 0.166667 4.749999
v 9.750000 0.333333 4.749999
v 10.000000 0.333333 4.999999
v -9.500000 0.000000 4.500000
v -10.000000 0.333333 5.000000
v -9.750000 0.333333 4.750000
v -9.750000 0.166667 4.750000
v -9.500000 0.166667 4.500000
v 1.500000 0.000000 4.500000
v 1.500000 0.166667 4.500000
v 1.750000 0.166667 4.750000
v 1.750000 0.333333 4.750000
v 2.000000 0.333333 5.000000
v -1.500000 0.000000 4.500000
v -1.500000 0.166667 4.500000
v -1.750000 0.166667 4.750000
v -1.750000 0.333333 4.750000
v -2.000000 0.333333 5.000000
v -10.000000 11.999999 2.000000
v -10.000000 11.999999 -2.000000
v -11.000000 11.999999 2.000000
v -11.000000 11.999999 -2.000000
v 2.000000 11.999999 11.000000
v -2.000000 11.999999 11.000000
v -10.000002 11.999999 -4.999998
v 10.000000 11.999999 -2.000001
v 10.000000 11.999999 1.999999
v 11.000000 11.999999 -2.000002
v 11.000000 11.999999 1.999998
v 10.000000 11.999999 -5.000002
v 10.000000 11.999999 4.999999
v -10.000000 11.999999 5.000000
v 2.000000 11.999999 5.000000
v -2.000000 11.999999 5.000000
vn -0.0000 1.0000 -0.0000
vn -0.0000 -0.0000 1.0000
vn -0.0000 -0.0000 -1.0000
vn -1.0000 -0.0000 -0.0000
vn 1.0000 -0.0000 -0.0000
vn -0.0000 -1.0000 -0.0000
vt 0.953488 0.550388
vt 0.976744 0.550388
vt 0.976744 0.558140
vt 0.953488 0.558140
vt 0.441860 0.023256
vt 0.441860 0.000000
vt 0.447674 0.000000
vt 0.447674 0.029070
vt 0.453488 0.000000
vt 0.453488 0.034884
vt 0.953488 0.271318
vt 0.976744 0.271318
vt 0.976744 0.279070
vt 0.953488 0.279070
vt 0.534884 -0.000000
vt 0.534884 0.023256
vt 0.529070 0.029070
vt 0.529070 -0.000000
vt 0.523256 0.034884
vt 0.523256 -0.000000
vt 0.976744 0.271318
vt 1.000000 0.271318
vt 1.000000 0.279070
vt 0.534884 0.488372
vt 0.534884 0.511628
vt 0.529070 0.511628
vt 0.529070 0.482558
vt 0.523256 0.511628
vt 0.523256 0.476744
vt 0.953488 0.829457
vt 0.976744 0.829457
vt 0.976744 0.837209
vt 0.953488 0.837209
vt 0.441860 0.511628
vt 0.441860 0.488372
vt 0.447674 0.482558
vt 0.447674 0.511628
vt 0.453488 0.476744
vt 0.453488 0.511628
vt 0.453488 0.476744
vt 0.383721 0.476744
vt 0.377907 0.482558
vt 0.377907 0.488372
vt 0.947674 0.279070
vt 0.883721 0.279070
vt 0.883721 0.271318
vt 0.953488 0.271318
vt 0.271318 0.976744
vt 0.271318 0.511628
vt 0.279070 0.517442
vt 0.279070 0.970930
vt 0.372093 0.482558
vt 0.372093 0.029070
vt 0.377907 0.029070
vt 0.383721 0.034884
vt 0.883721 0.829457
vt 0.953488 0.829457
vt 0.953488 0.837209
vt 0.889535 0.837209
vt 0.377907 0.023256
vt 0.744186 0.829457
vt 0.813954 0.829457
vt 0.813954 0.837209
vt 0.750000 0.837209
vt 0.598837 0.488372
vt 0.598837 0.482558
vt 0.593023 0.476744
vt 0.744186 0.550388
vt 0.860465 0.550388
vt 0.860465 0.558140
vt 0.744186 0.558140
vt 0.604651 0.209302
vt 0.720930 0.209302
vt 0.720930 0.215116
vt 0.598837 0.215116
vt 0.720930 0.220930
vt 0.593023 0.220930
vt 0.279070 0.782946
vt 0.465116 0.782946
vt 0.459302 0.790698
vt 0.279070 0.790698
vt 0.604651 0.302326
vt 0.604651 0.482558
vt 0.598837 0.296512
vt 0.593023 0.290698
vt 0.883721 0.550388
vt 0.947674 0.558140
vt 0.883721 0.558140
vt 0.598837 0.023256
vt 0.598837 0.029070
vt 0.593023 0.034884
vt 0.767442 0.271318
vt 0.883721 0.271318
vt 0.883721 0.279070
vt 0.767442 0.279070
vt 0.720930 0.302326
vt 0.720930 0.296512
vt 0.720930 0.290698
vt 0.465116 0.782946
vt 0.651163 0.782946
vt 0.651163 0.790698
vt 0.470930 0.790698
vt 0.604651 0.029070
vt 0.744186 0.220930
s 1
f 10/1/1 20/2/1 19/3/1 9/4/1
f 9/5/2 19/6/2 18/7/2 8/8/2
f 8/8/1 18/7/1 17/9/1 7/10/1
f 7/10/2 17/9/2 16/9/2 6/10/2
f 12/11/1 2/12/1 3/13/1 13/14/1
f 13/15/3 3/16/3 4/17/3 14/18/3
f 14/18/1 4/17/1 5/19/1 15/20/1
f 15/20/3 5/19/3 1/19/3 11/20/3
f 45/21/1 55/22/1 54/23/1 44/13/1
f 44/24/3 54/25/3 53/26/3 43/27/3
f 43/27/1 53/26/1 52/28/1 42/29/1
f 42/29/3 52/28/3 51/28/3 41/29/3
f 47/30/1 37/31/1 38/32/1 48/33/1
f 48/34/2 38/35/2 39/36/2 49/37/2
f 49/37/1 39/36/1 40/38/1 50/39/1
f 50/39/2 40/38/2 36/40/2 46/39/2
f 56/41/4 36/40/4 40/38/4 60/41/4
f 60/41/1 40/38/1 39/36/1 59/42/1
f 59/42/4 39/36/4 38/35/4 58/43/4
f 58/44/1 38/45/1 37/46/1 57/47/1
f 57/48/1 32/49/1 33/50/1 58/51/1
f 58/52/2 33/53/2 34/54/2 59/42/2
f 59/42/1 34/54/1 35/55/1 60/41/1
f 60/41/2 35/55/2 31/55/2 56/41/2
f 32/56/1 10/57/1 9/58/1 33/59/1
f 33/60/5 9/5/5 8/8/5 34/54/5
f 34/54/1 8/8/1 7/10/1 35/55/1
f 35/55/5 7/10/5 6/10/5 31/55/5
f 65/61/1 45/62/1 44/63/1 64/64/1
f 64/65/4 44/24/4 43/27/4 63/66/4
f 63/66/1 43/27/1 42/29/1 62/67/1
f 62/67/4 42/29/4 41/29/4 61/67/4
f 80/68/1 30/69/1 29/70/1 79/71/1
f 79/72/5 29/73/5 28/74/5 78/75/5
f 78/75/1 28/74/1 27/76/1 77/77/1
f 77/77/5 27/76/5 26/76/5 76/77/5
f 75/78/1 65/79/1 64/80/1 74/81/1
f 74/82/3 64/83/3 63/66/3 73/84/3
f 73/84/1 63/66/1 62/67/1 72/85/1
f 72/85/3 62/67/3 61/67/3 71/85/3
f 2/86/1 67/1/1 68/87/1 3/88/1
f 3/16/5 68/89/5 69/90/5 4/17/5
f 4/17/1 69/90/1 70/91/1 5/19/1
f 5/19/5 70/91/5 66/91/5 1/19/5
f 22/92/1 75/93/1 74/94/1 23/95/1
f 23/96/4 74/82/4 73/84/4 24/97/4
f 24/97/1 73/84/1 72/85/1 25/98/1
f 25/98/4 72/85/4 71/85/4 21/98/4
f 67/99/1 80/100/1 79/101/1 68/102/1
f 68/103/3 79/72/3 78/75/3 69/90/3
f 69/90/1 78/75/1 77/77/1 70/91/1
f 70/91/3 77/77/3 76/77/3 66/91/3
f 6/10/1 16/9/1 11/20/1 1/19/1 66/91/1 76/77/1 26/104/1 21/98/1 71/85/1 61/67/1 41/29/1 51/28/1 46/39/1 36/40/1 56/41/1 31/55/1
f 30/69/5 80/68/5 96/68/5 86/69/5
f 10/57/5 32/56/5 87/56/5 82/57/5
f 55/22/3 45/21/3 89/21/3 91/22/3
f 2/12/3 12/11/3 83/11/3 81/12/3
f 65/79/3 75/78/3 95/78/3 93/79/3
f 20/2/2 10/1/2 82/1/2 84/2/2
f 75/93/4 22/92/4 85/92/4 95/93/4
f 57/47/4 37/46/4 88/46/4 92/47/4
f 67/1/5 2/86/5 81/86/5 94/1/5
f 45/62/4 65/61/4 93/61/4 89/62/4
f 32/49/2 57/48/2 92/48/2 87/49/2
f 37/31/2 47/30/2 90/30/2 88/31/2
f 80/100/3 67/99/3 94/99/3 96/100/3
f 84/2/6 82/57/6 87/49/6 92/47/6 88/31/6 90/30/6 91/22/6 89/62/6 93/79/6 95/93/6 85/92/6 86/69/6 96/100/6 94/1/6 81/12/6 83/11/6
