# Blender 4.1.1
# www.blender.org
o Plane.017
v 1.500000 0.000000 9.500000
v 1.500000 0.166667 9.500000
v 1.750000 0.166667 9.750000
v 1.750000 0.333333 9.750000
v 2.000000 0.333333 10.000000
v 8.500000 0.000000 8.500000
v 9.000000 0.333333 9.000000
v 8.750000 0.333333 8.750000
v 8.750000 0.166667 8.750000
v 8.500000 0.166667 8.500000
v -1.500000 0.000000 9.792892
v -1.500000 0.166667 9.792892
v -1.750000 0.166667 9.896446
v -1.750000 0.333333 9.896446
v -2.000000 0.333333 10.000000
v -9.792892 0.000000 1.500000
v -10.000000 0.333333 2.000000
v -9.896446 0.333333 1.750000
v -9.896446 0.166667 1.750000
v -9.792892 0.166667 1.500000
v -9.500000 0.000000 -1.500000
v -9.500000 0.166667 -1.500000
v -9.750000 0.166667 -1.750000
v -9.750000 0.333333 -1.750000
v -10.000000 0.333333 -2.000000
v -11.000000 0.000000 1.500000
v -11.000000 0.333333 2.000000
v -11.000000 0.333333 1.750000
v -11.000000 0.166667 1.750000
v -11.000000 0.166667 1.500000
v -11.000000 0.000000 -1.500000
v -11.000000 0.166667 -1.500000
v -11.000000 0.166667 -1.750000
v -11.000000 0.333333 -1.750000
v -11.000000 0.333333 -2.000000
v 1.500000 0.000000 11.000000
v 2.000000 0.333333 11.000000
v 1.750000 0.333333 11.000000
v 1.750000 0.166667 11.000000
v 1.500000 0.166667 11.000000
v -1.500000 0.000000 11.000000
v -1.500000 0.166667 11.000000
v -1.750000 0.166667 11.000000
v -1.750000 0.333333 11.000000
v -2.000000 0.333333 11.000000
v -1.500001 0.000000 -9.500000
v -1.500001 0.166667 -9.500000
v -1.750001 0.166667 -9.750000
v -1.750001 0.333333 -9.750000
v -2.000001 0.333333 -10.000000
v -8.500002 0.000000 -8.499998
v -9.000002 0.333333 -8.999998
v -8.750002 0.333333 -8.749998
v -8.750002 0.166667 -8.749998
v -8.500002 0.166667 -8.499998
v 1.499998 0.000000 -9.792892
v 1.499999 0.166667 -9.792892
v 1.749999 0.166667 -9.896446
v 1.749998 0.333333 -9.896446
v 1.999998 0.333333 -10.000000
v 9.792892 0.000000 -1.500001
v 10.000000 0.333333 -2.000001
v 9.896446 0.333333 -1.750001
v 9.896446 0.166667 -1.750002
v 9.792892 0.166667 -1.500002
v 9.500000 0.000000 1.499999
v 9.500000 0.166667 1.499999
v 9.750000 0.166667 1.749999
v 9.750000 0.333333 1.749999
v 10.000000 0.333333 1.999999
v 11.000000 0.000000 -1.500002
v 11.000000 0.333333 -2.000002
v 11.000000 0.333333 -1.750002
v 11.000000 0.166667 -1.750002
v 11.000000 0.166667 -1.500002
v 11.000000 0.000000 1.499998
v 11.000000 0.166667 1.499998
v 11.000000 0.166667 1.749998
v 11.000000 0.333333 1.749998
v 11.000000 0.333333 1.999998
v -1.500002 0.000000 -11.000000
v -2.000002 0.333333 -11.000000
v -1.750002 0.333333 -11.000000
v -1.750002 0.166667 -11.000000
v -1.500002 0.166667 -11.000000
v 1.499998 0.000000 -11.000000
v 1.499998 0.166667 -11.000000
v 1.749998 0.166667 -11.000000
v 1.749998 0.333333 -11.000000
v 1.999998 0.333333 -11.000000
v 2.000000 12.000000 10.000000
v 9.000000 12.000000 9.000000
v -2.000000 12.000000 10.000000
v -10.000000 12.000000 2.000000
v -10.000000 12.000000 -2.000000
v -11.000000 12.000000 2.000000
v -11.000000 12.000000 -2.000000
v 2.000000 12.000000 11.000000
v -2.000000 12.000000 11.000000
v -2.000001 12.000000 -10.000000
v -9.000002 12.000000 -8.999998
v 1.999998 12.000000 -10.000000
v 10.000000 12.000000 -2.000001
v 10.000000 12.000000 1.999999
v 11.000000 12.000000 -2.000002
v 11.000000 12.000000 1.999998
v -2.000002 12.000000 -11.000000
v 1.999998 12.000000 -11.000000
vn -0.0000 1.0000 -0.0000
vn -0.1414 -0.0000 -0.9899
vn -0.0000 -0.0000 1.0000
vn -0.0000 -0.0000 -1.0000
vn 1.0000 -0.0000 -0.0000
vn -1.0000 -0.0000 -0.0000
vn 0.7071 -0.0000 -0.7071
vn 0.1414 -0.0000 0.9899
vn -0.7071 -0.0000 0.7071
vn 0.9899 -0.0000 0.1414
vn -0.9899 -0.0000 -0.1414
vn -0.0000 -1.0000 -0.0000
vt 0.704546 0.265152
vt 0.886364 0.265152
vt 0.880682 0.272727
vt 0.704546 0.272727
vt 0.022727 0.704545
vt 0.022727 0.528409
vt 0.028409 0.528409
vt 0.028409 0.710227
vt 0.034091 0.534091
vt 0.034091 0.715909
vt 0.886364 0.810606
vt 0.909091 0.810606
vt 0.909091 0.818182
vt 0.886364 0.818182
vt 0.295455 0.977273
vt 0.295455 1.000000
vt 0.289773 1.000000
vt 0.289773 0.971591
vt 0.284091 1.000000
vt 0.284091 0.965909
vt 0.886364 0.537879
vt 0.909091 0.537879
vt 0.909091 0.545455
vt 0.886364 0.545455
vt 0.204545 1.000000
vt 0.204545 0.977273
vt 0.210227 0.974919
vt 0.210227 1.000000
vt 0.215909 0.972566
vt 0.215909 1.000000
vt 0.215909 0.972566
vt 0.681818 0.265152
vt 0.704546 0.265152
vt 0.704546 0.272727
vt 0.681818 0.272727
vt 0.022727 0.795455
vt 0.000000 0.795455
vt 0.000000 0.789773
vt 0.025081 0.789773
vt 0.000000 0.784091
vt 0.027434 0.784091
vt 0.909091 0.265152
vt 0.909091 0.272727
vt 0.886364 0.272727
vt 0.000000 0.704545
vt 0.000000 0.710227
vt 0.000000 0.715909
vt 0.500000 0.265152
vt 0.681818 0.265152
vt 0.500000 0.272727
vt 0.704546 0.537879
vt 0.886364 0.537879
vt 0.880682 0.545455
vt 0.704546 0.545455
vt 0.477273 0.795455
vt 0.477273 0.971591
vt 0.471591 0.971591
vt 0.471591 0.789773
vt 0.465909 0.965909
vt 0.465909 0.784091
vt 0.465909 0.784091
vt 0.931818 0.810606
vt 0.931818 0.818182
vt 0.204546 0.522727
vt 0.204546 0.500000
vt 0.210227 0.500000
vt 0.210227 0.528409
vt 0.215909 0.500000
vt 0.215909 0.534091
vt 0.500000 0.537879
vt 0.522727 0.537879
vt 0.522727 0.545455
vt 0.500000 0.545455
vt 0.295455 0.500000
vt 0.295455 0.522727
vt 0.289773 0.525081
vt 0.289773 0.500000
vt 0.284091 0.527434
vt 0.284091 0.500000
vt 0.284091 0.527434
vt 0.909091 0.537879
vt 0.931818 0.537879
vt 0.931818 0.545455
vt 0.909091 0.545455
vt 0.477273 0.704546
vt 0.500000 0.704546
vt 0.500000 0.710227
vt 0.474919 0.710227
vt 0.500000 0.715909
vt 0.472566 0.715909
vt 0.931818 0.265152
vt 0.931818 0.272727
vt 0.500000 0.795455
vt 0.500000 0.789773
vt 0.500000 0.784091
vt 0.704545 0.537879
vt 0.704545 0.545455
vt 0.704546 0.810606
vt 0.886364 0.810606
vt 0.886364 0.818182
vt 0.710227 0.818182
vt 0.471591 0.977273
vt 0.500000 0.810606
vt 0.681818 0.810606
vt 0.681818 0.818182
vt 0.505682 0.818182
vt 0.028409 0.522727
s 1
f 5/1/1 7/2/1 8/3/1 4/4/1
f 4/5/2 8/6/2 9/7/2 3/8/2
f 3/8/1 9/7/1 10/9/1 2/10/1
f 2/10/2 10/9/2 6/9/2 1/10/2
f 25/11/1 35/12/1 34/13/1 24/14/1
f 24/15/3 34/16/3 33/17/3 23/18/3
f 23/18/1 33/17/1 32/19/1 22/20/1
f 22/20/3 32/19/3 31/19/3 21/20/3
f 27/21/1 17/22/1 18/23/1 28/24/1
f 28/25/4 18/26/4 19/27/4 29/28/4
f 29/28/1 19/27/1 20/29/1 30/30/1
f 30/30/4 20/29/4 16/31/4 26/30/4
f 15/32/1 45/33/1 44/34/1 14/35/1
f 14/36/5 44/37/5 43/38/5 13/39/5
f 13/39/1 43/38/1 42/40/1 12/41/1
f 12/41/5 42/40/5 41/40/5 11/41/5
f 37/2/1 5/42/1 4/43/1 38/44/1
f 38/45/6 4/5/6 3/8/6 39/46/6
f 39/46/1 3/8/1 2/10/1 40/47/1
f 40/47/6 2/10/6 1/10/6 36/47/6
f 17/48/1 15/49/1 14/35/1 18/50/1
f 18/26/7 14/36/7 13/39/7 19/27/7
f 19/27/1 13/39/1 12/41/1 20/29/1
f 20/29/7 12/41/7 11/41/7 16/31/7
f 50/51/1 52/52/1 53/53/1 49/54/1
f 49/55/8 53/56/8 54/57/8 48/58/8
f 48/58/1 54/57/1 55/59/1 47/60/1
f 47/60/8 55/59/8 51/59/8 46/61/8
f 70/12/1 80/62/1 79/63/1 69/13/1
f 69/64/4 79/65/4 78/66/4 68/67/4
f 68/67/1 78/66/1 77/68/1 67/69/1
f 67/69/4 77/68/4 76/68/4 66/69/4
f 72/70/1 62/71/1 63/72/1 73/73/1
f 73/74/3 63/75/3 64/76/3 74/77/3
f 74/77/1 64/76/1 65/78/1 75/79/1
f 75/79/3 65/78/3 61/80/3 71/79/3
f 60/81/1 90/82/1 89/83/1 59/84/1
f 59/85/6 89/86/6 88/87/6 58/88/6
f 58/88/1 88/87/1 87/89/1 57/90/1
f 57/90/6 87/89/6 86/89/6 56/90/6
f 82/42/1 50/91/1 49/92/1 83/43/1
f 83/93/5 49/55/5 48/58/5 84/94/5
f 84/94/1 48/58/1 47/60/1 85/95/1
f 85/95/5 47/60/5 46/61/5 81/95/5
f 62/71/1 60/96/1 59/97/1 63/72/1
f 63/75/9 59/85/9 58/88/9 64/76/9
f 64/76/1 58/88/1 57/90/1 65/78/1
f 65/78/9 57/90/9 56/90/9 61/80/9
f 52/98/1 25/99/1 24/100/1 53/101/1
f 53/102/10 24/15/10 23/18/10 54/57/10
f 54/57/1 23/18/1 22/20/1 55/59/1
f 55/59/10 22/20/10 21/20/10 51/59/10
f 7/103/1 70/104/1 69/105/1 8/106/1
f 8/107/11 69/64/11 68/67/11 9/7/11
f 9/7/1 68/67/1 67/69/1 10/9/1
f 10/9/11 67/69/11 66/69/11 6/9/11
f 1/10/1 6/9/1 66/69/1 76/68/1 71/79/1 61/80/1 56/90/1 86/89/1 81/95/1 46/61/1 51/59/1 21/20/1 31/19/1 26/30/1 16/31/1 11/41/1 41/40/1 36/47/1
f 35/12/3 25/11/3 95/11/3 97/12/3
f 25/99/10 52/98/10 101/98/10 95/99/10
f 52/52/8 50/51/8 100/51/8 101/52/8
f 50/91/5 82/42/5 107/42/5 100/91/5
f 7/2/2 5/1/2 91/1/2 92/2/2
f 5/42/6 37/2/6 98/2/6 91/42/6
f 60/96/9 62/71/9 103/71/9 102/96/9
f 90/82/6 60/81/6 102/81/6 108/82/6
f 15/49/7 17/48/7 94/48/7 93/49/7
f 45/33/5 15/32/5 93/32/5 99/33/5
f 62/71/3 72/70/3 105/70/3 103/71/3
f 70/104/11 7/103/11 92/103/11 104/104/11
f 17/22/4 27/21/4 96/21/4 94/22/4
f 80/62/4 70/12/4 104/12/4 106/62/4
f 92/103/12 91/42/12 98/2/12 99/33/12 93/49/12 94/22/12 96/21/12 97/12/12 95/99/12 101/52/12 100/91/12 107/42/12 108/82/12 102/96/12 103/71/12 105/70/12 106/62/12 104/104/12
