# Blender 4.1.1
# www.blender.org
o Plane.026
v 2.000000 12.000000 10.000000
v 10.000000 12.000000 -2.000000
v -2.000000 12.000000 10.000000
v -10.000000 12.000000 2.000000
v -10.000000 12.000000 -2.000000
v 1.000000 12.000000 -10.000000
v -11.000000 12.000000 2.000000
v -11.000000 12.000000 -2.000000
v 2.000000 12.000000 11.000000
v -2.000000 12.000000 11.000000
v 10.000000 12.000000 -10.000000
v -3.000000 12.000000 3.000000
v 2.000000 0.500000 10.000000
v 1.500000 0.000000 9.848612
v 2.000000 0.333333 10.000000
v 1.750000 0.333333 9.924306
v 1.750000 0.166667 9.924306
v 1.500000 0.166667 9.848612
v 9.500000 0.000000 -2.151388
v 10.000000 0.500000 -2.000000
v 9.500000 0.166667 -2.151388
v 9.750000 0.166667 -2.075694
v 9.750000 0.333333 -2.075694
v 10.000000 0.333333 -2.000000
v -2.000000 0.500000 10.000000
v -1.500000 0.000000 9.964466
v -2.000000 0.333333 10.000000
v -1.750000 0.333333 9.982233
v -1.750000 0.166667 9.982233
v -1.500000 0.166667 9.964466
v -9.964466 0.000000 1.500000
v -10.000000 0.500000 2.000000
v -9.964466 0.166667 1.500000
v -9.982233 0.166667 1.750000
v -9.982233 0.333333 1.750000
v -10.000000 0.333333 2.000000
v -9.837408 0.000000 -1.500000
v -10.000000 0.500000 -2.000000
v -9.837408 0.166667 -1.500000
v -9.918704 0.166667 -1.750000
v -9.918704 0.333333 -1.750000
v -10.000000 0.333333 -2.000000
v 1.000000 0.500000 -10.000000
v 1.162592 0.000000 -9.500000
v 1.000000 0.333333 -10.000000
v 1.081296 0.333333 -9.750000
v 1.081296 0.166667 -9.750000
v 1.162592 0.166667 -9.500000
v -11.000000 0.000000 1.500000
v -11.000000 0.500000 2.000000
v -11.000000 0.166667 1.500000
v -11.000000 0.166667 1.750000
v -11.000000 0.333333 1.750000
v -11.000000 0.333333 2.000000
v -11.000000 0.500000 -2.000000
v -11.000000 0.000000 -1.500000
v -11.000000 0.333333 -2.000000
v -11.000000 0.333333 -1.750000
v -11.000000 0.166667 -1.750000
v -11.000000 0.166667 -1.500000
v 1.500000 0.000000 11.000000
v 2.000000 0.500000 11.000000
v 1.500000 0.166667 11.000000
v 1.750000 0.166667 11.000000
v 1.750000 0.333333 11.000000
v 2.000000 0.333333 11.000000
v -2.000000 0.500000 11.000000
v -1.500000 0.000000 11.000000
v -2.000000 0.333333 11.000000
v -1.750000 0.333333 11.000000
v -1.750000 0.166667 11.000000
v -1.500000 0.166667 11.000000
v 10.000000 0.500000 -10.000000
v 9.500000 0.000000 -9.500000
v 10.000000 0.333333 -10.000000
v 9.750000 0.333333 -9.750000
v 9.750000 0.166667 -9.750000
v 9.500000 0.166667 -9.500000
v -3.000000 0.500000 3.000000
v -2.558058 0.000000 2.558058
v -3.000000 0.333333 3.000000
v -2.779029 0.333333 2.779029
v -2.779029 0.166667 2.779029
v -2.558058 0.166667 2.558058
vn -1.0000 -0.0000 -0.0000
vn -0.0000 -1.0000 -0.0000
vn 0.9975 -0.0000 -0.0709
vn 1.0000 -0.0000 -0.0000
vn -0.0000 1.0000 -0.0000
vn 0.0709 -0.0000 -0.9975
vn 0.1414 -0.0000 -0.9899
vn 0.5882 -0.0000 0.8087
vn -0.0000 -0.0000 1.0000
vn -0.0000 -0.0000 -1.0000
vn 0.9899 -0.0000 -0.1414
vn -0.8321 -0.0000 -0.5547
vt 0.879924 0.559275
vt 0.879924 0.528769
vt 0.913119 0.439962
vt 0.879924 0.439962
vt 0.879924 0.707019
vt 0.879925 0.974075
vt 0.879925 1.000000
vt 0.439962 0.195981
vt 0.439962 0.211548
vt 0.439962 0.648335
vt 0.439962 0.788429
vt 0.879924 0.000000
vt 0.874433 0.519581
vt 0.853653 0.058355
vt 0.463466 0.743989
vt 0.452536 0.637134
vt 0.507786 0.322472
vt 0.494958 0.296484
vt 0.824929 0.899498
vt 0.831223 0.890234
vt 0.833211 0.641354
vt 0.882948 0.450519
vt 0.908970 0.454876
vt 0.884074 0.544361
vt 0.874432 0.519581
vt 0.876422 0.524801
vt 0.866610 0.029670
vt 0.879924 0.529002
vt 0.877843 0.005118
vt 0.507786 0.322472
vt 0.446156 0.642783
vt 0.475361 0.268614
vt 0.439962 0.647662
vt 0.439962 0.210875
vt 0.439962 0.648335
vt 0.467460 0.246233
vt 0.852427 0.949749
vt 0.856063 0.933425
vt 0.879925 0.974180
vt 0.882076 0.444986
vt 0.911045 0.447419
vt 0.879630 0.439627
vt 0.913119 0.439962
vt 0.879924 0.439962
vt 0.881999 0.551818
vt 0.854219 0.670851
vt 0.879924 0.707018
vt 0.439962 0.788429
vt 0.446837 0.774164
vt 0.451799 0.765974
s 1
f 62/1/1 9/1/1 1/2/1 13/2/1
f 1/2/2 9/1/2 10/3/2 3/4/2 12/5/2 4/6/2 7/7/2 8/8/2 5/9/2 6/10/2 11/11/2 2/12/2
f 25/4/3 3/4/3 10/3/4 67/3/4
f 14/13/5 19/14/5 74/15/5 44/16/5 37/17/5 56/18/5 49/19/5 31/20/5 80/21/5 26/22/5 68/23/5 61/24/5
f 20/12/1 2/12/1 11/11/1 73/11/1
f 32/6/6 4/6/6 12/5/7 79/5/7
f 43/10/8 6/10/8 5/9/8 38/9/8
f 38/9/9 5/9/9 8/8/9 55/8/9
f 50/7/10 7/7/10 4/6/6 32/6/6
f 79/5/11 12/5/11 3/4/3 25/4/3
f 73/11/9 11/11/9 6/10/9 43/10/9
f 14/13/12 18/25/12 21/14/12 19/14/12
f 18/25/5 17/26/5 22/27/5 21/14/5
f 17/26/12 16/28/12 23/29/12 22/27/12
f 16/28/5 15/2/5 24/12/5 23/29/5
f 15/2/12 13/2/12 20/12/12 24/12/12
f 44/16/8 48/16/8 39/30/8 37/17/8
f 48/16/5 47/31/5 40/32/5 39/30/5
f 47/31/8 46/33/8 41/34/8 40/32/8
f 46/33/5 45/35/5 42/9/5 41/34/5
f 45/35/8 43/10/8 38/9/8 42/9/8
f 37/17/9 39/30/9 60/18/9 56/18/9
f 39/30/5 40/32/5 59/36/5 60/18/5
f 40/32/9 41/34/9 58/8/9 59/36/9
f 41/34/5 42/9/5 57/8/5 58/8/5
f 42/9/9 38/9/9 55/8/9 57/8/9
f 49/19/10 51/19/10 33/20/6 31/20/6
f 51/19/5 52/37/5 34/38/5 33/20/5
f 52/37/10 53/7/10 35/39/6 34/38/6
f 53/7/5 54/7/5 36/6/5 35/39/5
f 54/7/10 50/7/10 32/6/6 36/6/6
f 26/22/3 30/22/3 72/23/4 68/23/4
f 30/22/5 29/40/5 71/41/5 72/23/5
f 29/40/3 28/42/3 70/43/4 71/41/4
f 28/42/5 27/44/5 69/43/5 70/43/5
f 27/44/3 25/4/3 67/3/4 69/43/4
f 61/24/1 63/24/1 18/25/1 14/13/1
f 63/24/5 64/45/5 17/26/5 18/25/5
f 64/45/1 65/1/1 16/28/1 17/26/1
f 65/1/5 66/1/5 15/2/5 16/28/5
f 66/1/1 62/1/1 13/2/1 15/2/1
f 80/21/11 84/21/11 30/22/3 26/22/3
f 84/21/5 83/46/5 29/40/5 30/22/5
f 83/46/11 82/47/11 28/42/3 29/40/3
f 82/47/5 81/47/5 27/44/5 28/42/5
f 81/47/11 79/5/11 25/4/3 27/44/3
f 43/10/9 45/35/9 75/48/9 73/11/9
f 45/35/5 46/33/5 76/49/5 75/48/5
f 46/33/9 47/31/9 77/50/9 76/49/9
f 47/31/5 48/16/5 78/15/5 77/50/5
f 48/16/9 44/16/9 74/15/9 78/15/9
f 19/14/1 21/14/1 78/15/1 74/15/1
f 21/14/5 22/27/5 77/50/5 78/15/5
f 22/27/1 23/29/1 76/49/1 77/50/1
f 23/29/5 24/12/5 75/48/5 76/49/5
f 24/12/1 20/12/1 73/11/1 75/48/1
f 31/20/6 33/20/6 84/21/7 80/21/7
f 33/20/5 34/38/5 83/46/5 84/21/5
f 34/38/6 35/39/6 82/47/7 83/46/7
f 35/39/5 36/6/5 81/47/5 82/47/5
f 36/6/6 32/6/6 79/5/7 81/47/7
f 13/2/12 1/2/12 2/12/12 20/12/12
