# Blender 4.1.1
# www.blender.org
o Plane.029
v 1.500000 0.000000 9.500000
v 1.500000 0.166667 9.500000
v 1.750000 0.166667 9.750000
v 1.750000 0.333333 9.750000
v 2.000000 0.333333 10.000000
v 9.500000 0.000000 9.500000
v 10.000000 0.333333 10.000000
v 9.750000 0.333333 9.750000
v 9.750000 0.166667 9.750000
v 9.500000 0.166667 9.500000
v -1.500000 0.000000 9.792892
v -1.500000 0.166667 9.792892
v -1.750000 0.166667 9.896446
v -1.750000 0.333333 9.896446
v -2.000000 0.333333 10.000000
v -9.792892 0.000000 1.500000
v -10.000000 0.333333 2.000000
v -9.896446 0.333333 1.750000
v -9.896446 0.166667 1.750000
v -9.792892 0.166667 1.500000
v -9.500000 0.000000 -1.500000
v -10.000000 0.333333 -2.000000
v -9.750000 0.333333 -1.750000
v -9.750000 0.166667 -1.750000
v -9.500000 0.166667 -1.500000
v -9.500000 0.000000 -9.500000
v -9.500000 0.166667 -9.500000
v -9.750000 0.166667 -9.750000
v -9.750000 0.333333 -9.750000
v -10.000000 0.333333 -10.000000
v -11.000000 0.000000 1.500000
v -11.000000 0.333333 2.000000
v -11.000000 0.333333 1.750000
v -11.000000 0.166667 1.750000
v -11.000000 0.166667 1.500000
v -11.000000 0.000000 -1.500000
v -11.000000 0.166667 -1.500000
v -11.000000 0.166667 -1.750000
v -11.000000 0.333333 -1.750000
v -11.000000 0.333333 -2.000000
v 1.500000 0.000000 11.000000
v 2.000000 0.333333 11.000000
v 1.750000 0.333333 11.000000
v 1.750000 0.166667 11.000000
v 1.500000 0.166667 11.000000
v -1.500000 0.000000 11.000000
v -1.500000 0.166667 11.000000
v -1.750000 0.166667 11.000000
v -1.750000 0.333333 11.000000
v -2.000000 0.333333 11.000000
v 9.500000 0.000000 6.207107
v 9.500000 0.166667 6.207107
v 9.750000 0.166667 6.103554
v 9.750000 0.333333 6.103554
v 10.000000 0.333333 6.000000
v -6.207107 0.000000 -9.500000
v -6.000000 0.333333 -10.000000
v -6.103554 0.333333 -9.750000
v -6.103554 0.166667 -9.750000
v -6.207108 0.166667 -9.500000
v 2.000000 12.000000 10.000000
v 10.000000 12.000000 10.000000
v -2.000000 12.000000 10.000000
v -10.000000 12.000000 2.000000
v -10.000000 12.000000 -2.000000
v -10.000000 12.000000 -10.000000
v -11.000000 12.000000 2.000000
v -11.000000 12.000000 -2.000000
v 2.000000 12.000000 11.000000
v -2.000000 12.000000 11.000000
v 10.000000 12.000000 6.000000
v -6.000000 12.000000 -10.000000
vn -0.0000 1.0000 -0.0000
vn -0.0000 -0.0000 -1.0000
vn 1.0000 -0.0000 -0.0000
vn -0.0000 -0.0000 1.0000
vn -1.0000 -0.0000 -0.0000
vn -0.7071 -0.0000 0.7071
vn 0.7071 -0.0000 -0.7071
vn -0.0000 -1.0000 -0.0000
vt 0.430527 0.974123
vt 0.568458 0.974123
vt 0.564148 0.982251
vt 0.430527 0.982251
vt 0.379310 0.137931
vt 0.512931 0.004310
vt 0.517241 0.008621
vt 0.379310 0.146552
vt 0.517241 0.017241
vt 0.379310 0.155172
vt 0.292596 0.974123
vt 0.430527 0.974123
vt 0.430527 0.982251
vt 0.296906 0.982251
vt 0.512931 0.685345
vt 0.379310 0.551724
vt 0.379310 0.543103
vt 0.517241 0.681034
vt 0.379310 0.534483
vt 0.517241 0.672414
vt 0.585699 0.974123
vt 0.602941 0.974123
vt 0.602941 0.982251
vt 0.585699 0.982251
vt 0.362069 0.568965
vt 0.357759 0.564655
vt 0.353448 0.560345
vt 0.284468 1.000000
vt 0.284468 0.982759
vt 0.292596 0.982759
vt 0.292596 1.000000
vt 0.293103 0.500000
vt 0.310345 0.482759
vt 0.316441 0.485283
vt 0.297414 0.504310
vt 0.322536 0.487808
vt 0.301724 0.508621
vt 0.322536 0.487808
vt 0.284468 0.706897
vt 0.284468 0.689655
vt 0.292596 0.689655
vt 0.292596 0.706897
vt 0.310345 0.206896
vt 0.293103 0.189655
vt 0.297414 0.185345
vt 0.316441 0.204372
vt 0.301724 0.181034
vt 0.322536 0.201847
vt 0.568458 0.974123
vt 0.585699 0.974123
vt 0.585699 0.982251
vt 0.568458 0.982251
vt 0.362069 0.120690
vt 0.357759 0.125000
vt 0.353448 0.129310
vt 0.574015 0.615640
vt 0.574015 0.074015
vt 0.574015 0.615640
vt 0.580111 0.071490
vt 0.580111 0.618165
vt 0.586207 0.071490
vt 0.586207 0.618165
vt 0.878803 0.071490
vt 0.878803 0.618165
vt 0.870675 0.620690
vt 0.870675 0.068966
vt 0.870675 0.689655
vt 0.878803 0.622475
vt 0.878803 0.685345
vt 0.521552 0.004310
vt 0.584421 0.067180
vt 0.584421 0.622475
vt 0.521552 0.685345
vt 0.878803 0.004310
vt 0.878803 0.067180
vt 0.870675 0.000000
s 1
f 5/1/1 7/2/1 8/3/1 4/4/1
f 4/5/2 8/6/2 9/7/2 3/8/2
f 3/8/1 9/7/1 10/9/1 2/10/1
f 2/10/2 10/9/2 6/9/2 1/10/2
f 30/11/1 22/12/1 23/13/1 29/14/1
f 29/15/3 23/16/3 24/17/3 28/18/3
f 28/18/1 24/17/1 25/19/1 27/20/1
f 27/20/3 25/19/3 21/19/3 26/20/3
f 22/21/1 40/22/1 39/23/1 23/24/1
f 23/16/4 39/25/4 38/26/4 24/17/4
f 24/17/1 38/26/1 37/27/1 25/19/1
f 25/19/4 37/27/4 36/27/4 21/19/4
f 32/28/1 17/29/1 18/30/1 33/31/1
f 33/32/2 18/33/2 19/34/2 34/35/2
f 34/35/1 19/34/1 20/36/1 35/37/1
f 35/37/2 20/36/2 16/38/2 31/37/2
f 15/39/1 50/40/1 49/41/1 14/42/1
f 14/43/3 49/44/3 48/45/3 13/46/3
f 13/46/1 48/45/1 47/47/1 12/48/1
f 12/48/3 47/47/3 46/47/3 11/48/3
f 42/49/1 5/50/1 4/51/1 43/52/1
f 43/53/5 4/5/5 3/8/5 44/54/5
f 44/54/1 3/8/1 2/10/1 45/55/1
f 45/55/5 2/10/5 1/10/5 41/55/5
f 56/56/6 51/57/6 52/57/6 60/58/6
f 60/58/1 52/57/1 53/59/1 59/60/1
f 59/60/6 53/59/6 54/61/6 58/62/6
f 58/63/1 54/64/1 55/65/1 57/66/1
f 7/67/1 55/65/1 54/68/1 8/69/1
f 8/70/5 54/71/5 53/59/5 9/7/5
f 9/7/1 53/59/1 52/57/1 10/9/1
f 10/9/5 52/57/5 51/57/5 6/9/5
f 26/20/4 56/56/4 60/58/4 27/20/4
f 27/20/1 60/58/1 59/60/1 28/18/1
f 28/18/4 59/60/4 58/72/4 29/73/4
f 29/74/1 58/75/1 57/66/1 30/76/1
f 17/29/1 15/39/1 14/42/1 18/30/1
f 18/33/7 14/43/7 13/46/7 19/34/7
f 19/34/1 13/46/1 12/48/1 20/36/1
f 20/36/7 12/48/7 11/48/7 16/38/7
f 1/10/1 6/9/1 51/57/1 56/56/1 26/20/1 21/19/1 36/27/1 31/37/1 16/38/1 11/48/1 46/47/1 41/55/1
f 40/22/4 22/21/4 65/21/4 68/22/4
f 22/12/3 30/11/3 66/11/3 65/12/3
f 5/50/5 42/49/5 69/49/5 61/50/5
f 7/2/2 5/1/2 61/1/2 62/2/2
f 30/76/4 57/66/4 72/66/4 66/76/4
f 50/40/3 15/39/3 63/39/3 70/40/3
f 57/66/6 55/65/6 71/65/6 72/66/6
f 17/29/2 32/28/2 67/28/2 64/29/2
f 15/39/7 17/29/7 64/29/7 63/39/7
f 55/65/5 7/67/5 62/67/5 71/65/5
f 62/67/8 61/50/8 69/49/8 70/40/8 63/39/8 64/29/8 67/28/8 68/22/8 65/12/8 66/76/8 72/66/8 71/65/8
