# Blender 4.1.1
# www.blender.org
o Plane.037
v 2.000000 12.000000 10.000000
v 10.000000 12.000000 -2.000000
v 1.000000 12.000000 -10.000000
v -10.000000 12.000000 -2.000000
v -11.000000 12.000000 -2.000000
v -11.000000 12.000000 2.000000
v -10.000000 12.000000 2.000000
v -2.000000 12.000000 10.000000
v -2.000000 12.000000 11.000000
v 2.000000 12.000000 11.000000
v 10.000000 12.000000 -10.000000
v 1.500000 0.000000 9.848612
v 1.500000 0.166667 9.848612
v 1.750000 0.166667 9.924306
v 1.750000 0.333333 9.924306
v 2.000000 0.333333 10.000000
v 9.500000 0.000000 -2.151388
v 10.000000 0.333333 -2.000000
v 9.750000 0.333333 -2.075694
v 9.750000 0.166667 -2.075694
v 9.500000 0.166667 -2.151388
v -1.500000 0.000000 9.792892
v -1.500000 0.166667 9.792892
v -1.750000 0.166667 9.896446
v -1.750000 0.333333 9.896446
v -2.000000 0.333333 10.000000
v -9.792892 0.000000 1.500000
v -10.000000 0.333333 2.000000
v -9.896446 0.333333 1.750000
v -9.896446 0.166667 1.750000
v -9.792892 0.166667 1.500000
v -9.837408 0.000000 -1.500000
v -10.000000 0.333333 -2.000000
v -9.918704 0.333333 -1.750000
v -9.918704 0.166667 -1.750000
v -9.837408 0.166667 -1.500000
v 1.162592 0.000000 -9.500000
v 1.162592 0.166667 -9.500000
v 1.081296 0.166667 -9.750000
v 1.081296 0.333333 -9.750000
v 1.000000 0.333333 -10.000000
v -11.000000 0.000000 1.500000
v -11.000000 0.333333 2.000000
v -11.000000 0.333333 1.750000
v -11.000000 0.166667 1.750000
v -11.000000 0.166667 1.500000
v -11.000000 0.000000 -1.500000
v -11.000000 0.166667 -1.500000
v -11.000000 0.166667 -1.750000
v -11.000000 0.333333 -1.750000
v -11.000000 0.333333 -2.000000
v 1.500000 0.000000 11.000000
v 2.000000 0.333333 11.000000
v 1.750000 0.333333 11.000000
v 1.750000 0.166667 11.000000
v 1.500000 0.166667 11.000000
v -1.500000 0.000000 11.000000
v -1.500000 0.166667 11.000000
v -1.750000 0.166667 11.000000
v -1.750000 0.333333 11.000000
v -2.000000 0.333333 11.000000
v 9.500000 0.000000 -9.500000
v 9.500000 0.166667 -9.500000
v 9.750000 0.166667 -9.750000
v 9.750000 0.333333 -9.750000
v 10.000000 0.333333 -10.000000
vn -1.0000 -0.0000 -0.0000
vn -0.0000 -1.0000 -0.0000
vn 0.5882 -0.0000 0.8087
vn -0.0000 -0.0000 1.0000
vn -0.0000 -0.0000 -1.0000
vn 0.7071 -0.0000 -0.7071
vn 1.0000 -0.0000 -0.0000
vn -0.0000 1.0000 -0.0000
vn -0.8321 -0.0000 -0.5547
vt 0.879924 0.559275
vt 0.879924 0.528769
vt 0.913119 0.439962
vt 0.879924 0.439962
vt 0.879925 0.974075
vt 0.879925 1.000000
vt 0.439962 0.195981
vt 0.439962 0.211548
vt 0.439962 0.648335
vt 0.439962 0.788429
vt 0.879924 0.000000
vt 0.874334 0.523018
vt 0.853625 0.057925
vt 0.463299 0.744004
vt 0.452048 0.636736
vt 0.500943 0.308442
vt 0.494958 0.296484
vt 0.824929 0.899498
vt 0.816810 0.856690
vt 0.880343 0.459308
vt 0.908970 0.454876
vt 0.884074 0.544361
vt 0.877843 0.005118
vt 0.879924 0.529002
vt 0.866603 0.029449
vt 0.876389 0.526751
vt 0.874334 0.523018
vt 0.439962 0.648335
vt 0.439962 0.210875
vt 0.439962 0.647662
vt 0.471467 0.260645
vt 0.445913 0.642585
vt 0.467460 0.246233
vt 0.879925 0.975177
vt 0.846966 0.912704
vt 0.852427 0.949749
vt 0.816810 0.856690
vt 0.879924 0.439962
vt 0.878206 0.437518
vt 0.911045 0.447419
vt 0.881076 0.450624
vt 0.881999 0.551818
vt 0.451717 0.765986
vt 0.446837 0.774164
vt 0.439962 0.788429
s 1
f 53/1/1 10/1/1 1/2/1 16/2/1
f 1/2/2 10/1/2 9/3/2 8/4/2 7/5/2 6/6/2 5/7/2 4/8/2 3/9/2 11/10/2 2/11/2
f 41/9/3 3/9/3 4/8/3 33/8/3
f 33/8/4 4/8/4 5/7/4 51/7/4
f 43/6/5 6/6/5 7/5/5 28/5/5
f 28/5/6 7/5/6 8/4/6 26/4/6
f 66/10/4 11/10/4 3/9/4 41/9/4
f 26/4/7 8/4/7 9/3/7 61/3/7
f 12/12/8 17/13/8 62/14/8 37/15/8 32/16/8 47/17/8 42/18/8 27/19/8 22/20/8 57/21/8 52/22/8
f 18/11/1 2/11/1 11/10/1 66/10/1
f 16/2/8 18/11/8 19/23/8 15/24/8
f 15/24/9 19/23/9 20/25/9 14/26/9
f 14/26/8 20/25/8 21/13/8 13/27/8
f 13/27/9 21/13/9 17/13/9 12/12/9
f 41/28/8 33/8/8 34/29/8 40/30/8
f 40/30/3 34/29/3 35/31/3 39/32/3
f 39/32/8 35/31/8 36/16/8 38/15/8
f 38/15/3 36/16/3 32/16/3 37/15/3
f 33/8/8 51/7/8 50/7/8 34/29/8
f 34/29/4 50/7/4 49/33/4 35/31/4
f 35/31/8 49/33/8 48/17/8 36/16/8
f 36/16/4 48/17/4 47/17/4 32/16/4
f 43/6/8 28/5/8 29/34/8 44/6/8
f 44/6/5 29/34/5 30/35/5 45/36/5
f 45/36/8 30/35/8 31/37/8 46/18/8
f 46/18/5 31/37/5 27/19/5 42/18/5
f 26/38/8 61/3/8 60/3/8 25/39/8
f 25/39/7 60/3/7 59/40/7 24/41/7
f 24/41/8 59/40/8 58/21/8 23/20/8
f 23/20/7 58/21/7 57/21/7 22/20/7
f 53/1/8 16/2/8 15/24/8 54/1/8
f 54/1/1 15/24/1 14/26/1 55/42/1
f 55/42/8 14/26/8 13/27/8 56/22/8
f 56/22/1 13/27/1 12/12/1 52/22/1
f 28/5/8 26/38/8 25/39/8 29/34/8
f 29/34/6 25/39/6 24/41/6 30/35/6
f 30/35/8 24/41/8 23/20/8 31/37/8
f 31/37/6 23/20/6 22/20/6 27/19/6
f 37/15/4 62/14/4 63/14/4 38/15/4
f 38/15/8 63/14/8 64/43/8 39/32/8
f 39/32/4 64/43/4 65/44/4 40/30/4
f 40/30/8 65/44/8 66/45/8 41/28/8
f 18/11/8 66/45/8 65/44/8 19/23/8
f 19/23/1 65/44/1 64/43/1 20/25/1
f 20/25/8 64/43/8 63/14/8 21/13/8
f 21/13/1 63/14/1 62/14/1 17/13/1
f 16/2/9 1/2/9 2/11/9 18/11/9
