# Blender 4.1.1
# www.blender.org
o Plane.042
v -3.500000 0.000000 9.500000
v -3.500000 0.166667 9.500000
v -3.750000 0.166667 9.750000
v -3.750000 0.333333 9.750000
v -4.000000 0.333333 10.000000
v 4.500000 0.000000 9.500000
v 5.000000 0.333333 10.000000
v 4.750000 0.333333 9.750000
v 4.750000 0.166667 9.750000
v 4.500000 0.166667 9.500000
v -3.500000 0.000000 1.500000
v -4.000000 0.333333 2.000000
v -3.750000 0.333333 1.750000
v -3.750000 0.166667 1.750000
v -3.500000 0.166667 1.500000
v -3.500000 0.000000 -1.500000
v -3.500000 0.166667 -1.500000
v -3.750000 0.166667 -1.750000
v -3.750000 0.333333 -1.750000
v -4.000000 0.333333 -2.000000
v -5.000000 0.000000 1.500000
v -5.000000 0.333333 2.000000
v -5.000000 0.333333 1.750000
v -5.000000 0.166667 1.750000
v -5.000000 0.166667 1.500000
v -5.000000 0.000000 -1.500000
v -5.000000 0.166667 -1.500000
v -5.000000 0.166667 -1.750000
v -5.000000 0.333333 -1.750000
v -5.000000 0.333333 -2.000000
v 4.500000 0.000000 -1.500002
v 5.000000 0.333333 -2.000002
v 4.750000 0.333333 -1.750002
v 4.750000 0.166667 -1.750002
v 4.500000 0.166667 -1.500002
v -4.000000 12.000000 10.000000
v 5.000000 12.000000 10.000000
v -4.000000 12.000000 2.000000
v -4.000000 12.000000 -2.000000
v -5.000000 12.000000 2.000000
v -5.000000 12.000000 -2.000000
v 5.000000 12.000000 -2.000002
vn -0.0000 1.0000 -0.0000
vn -0.0000 -0.0000 -1.0000
vn -0.0000 -0.0000 1.0000
vn -0.7071 -0.0000 0.7071
vn -1.0000 -0.0000 -0.0000
vn 1.0000 -0.0000 -0.0000
vn -0.0000 -1.0000 -0.0000
vt 0.514493 0.913043
vt 0.514493 0.478261
vt 0.521739 0.483696
vt 0.521739 0.907609
vt 0.000000 0.451087
vt 0.000000 0.027174
vt 0.005435 0.027174
vt 0.005435 0.451087
vt 0.010870 0.032609
vt 0.010870 0.445652
vt 0.869565 0.514493
vt 0.891305 0.514493
vt 0.891305 0.521739
vt 0.869565 0.521739
vt 0.260870 0.456522
vt 0.260870 0.478261
vt 0.255435 0.478261
vt 0.255435 0.451087
vt 0.250000 0.478261
vt 0.250000 0.445652
vt 0.869565 0.253623
vt 0.891304 0.253623
vt 0.891304 0.260870
vt 0.869565 0.260870
vt 0.173913 0.478261
vt 0.173913 0.456522
vt 0.179348 0.451087
vt 0.179348 0.478261
vt 0.184783 0.445652
vt 0.184783 0.478261
vt 0.434783 0.027174
vt 0.429348 0.027174
vt 0.423913 0.032609
vt 0.253623 0.913044
vt 0.869565 0.992754
vt 0.521739 0.731884
vt 0.695652 0.731884
vt 0.695652 0.739130
vt 0.527174 0.739130
vt 0.005435 0.021739
vt 0.173913 0.021739
vt 0.179348 0.027174
vt 0.184783 0.032609
vt 0.521739 0.992754
vt 0.695652 0.992754
vt 0.690217 1.000000
vt 0.521739 1.000000
vt 0.005435 0.456522
vt 0.869565 1.000000
vt 0.260870 0.907609
s 1
f 5/1/1 7/2/1 8/3/1 4/4/1
f 4/5/2 8/6/2 9/7/2 3/8/2
f 3/8/1 9/7/1 10/9/1 2/10/1
f 2/10/2 10/9/2 6/9/2 1/10/2
f 20/11/1 30/12/1 29/13/1 19/14/1
f 19/15/3 29/16/3 28/17/3 18/18/3
f 18/18/1 28/17/1 27/19/1 17/20/1
f 17/20/3 27/19/3 26/19/3 16/20/3
f 22/21/1 12/22/1 13/23/1 23/24/1
f 23/25/2 13/26/2 14/27/2 24/28/2
f 24/28/1 14/27/1 15/29/1 25/30/1
f 25/30/2 15/29/2 11/29/2 21/30/2
f 33/31/4 19/15/3 18/18/3 34/32/4
f 34/32/1 18/18/1 17/20/1 35/33/1
f 35/33/4 17/20/3 16/20/3 31/33/4
f 32/34/4 42/34/4 39/35/3 20/35/3
f 7/36/1 32/37/1 33/38/1 8/39/1
f 8/40/5 33/41/4 34/42/4 9/7/5
f 9/7/1 34/42/1 35/43/1 10/9/1
f 10/9/5 35/43/4 31/43/4 6/9/5
f 12/44/1 5/45/1 4/46/1 13/47/1
f 13/26/6 4/48/6 3/8/6 14/27/6
f 14/27/1 3/8/1 2/10/1 15/29/1
f 15/29/6 2/10/6 1/10/6 11/29/6
f 1/10/1 6/9/1 31/33/1 16/20/1 26/19/1 21/30/1 11/29/1
f 7/2/2 5/1/2 36/1/2 37/2/2
f 5/45/6 12/44/6 38/44/6 36/45/6
f 12/22/2 22/21/2 40/21/2 38/22/2
f 30/12/3 20/11/3 39/11/3 41/12/3
f 32/37/4 7/36/5 37/36/5 42/37/4
f 37/36/7 36/45/7 38/22/7 40/21/7 41/12/7 39/35/7 42/37/7
f 32/34/1 20/35/1 19/49/1 33/50/1
