# Blender 4.1.1
# www.blender.org
o Plane.016
v -5.562500 0.000000 4.500000
v -5.562500 0.166667 4.500000
v -5.812500 0.166667 4.750000
v -5.812500 0.333333 4.750000
v -6.062500 0.333333 5.000000
v 6.437500 0.000000 4.500000
v 6.937500 0.333333 5.000000
v 6.687500 0.333333 4.750000
v 6.687500 0.166667 4.750000
v 6.437500 0.166667 4.500000
v -5.562500 0.000000 1.500000
v -6.062500 0.333333 2.000000
v -5.812500 0.333333 1.750000
v -5.812500 0.166667 1.750000
v -5.562500 0.166667 1.500000
v -5.562500 0.000000 -1.500000
v -5.562500 0.166667 -1.500000
v -5.812500 0.166667 -1.750000
v -5.812500 0.333333 -1.750000
v -6.062500 0.333333 -2.000000
v -7.062500 0.000000 1.500000
v -7.062500 0.333333 2.000000
v -7.062500 0.333333 1.750000
v -7.062500 0.166667 1.750000
v -7.062500 0.166667 1.500000
v -7.062500 0.000000 -1.500000
v -7.062500 0.166667 -1.500000
v -7.062500 0.166667 -1.750000
v -7.062500 0.333333 -1.750000
v -7.062500 0.333333 -2.000000
v -5.562502 0.000000 -4.499998
v -6.062502 0.333333 -4.999998
v -5.812502 0.333333 -4.749998
v -5.812502 0.166667 -4.749998
v -5.562502 0.166667 -4.499998
v 6.437500 0.000000 -4.500002
v 6.937500 0.333333 -5.000002
v 6.687500 0.333333 -4.750002
v 6.687500 0.166667 -4.750002
v 6.437500 0.166667 -4.500002
v -6.062500 12.000000 5.000000
v 6.937500 12.000000 5.000000
v -6.062500 12.000000 2.000000
v -6.062500 12.000000 -2.000000
v -7.062500 12.000000 2.000000
v -7.062500 12.000000 -2.000000
v -6.062502 12.000000 -4.999998
v 6.937500 12.000000 -5.000002
vn -0.0000 1.0000 -0.0000
vn -0.0000 -0.0000 -1.0000
vn -0.0000 -0.0000 1.0000
vn -0.7071 -0.0000 0.7071
vn 1.0000 -0.0000 -0.0000
vn -1.0000 -0.0000 -0.0000
vn -0.0000 -1.0000 -0.0000
vt -0.000000 0.675325
vt 0.000000 0.337662
vt 0.006494 0.344156
vt 0.006494 0.668831
vt 0.974026 0.324675
vt 0.974026 -0.000000
vt 0.978355 -0.000000
vt 0.978355 0.324675
vt 0.519480 0.662338
vt 0.519480 0.337662
vt 0.525974 0.344156
vt 0.525974 0.655844
vt 0.982684 0.311688
vt 0.982684 -0.000000
vt 0.987013 0.000000
vt 0.987013 0.311688
vt 0.181818 0.675325
vt 0.181818 0.701299
vt 0.175325 0.701299
vt 0.175325 0.668831
vt 0.610390 0.335498
vt 0.610390 0.303030
vt 0.614719 0.303030
vt 0.614719 0.335498
vt 0.688312 0.662338
vt 0.688312 0.694805
vt 0.681818 0.694805
vt 0.681818 0.655844
vt 0.536797 0.733766
vt 0.536797 0.694805
vt 0.541125 0.694805
vt 0.541125 0.733766
vt 0.077922 0.701299
vt 0.077922 0.675325
vt 0.084416 0.668831
vt 0.084416 0.701299
vt 0.606061 0.335498
vt 0.606061 0.303030
vt 0.610389 0.303030
vt 0.610389 0.335498
vt 0.597403 0.694805
vt 0.597403 0.662338
vt 0.603896 0.655844
vt 0.603896 0.694805
vt 0.541126 0.733766
vt 0.541126 0.694805
vt 0.545455 0.694805
vt 0.545455 0.733766
vt 0.259740 0.337662
vt 0.259740 0.675325
vt 0.253247 0.668831
vt 0.253247 0.344156
vt 0.969697 0.324675
vt 0.969697 -0.000000
vt 0.974026 -0.000000
vt 0.974026 0.324675
vt 0.766234 0.337662
vt 0.766234 0.662338
vt 0.759740 0.655844
vt 0.759740 0.344156
vt 0.978355 0.311688
vt 0.978355 -0.000000
vt 0.982684 -0.000000
vt 0.982684 0.311688
vt 0.523809 0.772727
vt 0.523809 0.694805
vt 0.528139 0.694805
vt 0.528139 0.772727
vt 0.532468 0.772727
vt 0.532468 0.694805
vt 0.536797 0.694805
vt 0.536797 0.772727
vt 0.870130 0.935065
vt 0.870130 0.688312
vt 0.874459 0.688312
vt 0.874459 0.935065
vt 0.874459 0.922078
vt 0.878788 0.688312
vt 0.878788 0.922078
vt 0.519480 0.772727
vt 0.519480 0.694805
vt 0.523809 0.694805
vt 0.528139 0.772727
vt 0.528139 0.694805
vt 0.532468 0.694805
vt 0.766234 0.649351
vt 1.000000 0.337662
vt 1.000000 0.649351
vt 0.922078 0.649351
vt 0.922078 0.688312
vt 0.844156 0.688312
vt 0.844156 0.649351
vt 0.606060 0.000000
vt 0.606060 0.337662
vt 0.303030 0.337662
vt 0.303030 -0.000000
vt 0.943723 0.303030
vt 0.865801 0.303030
vt 0.865801 0.000000
vt 0.943723 0.000000
vt 0.844156 0.991342
vt 0.766234 0.991342
vt 0.766234 0.688312
vt 0.844156 0.688312
vt 0.969697 0.303030
vt 0.943723 0.303030
vt 0.943723 0.000000
vt 0.969697 0.000000
vt 0.303030 0.000000
vt 0.303030 0.337662
vt -0.000000 0.337662
vt 0.000000 0.000000
vt 0.870130 0.991342
vt 0.844156 0.991342
vt 0.844156 0.688311
vt 0.870130 0.688311
vt 0.865801 0.303030
vt 0.606061 0.303030
vt 0.606061 -0.000000
vt 0.865801 0.000000
vt 0.259740 0.701299
vt 0.259740 0.363636
vt 0.337662 0.363636
vt 0.337662 0.337662
vt 0.441558 0.337662
vt 0.441558 0.363636
vt 0.519480 0.363636
vt 0.519481 0.701299
s 1
f 5/1/1 7/2/1 8/3/1 4/4/1
f 4/5/2 8/6/2 9/7/2 3/8/2
f 3/9/1 9/10/1 10/11/1 2/12/1
f 2/13/2 10/14/2 6/15/2 1/16/2
f 20/17/1 30/18/1 29/19/1 19/20/1
f 19/21/3 29/22/3 28/23/3 18/24/3
f 18/25/1 28/26/1 27/27/1 17/28/1
f 17/29/3 27/30/3 26/31/3 16/32/3
f 22/33/1 12/34/1 13/35/1 23/36/1
f 23/37/2 13/38/2 14/39/2 24/40/2
f 24/41/1 14/42/1 15/43/1 25/44/1
f 25/45/2 15/46/2 11/47/2 21/48/2
f 37/49/1 32/50/1 33/51/1 38/52/1
f 38/53/4 33/54/3 34/55/3 39/56/4
f 39/57/1 34/58/1 35/59/1 40/60/1
f 40/61/4 35/62/3 31/63/3 36/64/4
f 32/50/1 20/17/1 19/20/1 33/51/1
f 33/65/5 19/66/5 18/67/5 34/68/5
f 34/58/1 18/25/1 17/28/1 35/59/1
f 35/69/5 17/70/5 16/71/5 31/72/5
f 7/2/1 37/49/1 38/52/1 8/3/1
f 8/73/6 38/74/4 39/75/4 9/76/6
f 9/10/1 39/57/1 40/60/1 10/11/1
f 10/77/6 40/75/4 36/78/4 6/79/6
f 12/34/1 5/1/1 4/4/1 13/35/1
f 13/80/5 4/81/5 3/82/5 14/65/5
f 14/42/1 3/9/1 2/12/1 15/43/1
f 15/83/5 2/84/5 1/85/5 11/69/5
f 1/86/1 6/57/1 36/87/1 31/88/1 16/89/1 26/90/1 21/91/1 11/92/1
f 7/93/2 5/94/2 41/95/2 42/96/2
f 5/97/5 12/98/5 43/99/5 41/100/5
f 20/101/5 32/102/5 47/103/5 44/104/5
f 12/105/2 22/106/2 45/107/2 43/108/2
f 32/109/3 37/110/4 48/111/4 47/112/3
f 30/113/3 20/114/3 44/115/3 46/116/3
f 37/117/4 7/118/6 42/119/6 48/120/4
f 42/121/7 41/122/7 43/123/7 45/124/7 46/125/7 44/126/7 47/127/7 48/128/7
