# Blender 4.1.1
# www.blender.org
mtllib Room2way.mtl
o Plane.010
v -10.500000 0.300000 10.500000
v 10.500000 0.300000 10.500000
v -10.500000 0.300000 -10.500000
v 10.500000 0.300000 -10.500000
v -10.500000 0.000000 10.500000
v 10.500000 0.000000 10.500000
v -10.500000 0.000000 -10.500000
v 10.500000 0.000000 -10.500000
v 10.500000 0.300000 -2.020000
v -2.020000 0.300000 -10.500000
v 10.500000 0.300000 2.020000
v 2.020000 0.300000 -10.500000
v 10.500000 8.020000 -2.020000
v 10.520000 8.000000 -2.000000
v -2.020000 8.020000 -10.500000
v -2.000000 8.000000 -10.520000
v 10.520000 8.000000 2.000000
v 10.500000 8.020000 2.020000
v 2.000000 8.000000 -10.520000
v 2.020000 8.020000 -10.500000
v 11.000000 3.300000 -2.020000
v -2.020000 3.300000 -11.000000
v 11.000000 3.300000 2.020000
v 2.020000 3.300000 -11.000000
v 10.980000 8.000000 -2.000000
v 11.000000 8.020000 -2.020000
v -2.000000 8.000000 -10.980000
v -2.020000 8.020000 -11.000000
v 11.000000 8.020000 2.020000
v 10.980000 8.000000 2.000000
v 2.020000 8.020000 -11.000000
v 2.000000 8.000000 -10.980000
v 10.520000 0.000000 -2.000000
v 10.500000 0.000000 -2.020000
v -2.000000 0.000000 -10.520000
v -2.020000 0.000000 -10.500000
v 10.500000 0.000000 2.020000
v 10.520000 0.000000 2.000000
v 2.020000 0.000000 -10.500000
v 2.000000 0.000000 -10.520000
v 11.000000 0.000000 -2.020000
v 10.980000 0.000000 -2.000000
v -2.020000 0.000000 -11.000000
v -2.000000 0.000000 -10.980000
v 10.980000 0.000000 2.000000
v 11.000000 0.000000 2.020000
v 2.000000 0.000000 -10.980000
v 2.020000 0.000000 -11.000000
v 11.000000 3.300000 10.980000
v 10.980000 3.300000 11.000000
v 10.980000 15.000000 11.000000
v 11.000000 15.000000 10.980000
v -10.980000 3.300000 -11.000000
v -11.000000 3.300000 -10.980000
v -10.980000 15.000000 -11.000000
v -11.000000 15.000000 -10.980000
v -11.000000 3.300000 10.980000
v -10.980000 3.300000 11.000000
v -11.000000 15.000000 10.980000
v -10.980000 15.000000 11.000000
v 11.000000 3.300000 -10.980000
v 10.980000 3.300000 -11.000000
v 11.000000 15.000000 -10.980000
v 10.980000 15.000000 -11.000000
v -10.500000 11.800000 10.500000
v -10.300000 12.000000 10.300000
v -10.423899 11.856765 10.423899
v -10.356765 11.923899 10.356765
v 10.300000 12.000000 10.300000
v 10.500000 11.800000 10.500000
v 10.356765 11.923899 10.356765
v 10.423899 11.856765 10.423899
v -10.500000 11.800000 -10.500000
v -10.300000 12.000000 -10.300000
v -10.423899 11.856765 -10.423899
v -10.356765 11.923899 -10.356765
v 10.300000 12.000000 -10.300000
v 10.500000 11.800000 -10.500000
v 10.356765 11.923899 -10.356765
v 10.423899 11.856765 -10.423899
v 10.464644 0.250000 -10.464644
v 10.464644 0.050000 -10.464644
v 10.464644 0.250000 -2.020000
v 10.464644 0.050000 -2.020000
v 2.020000 0.050000 -10.464644
v 2.020000 0.250000 -10.464644
v -10.464644 0.050000 -10.464644
v -10.464644 0.250000 -10.464644
v -2.020000 0.250000 -10.464644
v -2.020000 0.050000 -10.464644
v -10.464644 0.250000 10.464644
v -10.464644 0.050000 10.464644
v 10.464644 0.250000 10.464644
v 10.464644 0.050000 10.464644
v 10.464644 0.250000 2.020000
v 10.464644 0.050000 2.020000
v 11.070711 3.300000 11.050711
v 11.050711 3.300000 11.070711
v 11.050711 0.000000 11.070711
v 11.070711 0.000000 11.050711
v 11.070711 3.300000 2.090711
v 11.070711 0.000000 2.090711
v 11.070711 0.000000 -2.090711
v 11.070711 3.300000 -2.090711
v 2.090711 3.300000 -11.070711
v 2.090711 0.000000 -11.070711
v 11.070711 3.300000 -11.050711
v 11.050711 3.300000 -11.070711
v 11.070711 0.000000 -11.050711
v 11.050711 0.000000 -11.070711
v -2.090711 0.000000 -11.070711
v -2.090711 3.300000 -11.070711
v -11.050711 3.300000 -11.070711
v -11.070711 3.300000 -11.050711
v -11.050711 0.000000 -11.070711
v -11.070711 0.000000 -11.050711
v -11.070711 3.300000 11.050711
v -11.050711 3.300000 11.070711
v -11.070711 0.000000 11.050711
v -11.050711 0.000000 11.070711
v 11.179999 15.200000 11.200000
v 11.200000 15.200000 11.179999
v -11.179999 15.200000 -11.200000
v -11.200000 15.200000 -11.179999
v -11.200000 15.200000 11.179999
v -11.179999 15.200000 11.200000
v 11.200000 15.200000 -11.179999
v 11.179999 15.200000 -11.200000
v -11.140752 15.100000 11.160862
v -11.160862 15.100000 11.140752
v 11.160862 15.100000 11.140752
v 11.140752 15.100000 11.160862
v 11.140752 15.100000 -11.160862
v 11.160862 15.100000 -11.140752
v -11.160862 15.100000 -11.140752
v -11.140752 15.100000 -11.160862
vn -0.0000 -0.5773 0.8165
vn -0.0000 -0.0000 -1.0000
vn -0.0000 -1.0000 -0.0000
vn 1.0000 -0.0000 -0.0000
vn -1.0000 -0.0000 -0.0000
vn -0.0000 1.0000 -0.0000
vn -0.0000 -0.0000 1.0000
vn -0.0000 0.5774 -0.8165
vn -0.8165 0.5774 -0.0000
vn 0.7071 -0.0000 0.7071
vn -0.7071 -0.0000 0.7071
vn -0.7071 -0.7071 -0.0000
vn -0.0000 -0.7071 0.7071
vn -0.0000 -0.5774 -0.8165
vn -0.7071 -0.0000 -0.7071
vn 0.7071 -0.7071 -0.0000
vn -0.0000 -0.7071 -0.7071
vn 0.7071 -0.0000 -0.7071
vn -0.0000 -0.8016 -0.5979
vn -0.0000 -0.7751 -0.6319
vn -0.0000 -0.6736 -0.7391
vn -0.0000 -0.5979 -0.8016
vn 0.5979 -0.8016 -0.0000
vn 0.6319 -0.7751 -0.0000
vn 0.7391 -0.6736 -0.0000
vn 0.8016 -0.5979 -0.0000
vn -0.5979 -0.8016 -0.0000
vn -0.6319 -0.7751 -0.0000
vn -0.7391 -0.6736 -0.0000
vn -0.8016 -0.5979 -0.0000
vn -0.0000 -0.8016 0.5979
vn -0.0000 -0.7751 0.6319
vn -0.0000 -0.6736 0.7391
vn -0.0000 -0.5979 0.8016
vn -0.8165 -0.5774 -0.0000
vn -0.0000 0.5773 0.8165
vn 0.6185 -0.4848 0.6185
vn -0.6185 -0.4848 0.6185
vn 0.6185 -0.4848 -0.6185
vn -0.6185 -0.4848 -0.6185
vn -0.0000 -0.3645 -0.9312
vn -0.9312 -0.3645 -0.0000
vn -0.0000 -0.3645 0.9312
vn 0.9312 -0.3645 -0.0000
vn 0.4362 -0.8920 0.1184
vn 0.4362 -0.8920 -0.1184
vn 0.3775 -0.9070 -0.1865
vn 0.3775 -0.9070 0.1865
vn -0.1184 -0.8920 0.4362
vn 0.1184 -0.8920 0.4362
vn 0.1865 -0.9070 0.3775
vn -0.1865 -0.9070 0.3775
vn -0.4362 -0.8920 -0.1184
vn -0.4362 -0.8920 0.1184
vn -0.3775 -0.9070 0.1865
vn -0.3775 -0.9070 -0.1865
vn 0.1184 -0.8920 -0.4362
vn -0.1184 -0.8920 -0.4362
vn -0.1865 -0.9070 -0.3775
vn 0.1865 -0.9070 -0.3775
vn 0.8165 0.5774 -0.0000
vn 0.8165 -0.5774 -0.0000
vt 0.709368 0.000000
vt 0.709368 0.108027
vt 0.708715 0.108027
vt 0.708715 0.000450
vt 0.858934 0.000450
vt 0.858934 0.267070
vt 0.856388 0.267070
vt 0.856388 0.000450
vt 0.211122 0.779156
vt 0.205262 0.779156
vt 0.205262 0.728200
vt 0.211122 0.728200
vt 0.551878 0.554540
vt 0.551878 0.274790
vt 0.640736 0.388932
vt 0.640736 0.440398
vt 0.211122 0.779156
vt 0.216982 0.728200
vt 0.216982 0.779156
vt 0.205262 0.728445
vt 0.205262 0.830289
vt 0.199402 0.830289
vt 0.199402 0.728445
vt 0.279976 0.566664
vt 0.279976 0.668507
vt 0.274116 0.668507
vt 0.274116 0.566664
vt 0.279525 0.668795
vt 0.279525 0.770639
vt 0.273666 0.770639
vt 0.273666 0.668795
vt 0.000901 0.285513
vt 0.000901 0.565263
vt -0.000000 0.566163
vt 0.000000 0.284612
vt 0.790965 0.382818
vt 0.790965 0.434283
vt 0.742844 0.542310
vt 0.742844 0.274790
vt 0.889245 0.434283
vt 0.889245 0.542310
vt 0.705549 0.000000
vt 0.705549 0.108027
vt 0.607269 0.108027
vt 0.559148 -0.000000
vt 0.709368 -0.000000
vt 0.855768 0.000000
vt 0.855768 0.267520
vt 0.709368 0.267520
vt 0.889245 0.274790
vt 0.889245 0.382818
vt 0.700824 0.388932
vt 0.700824 0.274790
vt 0.700824 0.554540
vt 0.700824 0.440398
vt 0.088859 0.732026
vt -0.000000 0.846168
vt 0.000000 0.566418
vt 0.088859 0.680560
vt 0.001156 0.565517
vt 0.280905 0.565517
vt 0.281806 0.566418
vt 0.000255 0.566418
vt 0.551878 0.159493
vt 0.551878 0.108027
vt 0.552132 0.108282
vt 0.557992 0.108282
vt 0.558247 0.108027
vt 0.559148 0.107126
vt 0.559148 0.160394
vt 0.558247 0.159493
vt 0.557992 0.159238
vt 0.552132 0.159238
vt 0.392640 0.273635
vt 0.392640 0.267775
vt 0.392385 0.267520
vt 0.443850 0.267520
vt 0.443596 0.267775
vt 0.443596 0.273635
vt 0.443850 0.273890
vt 0.444751 0.274790
vt 0.391484 0.274790
vt 0.392385 0.273890
vt 0.229667 0.647489
vt 0.229667 0.647129
vt 0.230940 0.647129
vt 0.230940 0.647489
vt 0.607269 0.159493
vt 0.559148 0.267520
vt 0.280231 0.668517
vt 0.280231 0.664698
vt 0.280681 0.665334
vt 0.280681 0.667880
vt 0.889865 0.275241
vt 0.889865 0.382818
vt 0.148947 0.680560
vt 0.148947 0.566418
vt 0.935074 0.260759
vt 0.935074 0.542310
vt 0.893064 0.542310
vt 0.893064 0.260759
vt 0.705549 0.159493
vt 0.705549 0.267520
vt 0.889865 0.434283
vt 0.889865 0.541860
vt 0.191877 0.788287
vt 0.191877 0.728200
vt 0.192131 0.728445
vt 0.192131 0.830289
vt 0.191877 0.830298
vt 0.197991 0.830289
vt 0.197991 0.728445
vt 0.198246 0.728200
vt 0.198246 0.826479
vt 0.198246 0.830298
vt 0.791229 0.383072
vt 0.791229 0.434029
vt 0.607533 0.108282
vt 0.607533 0.159238
vt 0.859587 0.000000
vt 0.859587 0.267520
vt 0.280231 0.566418
vt 0.273411 0.770648
vt 0.273411 0.766829
vt 0.273411 0.668550
vt 0.199147 0.830298
vt 0.199147 0.826479
vt 0.199147 0.728200
vt 0.641000 0.389187
vt 0.641000 0.440143
vt 0.089123 0.680815
vt 0.089123 0.731771
vt 0.700824 0.555049
vt 0.700824 0.834799
vt 0.551878 0.834799
vt 0.551878 0.555049
vt 0.273861 0.668517
vt 0.273861 0.626506
vt 0.273861 0.566418
vt 0.279780 0.728638
vt 0.279780 0.770648
vt 0.279780 0.668550
vt 0.742835 0.388932
vt 0.742844 0.389187
vt 0.198697 0.827115
vt 0.198697 0.829662
vt 0.700834 0.835054
vt 0.551887 0.835054
vt 0.148956 0.846423
vt 0.000009 0.846423
vt 0.148947 0.846168
vt 0.551887 0.554795
vt 0.700834 0.554795
vt 0.700834 0.554795
vt 0.280681 0.728671
vt 0.280681 0.770681
vt 0.281160 0.565263
vt 0.282061 0.566164
vt 0.148947 0.732026
vt 0.284358 0.274790
vt 0.551878 0.274790
vt 0.550908 0.275760
vt 0.285327 0.275760
vt 0.282061 0.549939
vt 0.282061 0.284358
vt 0.282947 0.285213
vt 0.282947 0.549083
vt 0.283942 0.285936
vt 0.283942 0.548360
vt 0.551878 0.542310
vt 0.550908 0.541341
vt 0.546782 0.807892
vt 0.546782 0.542310
vt 0.547668 0.543166
vt 0.547668 0.807036
vt 0.548663 0.543889
vt 0.548663 0.806313
vt 0.284358 0.542310
vt 0.285327 0.541341
vt 0.548663 0.807892
vt 0.548663 0.542310
vt 0.549549 0.543166
vt 0.549549 0.807036
vt 0.550545 0.543889
vt 0.550545 0.806313
vt 0.282061 0.815520
vt 0.282947 0.550794
vt 0.282947 0.814665
vt 0.283942 0.551517
vt 0.283942 0.813941
vt 0.546782 0.542311
vt 0.546782 0.804735
vt 0.284358 0.804735
vt 0.284358 0.542311
vt 0.706169 0.267070
vt 0.706169 0.159493
vt 0.708715 0.159493
vt 0.708715 0.267070
vt 0.892411 0.275241
vt 0.892411 0.382818
vt 0.709368 0.159493
vt 0.709368 0.267520
vt 0.272960 0.770012
vt 0.272960 0.767466
vt 0.893064 0.274790
vt 0.893064 0.382818
vt 0.706169 0.108027
vt 0.706169 0.000450
vt 0.000255 0.284358
vt 0.114397 0.284358
vt 0.115297 0.285258
vt 0.001156 0.285258
vt 0.700834 0.834544
vt 0.700834 0.554795
vt 0.849780 0.554795
vt 0.849780 0.834544
vt 0.892411 0.434283
vt 0.892411 0.541860
vt 0.893064 0.434283
vt 0.893064 0.542310
vt 0.216982 0.770210
vt 0.216982 0.728200
vt 0.217882 0.728233
vt 0.217882 0.770243
vt 0.859587 0.114397
vt 0.901598 0.114397
vt 0.901598 0.228539
vt 0.859587 0.228539
vt 0.272960 0.566673
vt 0.230950 0.566673
vt 0.230940 0.566418
vt 0.272951 0.566418
vt 0.190976 0.842596
vt 0.148965 0.842596
vt 0.148965 0.728454
vt 0.190976 0.728454
vt 0.326368 0.804735
vt 0.326368 0.918877
vt 0.284358 0.918877
vt 0.148956 0.728200
vt 0.190967 0.728200
vt 0.190976 0.830331
vt 0.190976 0.788320
vt 0.148956 0.728200
vt 0.150230 0.728200
vt 0.148956 0.566418
vt 0.150230 0.566418
vt 0.901607 0.114397
vt 0.859597 0.114397
vt 0.859597 0.000255
vt 0.901607 0.000255
vt 0.859587 -0.000000
vt 0.901598 -0.000000
vt 0.272960 0.668550
vt 0.272960 0.626539
vt 0.281160 0.451121
vt 0.282061 0.452022
vt 0.272951 0.848479
vt 0.230940 0.848479
vt 0.230950 0.848224
vt 0.272960 0.848224
vt 0.551836 0.826910
vt 0.551845 0.827167
vt 0.550554 0.827665
vt 0.550545 0.827410
vt 0.551845 0.542809
vt 0.551836 0.543065
vt 0.550545 0.542565
vt 0.550554 0.542310
vt 0.281972 0.850763
vt 0.281982 0.851020
vt 0.280690 0.851518
vt 0.280681 0.851263
vt 0.936366 0.545105
vt 0.936375 0.545361
vt 0.935084 0.545859
vt 0.935074 0.545604
vt 0.936366 0.261259
vt 0.935074 0.260759
vt 0.937666 0.261259
vt 0.937666 0.545105
vt 0.936375 0.545604
vt 0.936375 0.260759
vt 0.281972 0.566918
vt 0.280681 0.566418
vt 0.002304 0.282308
vt 0.282054 0.282308
vt 0.284101 0.284358
vt 0.000256 0.284358
vt 0.002049 0.002304
vt 0.002049 0.282054
vt 0.000000 0.284101
vt 0.000000 0.000256
vt 0.282054 0.002049
vt 0.002304 0.002049
vt 0.000256 0.000000
vt 0.284101 0.000000
vt 0.282308 0.282054
vt 0.282308 0.002304
vt 0.284358 0.000256
vt 0.284358 0.284101
vt 0.849780 0.822315
vt 0.849780 0.554795
vt 0.996181 0.554795
vt 0.996181 0.822315
vt 0.996801 0.555245
vt 0.996801 0.821864
vt 0.999347 0.555245
vt 0.999347 0.821864
vt 1.000000 0.554795
vt 1.000000 0.822315
vt 0.551878 0.267520
vt 0.284358 0.267520
vt 0.284358 0.000000
vt 0.551878 0.000000
s 1
usemtl Material.003
f 7/1/1 36/2/1 90/3/1 87/4/1
f 94/5/2 92/6/2 91/7/2 93/8/2
f 14/9/3 25/10/3 30/11/3 17/12/3
f 63/13/4 52/14/4 29/15/4 26/16/4
f 19/17/3 16/12/3 27/18/3 32/19/3
f 30/20/2 45/21/2 38/22/2 17/23/2
f 16/24/4 35/25/4 44/26/4 27/27/4
f 32/28/5 47/29/5 40/30/5 19/31/5
f 50/32/6 58/33/6 118/34/6 98/35/6
f 13/36/5 18/37/5 70/38/5 78/39/5
f 11/40/5 2/41/5 70/38/5 18/37/5
f 3/42/7 10/43/7 15/44/7 73/45/7
f 70/46/2 2/47/2 1/48/2 65/49/2
f 4/50/5 9/51/5 13/36/5 78/39/5
f 23/52/4 29/15/4 52/14/4 49/53/4
f 61/54/4 63/13/4 26/16/4 21/55/4
f 28/56/2 55/57/2 64/58/2 31/59/2
f 57/60/6 54/61/6 114/62/6 117/63/6
f 34/64/6 37/65/6 38/66/6 45/67/6 46/68/6 102/69/6 103/70/6 41/71/6 42/72/6 33/73/6
f 44/74/6 35/75/6 36/76/6 39/77/6 40/78/6 47/79/6 48/80/6 106/81/6 111/82/6 43/83/6
f 2/47/8 93/8/8 91/7/8 1/48/8
f 62/84/6 61/85/6 107/86/6 108/87/6
f 15/44/7 20/88/7 78/89/7 73/45/7
f 36/90/4 10/91/4 89/92/4 90/93/4
f 9/51/9 4/50/9 81/94/9 83/95/9
f 24/96/2 31/59/2 64/58/2 62/97/2
f 116/98/5 119/99/5 117/100/5 114/101/5
f 12/102/7 4/103/7 78/89/7 20/88/7
f 2/41/9 11/40/9 95/104/9 93/105/9
f 21/106/10 26/107/10 25/108/10 42/109/10 41/110/10
f 33/111/11 14/112/11 13/113/11 9/114/11 34/115/11
f 18/37/12 13/36/12 14/116/12 17/117/12
f 16/118/13 19/119/13 20/88/13 15/44/13
f 94/5/14 6/120/14 5/121/14 92/6/14
f 10/91/10 36/90/10 35/25/10 16/24/10 15/122/10
f 39/123/11 12/124/11 20/125/11 19/31/11 40/30/11
f 37/126/15 11/127/15 18/128/15 17/23/15 38/22/15
f 30/129/16 25/130/16 26/16/16 29/15/16
f 28/56/17 31/59/17 32/131/17 27/132/17
f 58/133/7 50/134/7 51/135/7 60/136/7
f 43/137/18 22/138/18 28/139/18 27/27/18 44/26/18
f 24/140/15 48/141/15 47/29/15 32/28/15 31/142/15
f 23/52/18 46/143/18 45/144/18 30/129/18 29/15/18
f 33/111/7 42/109/7 25/108/7 14/112/7
f 34/115/7 9/114/7 83/145/7 84/146/7
f 49/147/10 52/148/10 51/135/10 50/134/10
f 54/149/15 56/150/15 55/57/15 53/151/15
f 58/133/11 60/136/11 59/152/11 57/153/11
f 62/154/18 64/152/18 63/13/18 61/54/18
f 48/141/15 24/140/15 105/155/15 106/156/15
f 54/61/6 53/157/6 113/158/6 114/62/6
f 53/151/2 55/57/2 28/56/2 22/159/2
f 70/160/19 65/161/19 67/162/20 72/163/20
f 72/164/20 67/165/20 68/166/21 71/167/21
f 71/167/21 68/166/21 66/168/22 69/169/22
f 65/161/23 73/170/23 75/171/24 67/162/24
f 67/172/24 75/173/24 76/174/25 68/175/25
f 68/175/25 76/174/25 74/176/26 66/177/26
f 78/178/27 70/160/27 72/163/28 80/179/28
f 80/180/28 72/181/28 71/182/29 79/183/29
f 79/183/29 71/182/29 69/184/30 77/185/30
f 73/170/31 78/178/31 80/179/32 75/171/32
f 75/186/32 80/164/32 79/187/33 76/188/33
f 76/188/33 79/187/33 77/189/34 74/190/34
f 66/191/3 74/192/3 77/193/3 69/194/3
f 81/195/7 86/196/7 85/197/7 82/198/7
f 83/95/5 81/94/5 82/199/5 84/200/5
f 39/201/1 8/202/1 82/198/1 85/197/1
f 12/124/5 39/123/5 85/203/5 86/204/5
f 8/205/35 34/206/35 84/200/35 82/199/35
f 4/103/36 12/102/36 86/196/36 81/195/36
f 89/207/7 88/208/7 87/4/7 90/3/7
f 3/42/11 7/1/11 87/4/11 88/208/11
f 10/43/36 3/42/36 88/208/36 89/207/36
f 97/209/6 101/210/6 23/211/6 49/212/6
f 59/213/5 56/214/5 54/215/5 57/216/5
f 57/60/6 117/63/6 118/34/6 58/33/6
f 93/105/5 95/104/5 96/217/5 94/218/5
f 37/219/35 6/220/35 94/218/35 96/217/35
f 11/127/2 37/126/2 96/146/2 95/145/2
f 46/221/18 23/222/18 101/223/18 102/224/18
f 97/225/4 100/226/4 102/227/4 101/228/4
f 98/229/10 99/230/10 100/231/10 97/232/10
f 104/233/4 103/234/4 109/235/4 107/236/4
f 108/193/2 110/237/2 106/238/2 105/239/2
f 110/240/18 108/241/18 107/236/18 109/235/18
f 21/106/10 41/110/10 103/242/10 104/243/10
f 24/244/6 62/84/6 108/87/6 105/245/6
f 61/85/6 21/246/6 104/247/6 107/86/6
f 112/248/2 111/249/2 115/250/2 113/251/2
f 116/252/15 114/253/15 113/251/15 115/250/15
f 22/138/18 43/137/18 111/254/18 112/255/18
f 53/157/6 22/256/6 112/257/6 113/158/6
f 98/35/6 97/209/6 49/212/6 50/32/6
f 117/258/11 119/259/11 120/260/11 118/261/11
f 132/262/37 131/263/37 122/264/37 121/265/37
f 130/266/38 129/267/38 126/268/38 125/269/38
f 134/270/39 133/271/39 128/272/39 127/273/39
f 136/274/40 135/275/40 124/276/40 123/277/40
f 133/278/41 136/274/41 123/277/41 128/279/41
f 135/280/42 130/281/42 125/282/42 124/283/42
f 129/267/43 132/262/43 121/265/43 126/268/43
f 131/284/44 134/270/44 127/273/44 122/285/44
f 52/286/45 63/287/46 134/288/47 131/289/48
f 60/290/49 51/291/50 132/292/51 129/293/52
f 56/294/53 59/295/54 130/296/55 135/297/56
f 64/298/57 55/299/58 136/300/59 133/301/60
f 55/299/58 56/294/53 135/297/56 136/300/59
f 63/287/46 64/298/57 133/301/60 134/288/47
f 59/295/54 60/290/49 129/293/52 130/296/55
f 51/291/50 52/286/45 131/289/48 132/292/51
f 118/261/7 120/260/7 99/230/7 98/229/7
f 73/302/4 65/303/4 1/304/4 3/305/4
f 91/306/61 88/307/61 3/305/61 1/304/61
f 92/308/4 87/309/4 88/307/4 91/306/4
f 87/309/62 92/308/62 5/310/62 7/311/62
f 34/64/6 8/312/6 39/77/6 36/76/6 7/313/6 5/314/6 6/315/6 37/65/6
