# Blender 4.1.1
# www.blender.org
mtllib Room4way.mtl
o Plane.008
v -10.500000 0.300000 10.500000
v 10.500000 0.300000 10.500000
v -10.500000 0.300000 -10.500000
v 10.500000 0.300000 -10.500000
v -10.500000 0.000000 10.500000
v 10.500000 0.000000 10.500000
v -10.500000 0.000000 -10.500000
v 10.500000 0.000000 -10.500000
v 10.500000 0.300000 -2.020000
v -10.500000 0.300000 -2.020000
v -2.020000 0.300000 -10.500000
v -2.020000 0.300000 10.500000
v 10.500000 0.300000 2.020000
v -10.500000 0.300000 2.020000
v 2.020000 0.300000 -10.500000
v 2.020000 0.300000 10.500000
v 10.500000 8.020000 -2.020000
v 10.520000 8.000000 -2.000000
v -10.520000 8.000000 -2.000000
v -10.500000 8.020000 -2.020000
v -2.020000 8.020000 -10.500000
v -2.000000 8.000000 -10.520000
v -2.000000 8.000000 10.520000
v -2.020000 8.020000 10.500000
v 10.520000 8.000000 2.000000
v 10.500000 8.020000 2.020000
v -10.500000 8.020000 2.020000
v -10.520000 8.000000 2.000000
v 2.000000 8.000000 -10.520000
v 2.020000 8.020000 -10.500000
v 2.020000 8.020000 10.500000
v 2.000000 8.000000 10.520000
v 11.000000 3.300000 -2.020000
v -11.000000 3.300000 -2.020000
v -2.020000 3.300000 -11.000000
v -2.020000 3.300000 11.000000
v 11.000000 3.300000 2.020000
v -11.000000 3.300000 2.020000
v 2.020000 3.300000 -11.000000
v 2.020000 3.300000 11.000000
v 10.980000 8.000000 -2.000000
v 11.000000 8.020000 -2.020000
v -11.000000 8.020000 -2.020000
v -10.980000 8.000000 -2.000000
v -2.000000 8.000000 -10.980000
v -2.020000 8.020000 -11.000000
v -2.020000 8.020000 11.000000
v -2.000000 8.000000 10.980000
v 11.000000 8.020000 2.020000
v 10.980000 8.000000 2.000000
v -10.980000 8.000000 2.000000
v -11.000000 8.020000 2.020000
v 2.020000 8.020000 -11.000000
v 2.000000 8.000000 -10.980000
v 2.000000 8.000000 10.980000
v 2.020000 8.020000 11.000000
v 10.520000 0.000000 -2.000000
v 10.500000 0.000000 -2.020000
v -10.500000 0.000000 -2.020000
v -10.520000 0.000000 -2.000000
v -2.000000 0.000000 -10.520000
v -2.020000 0.000000 -10.500000
v -2.020000 0.000000 10.500000
v -2.000000 0.000000 10.520000
v 10.500000 0.000000 2.020000
v 10.520000 0.000000 2.000000
v -10.520000 0.000000 2.000000
v -10.500000 0.000000 2.020000
v 2.020000 0.000000 -10.500000
v 2.000000 0.000000 -10.520000
v 2.000000 0.000000 10.520000
v 2.020000 0.000000 10.500000
v 11.000000 0.000000 -2.020000
v 10.980000 0.000000 -2.000000
v -10.980000 0.000000 -2.000000
v -11.000000 0.000000 -2.020000
v -2.020000 0.000000 -11.000000
v -2.000000 0.000000 -10.980000
v -2.000000 0.000000 10.980000
v -2.020000 0.000000 11.000000
v 10.980000 0.000000 2.000000
v 11.000000 0.000000 2.020000
v -11.000000 0.000000 2.020000
v -10.980000 0.000000 2.000000
v 2.000000 0.000000 -10.980000
v 2.020000 0.000000 -11.000000
v 2.020000 0.000000 11.000000
v 2.000000 0.000000 10.980000
v 11.000000 3.300000 10.980000
v 10.980000 3.300000 11.000000
v 10.980000 15.000000 11.000000
v 11.000000 15.000000 10.980000
v -10.980000 3.300000 -11.000000
v -11.000000 3.300000 -10.980000
v -10.980000 15.000000 -11.000000
v -11.000000 15.000000 -10.980000
v -11.000000 3.300000 10.980000
v -10.980000 3.300000 11.000000
v -11.000000 15.000000 10.980000
v -10.980000 15.000000 11.000000
v 11.000000 3.300000 -10.980000
v 10.980000 3.300000 -11.000000
v 11.000000 15.000000 -10.980000
v 10.980000 15.000000 -11.000000
v -10.500000 11.800000 10.500000
v -10.300000 12.000000 10.300000
v -10.423899 11.856765 10.423899
v -10.356765 11.923899 10.356765
v 10.300000 12.000000 10.300000
v 10.500000 11.800000 10.500000
v 10.356765 11.923899 10.356765
v 10.423899 11.856765 10.423899
v -10.500000 11.800000 -10.500000
v -10.300000 12.000000 -10.300000
v -10.423899 11.856765 -10.423899
v -10.356765 11.923899 -10.356765
v 10.300000 12.000000 -10.300000
v 10.500000 11.800000 -10.500000
v 10.356765 11.923899 -10.356765
v 10.423899 11.856765 -10.423899
v 10.464644 0.250000 -10.464644
v 10.464644 0.050000 -10.464644
v 10.464644 0.250000 -2.020000
v 10.464644 0.050000 -2.020000
v 2.020000 0.050000 -10.464644
v 2.020000 0.250000 -10.464644
v -10.464644 0.050000 -10.464644
v -10.464644 0.250000 -10.464644
v -10.464644 0.050000 -2.020000
v -10.464644 0.250000 -2.020000
v -2.020000 0.250000 -10.464644
v -2.020000 0.050000 -10.464644
v -10.464644 0.250000 10.464644
v -10.464644 0.050000 10.464644
v -2.020000 0.250000 10.464644
v -10.464644 0.250000 2.020000
v -2.020000 0.050000 10.464644
v -10.464644 0.050000 2.020000
v 10.464644 0.250000 10.464644
v 10.464644 0.050000 10.464644
v 10.464644 0.250000 2.020000
v 2.020000 0.250000 10.464644
v 10.464644 0.050000 2.020000
v 2.020000 0.050000 10.464644
v 11.070711 3.300000 11.050711
v 11.050711 3.300000 11.070711
v 11.050711 0.000000 11.070711
v 11.070711 0.000000 11.050711
v 2.090711 3.300000 11.070711
v 2.090711 0.000000 11.070711
v 11.070711 3.300000 2.090711
v 11.070711 0.000000 2.090711
v 11.070711 0.000000 -2.090711
v 11.070711 3.300000 -2.090711
v 2.090711 3.300000 -11.070711
v 2.090711 0.000000 -11.070711
v 11.070711 3.300000 -11.050711
v 11.050711 3.300000 -11.070711
v 11.070711 0.000000 -11.050711
v 11.050711 0.000000 -11.070711
v -2.090711 0.000000 -11.070711
v -2.090711 3.300000 -11.070711
v -11.070711 3.300000 -2.090711
v -11.070711 0.000000 -2.090711
v -11.050711 3.300000 -11.070711
v -11.070711 3.300000 -11.050711
v -11.050711 0.000000 -11.070711
v -11.070711 0.000000 -11.050711
v -2.090711 3.300000 11.070711
v -2.090711 0.000000 11.070711
v -11.070711 0.000000 2.090711
v -11.070711 3.300000 2.090711
v -11.070711 3.300000 11.050711
v -11.050711 3.300000 11.070711
v -11.070711 0.000000 11.050711
v -11.050711 0.000000 11.070711
v 11.179999 15.200000 11.200000
v 11.200000 15.200000 11.179999
v -11.179999 15.200000 -11.200000
v -11.200000 15.200000 -11.179999
v -11.200000 15.200000 11.179999
v -11.179999 15.200000 11.200000
v 11.200000 15.200000 -11.179999
v 11.179999 15.200000 -11.200000
v -11.140752 15.100000 11.160862
v -11.160862 15.100000 11.140752
v 11.160862 15.100000 11.140752
v 11.140752 15.100000 11.160862
v 11.140752 15.100000 -11.160862
v 11.160862 15.100000 -11.140752
v -11.160862 15.100000 -11.140752
v -11.140752 15.100000 -11.160862
vn -0.0000 -0.5773 0.8165
vn -0.0000 0.5773 -0.8165
vn -0.0000 -0.5773 -0.8165
vn -0.0000 1.0000 -0.0000
vn -0.0000 -1.0000 -0.0000
vn 1.0000 -0.0000 -0.0000
vn -0.0000 -0.0000 -1.0000
vn -0.0000 -0.0000 1.0000
vn -1.0000 -0.0000 -0.0000
vn -0.7071 -0.0000 0.7071
vn -0.8165 0.5774 -0.0000
vn 0.8165 -0.5774 -0.0000
vn 0.7071 -0.0000 0.7071
vn 0.7071 -0.0000 -0.7071
vn 0.7071 -0.7071 -0.0000
vn -0.7071 -0.7071 -0.0000
vn -0.0000 -0.7071 0.7071
vn -0.0000 -0.7071 -0.7071
vn -0.7071 -0.0000 -0.7071
vn 0.5964 -0.7286 0.3368
vn 0.3368 -0.7286 0.5964
vn -0.5964 -0.7286 -0.3368
vn -0.3368 -0.7286 -0.5964
vn -0.3368 -0.7286 0.5964
vn -0.5964 -0.7286 0.3368
vn 0.3368 -0.7286 -0.5964
vn 0.5964 -0.7286 -0.3368
vn -0.0000 -0.8016 -0.5979
vn -0.0000 -0.7751 -0.6319
vn -0.0000 -0.6736 -0.7391
vn -0.0000 -0.5979 -0.8016
vn 0.5979 -0.8016 -0.0000
vn 0.6319 -0.7751 -0.0000
vn 0.7391 -0.6736 -0.0000
vn 0.8016 -0.5979 -0.0000
vn -0.5979 -0.8016 -0.0000
vn -0.6319 -0.7751 -0.0000
vn -0.7391 -0.6736 -0.0000
vn -0.8016 -0.5979 -0.0000
vn -0.0000 -0.8016 0.5979
vn -0.0000 -0.7751 0.6319
vn -0.0000 -0.6736 0.7391
vn -0.0000 -0.5979 0.8016
vn -0.8165 -0.5774 -0.0000
vn -0.0000 0.5773 0.8165
vn 0.8165 0.5774 -0.0000
vn 0.6185 -0.4848 0.6185
vn -0.6185 -0.4848 0.6185
vn 0.6185 -0.4848 -0.6185
vn -0.6185 -0.4848 -0.6185
vn -0.0000 -0.3645 -0.9312
vn -0.9312 -0.3645 -0.0000
vn -0.0000 -0.3645 0.9312
vn 0.9312 -0.3645 -0.0000
vn 0.3775 -0.9070 -0.1865
vn 0.3775 -0.9070 0.1865
vn 0.1865 -0.9070 0.3775
vn -0.1865 -0.9070 0.3775
vn -0.3775 -0.9070 0.1865
vn -0.3775 -0.9070 -0.1865
vn -0.1865 -0.9070 -0.3775
vn 0.1865 -0.9070 -0.3775
vt 0.785006 0.000000
vt 0.785006 0.120774
vt 0.784282 0.120774
vt 0.784282 0.000504
vt 0.163737 0.932341
vt 0.163737 0.811567
vt 0.164437 0.811567
vt 0.164436 0.931838
vt 0.168008 0.633254
vt 0.168008 0.754029
vt 0.167284 0.754029
vt 0.167284 0.633758
vt 0.485927 0.683114
vt 0.576161 0.773348
vt 0.574737 0.773348
vt 0.484502 0.683114
vt 0.484502 0.682711
vt 0.574737 0.592477
vt 0.576161 0.592477
vt 0.485927 0.682711
vt 0.608608 0.706690
vt 0.608608 0.763659
vt 0.602056 0.763659
vt 0.602056 0.706690
vt 0.313210 0.804437
vt 0.306659 0.804437
vt 0.306659 0.747468
vt 0.313210 0.747468
vt 0.611301 0.925175
vt 0.611301 0.612416
vt 0.710682 0.740026
vt 0.710682 0.797565
vt 0.602056 0.820628
vt 0.608608 0.820628
vt 0.583501 0.592755
vt 0.583501 0.706659
vt 0.576949 0.706659
vt 0.576949 0.592755
vt 0.592133 0.592755
vt 0.592133 0.706659
vt 0.585581 0.706659
vt 0.585581 0.592755
vt 0.601268 0.592755
vt 0.601268 0.706659
vt 0.594716 0.706659
vt 0.594716 0.592755
vt 0.609396 0.592755
vt 0.609396 0.706659
vt 0.602845 0.706659
vt 0.602845 0.592755
vt 0.313999 0.633532
vt 0.313999 0.747436
vt 0.307447 0.747436
vt 0.307447 0.633532
vt 0.584004 0.820872
vt 0.577453 0.820872
vt 0.577453 0.706968
vt 0.584004 0.706968
vt 0.592636 0.706968
vt 0.592636 0.820872
vt 0.586085 0.820872
vt 0.586085 0.706968
vt 0.941623 0.612416
vt 0.941623 0.733190
vt 0.831705 0.733190
vt 0.777886 0.612416
vt 0.163737 0.633254
vt 0.163737 0.754029
vt 0.053820 0.754028
vt 0.000000 0.633254
vt 0.306659 0.804437
vt 0.313210 0.804437
vt 0.313210 0.861405
vt 0.306659 0.861405
vt 0.838826 0.120774
vt 0.838826 0.178313
vt 0.785006 0.299087
vt 0.785006 -0.000000
vt 0.948743 0.178313
vt 0.948743 0.299087
vt 0.780735 0.000000
vt 0.780735 0.120774
vt 0.670818 0.120774
vt 0.616998 -0.000000
vt 0.777886 0.426982
vt 0.710682 0.426982
vt 0.611301 0.299372
vt 0.777886 0.299372
vt 0.710682 0.484521
vt 0.611301 0.612131
vt 0.592417 0.706666
vt 0.592417 0.659680
vt 0.593424 0.659705
vt 0.593424 0.706690
vt 0.948743 0.000000
vt 0.948743 0.120774
vt 0.777886 0.740026
vt 0.777886 0.612416
vt 0.777886 0.612131
vt 0.777886 0.484521
vt 0.944477 0.426697
vt 0.877274 0.426697
vt 0.777893 0.299087
vt 0.944477 0.299087
vt 0.944477 0.611846
vt 0.777893 0.611846
vt 0.877274 0.484236
vt 0.944477 0.484236
vt 0.777886 0.925175
vt 0.777886 0.797565
vt 0.417292 0.777911
vt 0.317911 0.905521
vt 0.317911 0.592762
vt 0.417292 0.720372
vt 0.053820 0.811567
vt -0.000000 0.932341
vt 0.831705 0.790729
vt 0.777886 0.911503
vt 0.258243 0.723891
vt 0.258243 0.723489
vt 0.259667 0.723489
vt 0.259667 0.723891
vt 0.670818 0.178313
vt 0.616998 0.299087
vt 0.601553 0.706666
vt 0.601553 0.702394
vt 0.602056 0.703106
vt 0.602056 0.705954
vt 0.949443 0.000504
vt 0.949443 0.120774
vt 0.484496 0.720372
vt 0.484496 0.592762
vt 0.941623 0.790729
vt 0.941623 0.911503
vt 0.945894 0.612416
vt 0.945894 0.733190
vt 0.945170 0.733190
vt 0.945170 0.612919
vt 0.780735 0.178313
vt 0.780735 0.299087
vt 0.949443 0.178313
vt 0.949443 0.298583
vt 0.594432 0.773893
vt 0.594432 0.706690
vt 0.594716 0.706968
vt 0.594716 0.820872
vt 0.594432 0.820879
vt 0.601268 0.820872
vt 0.601268 0.706968
vt 0.601553 0.706690
vt 0.601553 0.816607
vt 0.601553 0.820879
vt 0.577168 0.773893
vt 0.577168 0.706690
vt 0.577168 0.820879
vt 0.307163 0.747443
vt 0.307163 0.743172
vt 0.307163 0.633254
vt 0.831997 0.733475
vt 0.831997 0.790444
vt 0.839118 0.121059
vt 0.839118 0.178028
vt 0.671109 0.121059
vt 0.671109 0.178028
vt 0.054111 0.754313
vt 0.054111 0.811282
vt 0.585296 0.706666
vt 0.585296 0.702394
vt 0.585296 0.592477
vt 0.592921 0.706690
vt 0.592921 0.816607
vt 0.592921 0.820879
vt 0.601553 0.592477
vt 0.602560 0.706666
vt 0.602560 0.702394
vt 0.602560 0.592477
vt 0.576665 0.706666
vt 0.576665 0.702394
vt 0.576665 0.592477
vt 0.314284 0.700458
vt 0.314284 0.747443
vt 0.314284 0.633254
vt 0.877565 0.426982
vt 0.877565 0.483951
vt 0.710974 0.740311
vt 0.710974 0.797280
vt 0.417584 0.720657
vt 0.417584 0.777626
vt 0.710974 0.427267
vt 0.710974 0.484236
vt 0.592417 0.592477
vt 0.585800 0.820879
vt 0.585800 0.773893
vt 0.585800 0.706690
vt 0.594432 0.706666
vt 0.594432 0.659680
vt 0.594432 0.592477
vt 0.609681 0.659680
vt 0.609681 0.706666
vt 0.609681 0.592477
vt 0.583786 0.659680
vt 0.583786 0.706666
vt 0.583786 0.592477
vt 0.602056 0.817319
vt 0.602056 0.820167
vt 0.574737 0.863985
vt 0.574737 0.863582
vt 0.484503 0.773348
vt 0.485927 0.773348
vt 0.576161 0.863582
vt 0.576161 0.863985
vt 0.485927 0.954219
vt 0.484503 0.954219
vt 0.777893 0.612416
vt 0.611308 0.612416
vt 0.484503 0.905806
vt 0.317918 0.905806
vt 0.484496 0.905521
vt 0.611308 0.299087
vt 0.777893 0.299087
vt 0.317918 0.592477
vt 0.484503 0.592477
vt 0.610688 0.659705
vt 0.610688 0.706690
vt 0.169433 0.904360
vt 0.169433 0.904763
vt 0.168008 0.904763
vt 0.168008 0.904360
vt 0.484496 0.777911
vt 0.317911 0.000000
vt 0.616998 0.000000
vt 0.615914 0.001084
vt 0.318995 0.001084
vt 0.315343 0.614830
vt 0.315343 0.317911
vt 0.316322 0.318867
vt 0.316322 0.613874
vt 0.317426 0.319676
vt 0.317426 0.613066
vt 0.616998 0.299087
vt 0.615914 0.298003
vt 0.315343 0.911749
vt 0.316322 0.615786
vt 0.316322 0.910793
vt 0.317426 0.616595
vt 0.317426 0.909985
vt 0.317911 0.299087
vt 0.318995 0.298003
vt 0.991470 0.596006
vt 0.991469 0.299087
vt 0.992449 0.300043
vt 0.992449 0.595050
vt 0.993552 0.300851
vt 0.993552 0.594241
vt 0.992879 0.909335
vt 0.992879 0.612416
vt 0.993859 0.613372
vt 0.993859 0.908379
vt 0.994962 0.614180
vt 0.994962 0.907570
vt 0.611301 0.299087
vt 0.611301 0.592477
vt 0.317911 0.592477
vt 0.317911 0.299087
vt 0.781434 0.298583
vt 0.781434 0.178313
vt 0.784282 0.178313
vt 0.784282 0.298583
vt 0.952290 0.000504
vt 0.952290 0.120774
vt 0.785006 0.178313
vt 0.785006 0.299087
vt 0.953015 0.000000
vt 0.953015 0.120774
vt 0.781434 0.120774
vt 0.781434 0.000504
vt 0.942322 0.910999
vt 0.942322 0.790729
vt 0.945170 0.790729
vt 0.945170 0.910999
vt 0.945894 0.790729
vt 0.945894 0.911503
vt 0.584793 0.705954
vt 0.584793 0.703106
vt 0.942322 0.733190
vt 0.942322 0.612919
vt 0.167284 0.811567
vt 0.167284 0.931838
vt 0.593424 0.817319
vt 0.593424 0.820167
vt 0.306659 0.746731
vt 0.306659 0.743884
vt 0.168008 0.811567
vt 0.168008 0.932341
vt 0.952290 0.178313
vt 0.952290 0.298583
vt 0.164437 0.754029
vt 0.164437 0.633758
vt 0.953015 0.178313
vt 0.953015 0.299087
vt 0.584289 0.820879
vt 0.584289 0.816607
vt 0.584793 0.817319
vt 0.584793 0.820167
vt 0.576161 0.705954
vt 0.576161 0.703106
vt 0.584289 0.706690
vt 0.584793 0.659705
vt 0.584793 0.706690
vt 0.945894 0.612416
vt 0.992879 0.612416
vt 0.992879 0.740026
vt 0.945894 0.740026
vt 0.991462 0.426697
vt 0.991469 0.426982
vt 0.944484 0.426982
vt 0.991462 0.299087
vt 0.576161 0.820903
vt 0.576161 0.773918
vt 0.945894 0.740026
vt 0.992879 0.740026
vt 0.992879 0.867637
vt 0.945894 0.867637
vt 0.259667 0.633539
vt 0.306652 0.633539
vt 0.306652 0.761150
vt 0.259667 0.761150
vt 0.259674 0.633254
vt 0.306659 0.633254
vt 0.593424 0.820903
vt 0.593424 0.773918
vt 0.168008 0.814126
vt 0.169433 0.814126
vt 0.168008 0.633254
vt 0.169433 0.633254
vt 0.944477 0.426982
vt 0.991462 0.426982
vt 0.991462 0.554592
vt 0.944477 0.554592
vt 0.945894 0.867637
vt 0.992879 0.867637
vt 0.992879 0.995247
vt 0.945894 0.995247
vt 0.991469 0.554877
vt 0.944484 0.554877
vt 0.259667 0.814126
vt 0.258243 0.814126
vt 0.259667 0.994997
vt 0.258243 0.994997
vt 0.259667 0.761434
vt 0.306652 0.761435
vt 0.306652 0.889045
vt 0.259667 0.889045
vt 0.953015 -0.000000
vt 1.000000 0.000000
vt 1.000000 0.127610
vt 0.953014 0.127610
vt 0.259674 0.761150
vt 0.306659 0.761150
vt 0.584793 0.820903
vt 0.584793 0.773918
vt 0.315291 0.700482
vt 0.315291 0.747468
vt 0.994989 0.595162
vt 0.994996 0.595449
vt 0.993559 0.596006
vt 0.993552 0.595721
vt 0.994996 0.277537
vt 0.994989 0.277824
vt 0.993552 0.277265
vt 0.993559 0.276980
vt 0.996406 0.612973
vt 0.996399 0.613260
vt 0.994962 0.612701
vt 0.994969 0.612416
vt 0.996399 0.930598
vt 0.996406 0.930884
vt 0.994969 0.931442
vt 0.994962 0.931157
vt 0.996434 0.277539
vt 0.996434 0.594877
vt 0.994996 0.595436
vt 0.994996 0.276980
vt 0.997844 0.612975
vt 0.997844 0.930313
vt 0.996406 0.930872
vt 0.996406 0.612416
vt 0.002576 0.315620
vt 0.315335 0.315620
vt 0.317625 0.317911
vt 0.000286 0.317911
vt 0.002291 0.002576
vt 0.002291 0.315335
vt 0.000000 0.317625
vt 0.000000 0.000286
vt 0.315335 0.002291
vt 0.002576 0.002291
vt 0.000286 0.000000
vt 0.317625 0.000000
vt 0.315620 0.315335
vt 0.315620 0.002576
vt 0.317911 0.000286
vt 0.317911 0.317625
vt 0.007843 0.504067
vt 0.001292 0.504067
vt 0.001007 0.504352
vt 0.000000 0.505359
vt 0.000000 0.445806
vt 0.001007 0.446813
vt 0.001292 0.447098
vt 0.007843 0.447098
vt 0.008128 0.446813
vt 0.008128 0.504352
vt 0.186441 0.326039
vt 0.128902 0.326039
vt 0.129187 0.325755
vt 0.129187 0.319203
vt 0.128902 0.318918
vt 0.127895 0.317911
vt 0.187448 0.317911
vt 0.186441 0.318918
vt 0.186156 0.319203
vt 0.186156 0.325755
vt 0.314051 0.504067
vt 0.307500 0.504067
vt 0.307215 0.504352
vt 0.307215 0.446813
vt 0.307500 0.447098
vt 0.314051 0.447098
vt 0.314336 0.446813
vt 0.315343 0.445806
vt 0.315343 0.505359
vt 0.314336 0.504352
vt 0.186441 0.625126
vt 0.186156 0.625411
vt 0.186156 0.631962
vt 0.186441 0.632247
vt 0.187448 0.633254
vt 0.127895 0.633254
vt 0.128902 0.632247
vt 0.129187 0.631962
vt 0.129187 0.625411
vt 0.128902 0.625126
vt 0.307215 0.326039
vt 0.307215 0.625126
vt 0.008128 0.625126
vt 0.008128 0.326039
s 1
usemtl Material
f 7/1/1 62/2/1 132/3/1 127/4/1
f 1/5/2 12/6/2 135/7/2 133/8/2
f 6/9/3 72/10/3 144/11/3 140/12/3
f 97/13/4 38/14/4 172/15/4 173/16/4 174/17/4 169/18/4 36/19/4 98/20/4
f 23/21/5 32/22/5 55/23/5 48/24/5
f 18/25/5 41/26/5 50/27/5 25/28/5
f 103/29/6 92/30/6 49/31/6 42/32/6
f 29/33/5 22/23/5 45/22/5 54/34/5
f 50/35/7 81/36/7 66/37/7 25/38/7
f 44/39/8 75/40/8 60/41/8 19/42/8
f 22/43/6 61/44/6 78/45/6 45/46/6
f 54/47/9 85/48/9 70/49/9 29/50/9
f 48/51/6 79/52/6 64/53/6 23/54/6
f 71/55/9 88/56/9 55/57/9 32/58/9
f 28/59/7 67/60/7 84/61/7 51/62/7
f 1/63/6 14/64/6 27/65/6 105/66/6
f 2/67/7 16/68/7 31/69/7 110/70/7
f 28/71/5 51/72/5 44/73/5 19/74/5
f 17/75/9 26/76/9 110/77/9 118/78/9
f 13/79/9 2/80/9 110/77/9 26/76/9
f 3/81/8 11/82/8 21/83/8 113/84/8
f 36/85/8 47/86/8 100/87/8 98/88/8
f 47/86/8 56/89/8 91/90/8 100/87/8
f 76/91/10 34/92/10 163/93/10 164/94/10
f 4/95/9 9/96/9 17/75/9 118/78/9
f 37/97/6 49/31/6 92/30/6 89/98/6
f 90/99/8 91/90/8 56/89/8 40/100/8
f 34/101/9 43/102/9 96/103/9 94/104/9
f 97/105/9 99/106/9 52/107/9 38/108/9
f 52/107/9 99/106/9 96/103/9 43/102/9
f 101/109/6 103/29/6 42/32/6 33/110/6
f 46/111/7 95/112/7 104/113/7 53/114/7
f 31/69/7 24/115/7 105/116/7 110/70/7
f 27/65/6 20/117/6 113/118/6 105/66/6
f 102/119/4 101/120/4 157/121/4 158/122/4
f 21/83/8 30/123/8 118/124/8 113/84/8
f 62/125/6 11/126/6 131/127/6 132/128/6
f 9/96/11 4/95/11 121/129/11 123/130/11
f 39/131/7 53/114/7 104/113/7 102/132/7
f 10/133/6 3/134/6 113/118/6 20/117/6
f 5/135/12 68/136/12 138/137/12 134/138/12
f 15/139/8 4/140/8 118/124/8 30/123/8
f 2/80/11 13/79/11 141/141/11 139/142/11
f 33/143/13 42/144/13 41/145/13 74/146/13 73/147/13
f 57/148/10 18/149/10 17/150/10 9/151/10 58/152/10
f 40/153/10 56/154/10 55/57/10 88/56/10 87/155/10
f 23/54/14 64/53/14 63/156/14 12/157/14 24/158/14
f 20/117/15 27/65/15 28/159/15 19/160/15
f 26/76/16 17/75/16 18/161/16 25/162/16
f 22/163/17 29/164/17 30/123/17 21/83/17
f 32/165/18 23/166/18 24/115/18 31/69/18
f 19/42/13 60/41/13 59/167/13 10/168/13 20/169/13
f 67/60/14 28/59/14 27/170/14 14/171/14 68/172/14
f 11/126/13 62/125/13 61/44/13 22/43/13 21/173/13
f 69/174/10 15/175/10 30/176/10 29/50/10 70/49/10
f 65/177/19 13/178/19 26/179/19 25/38/19 66/37/19
f 36/180/13 80/181/13 79/52/13 48/51/13 47/182/13
f 44/183/16 51/184/16 52/107/16 43/102/16
f 50/185/15 41/186/15 42/32/15 49/31/15
f 46/111/18 53/114/18 54/187/18 45/188/18
f 56/89/17 47/86/17 48/189/17 55/190/17
f 34/92/10 76/91/10 75/40/10 44/39/10 43/191/10
f 83/192/19 38/193/19 52/194/19 51/62/19 84/61/19
f 77/195/14 35/196/14 46/197/14 45/46/14 78/45/14
f 39/198/19 86/199/19 85/48/19 54/47/19 53/200/19
f 37/201/14 82/202/14 81/36/14 50/35/14 49/203/14
f 57/148/8 74/146/8 41/145/8 18/149/8
f 58/152/8 9/151/8 123/204/8 124/205/8
f 89/206/4 90/207/4 40/208/4 149/209/4 146/210/4 145/211/4 151/212/4 37/213/4
f 89/214/13 92/215/20 91/90/21 90/99/13
f 94/216/19 96/217/22 95/112/23 93/218/19
f 98/88/10 100/87/24 99/219/25 97/220/10
f 102/132/14 104/113/26 103/221/27 101/222/14
f 86/199/19 39/198/19 155/223/19 156/224/19
f 94/225/4 93/226/4 165/227/4 166/228/4
f 93/218/7 95/112/7 46/111/7 35/229/7
f 12/6/7 1/5/7 105/116/7 24/115/7
f 110/230/28 105/231/28 107/232/29 112/233/29
f 112/234/29 107/235/29 108/236/30 111/237/30
f 111/237/30 108/236/30 106/238/31 109/239/31
f 105/231/32 113/240/32 115/241/33 107/232/33
f 107/242/33 115/234/33 116/243/34 108/244/34
f 108/244/34 116/243/34 114/245/35 106/246/35
f 118/247/36 110/230/36 112/233/37 120/248/37
f 120/249/37 112/250/37 111/251/38 119/252/38
f 119/252/38 111/251/38 109/253/39 117/254/39
f 113/240/40 118/247/40 120/248/41 115/241/41
f 115/255/41 120/256/41 119/257/42 116/258/42
f 116/258/42 119/257/42 117/259/43 114/260/43
f 106/261/5 114/262/5 117/263/5 109/264/5
f 121/265/8 126/266/8 125/267/8 122/268/8
f 123/130/9 121/129/9 122/269/9 124/270/9
f 69/271/1 8/272/1 122/268/1 125/267/1
f 15/175/9 69/174/9 125/128/9 126/127/9
f 8/273/44 58/274/44 124/270/44 122/269/44
f 4/140/45 15/139/45 126/266/45 121/265/45
f 131/275/8 128/276/8 127/4/8 132/3/8
f 128/277/6 130/278/6 129/279/6 127/280/6
f 59/281/12 7/282/12 127/280/12 129/279/12
f 10/168/8 59/167/8 129/283/8 130/284/8
f 3/134/46 10/133/46 130/278/46 128/277/46
f 11/82/45 3/81/45 128/276/45 131/275/45
f 136/285/6 133/286/6 134/138/6 138/137/6
f 133/8/7 135/7/7 137/287/7 134/288/7
f 68/172/7 14/171/7 136/289/7 138/290/7
f 14/64/46 1/63/46 133/286/46 136/285/46
f 12/157/6 63/156/6 137/291/6 135/292/6
f 63/293/3 5/294/3 134/288/3 137/287/3
f 139/142/9 141/141/9 143/295/9 140/296/9
f 142/297/7 139/298/7 140/12/7 144/11/7
f 65/299/44 6/300/44 140/296/44 143/295/44
f 72/301/9 16/302/9 142/303/9 144/304/9
f 16/68/2 2/67/2 139/298/2 142/297/2
f 13/178/7 65/177/7 143/305/7 141/306/7
f 71/55/19 32/58/19 31/307/19 16/302/19 72/301/19
f 82/202/14 37/201/14 151/308/14 152/309/14
f 145/310/6 148/311/6 152/312/6 151/313/6
f 146/101/13 147/314/13 148/315/13 145/316/13
f 149/104/8 150/317/8 147/314/8 146/101/8
f 40/153/10 87/155/10 150/318/10 149/319/10
f 154/320/6 153/321/6 159/322/6 157/323/6
f 158/324/7 160/325/7 156/326/7 155/327/7
f 160/325/14 158/324/14 157/328/14 159/329/14
f 33/143/13 73/147/13 153/330/13 154/331/13
f 39/332/4 102/119/4 158/122/4 155/333/4
f 101/120/4 33/334/4 154/335/4 157/121/4
f 162/336/7 161/337/7 167/338/7 165/339/7
f 166/340/9 168/341/9 164/342/9 163/343/9
f 168/344/19 166/345/19 165/339/19 167/338/19
f 35/196/14 77/195/14 161/94/14 162/93/14
f 34/346/4 94/225/4 166/228/4 163/347/4
f 93/226/4 35/348/4 162/349/4 165/227/4
f 174/350/8 176/351/8 170/352/8 169/353/8
f 172/354/9 171/355/9 175/356/9 173/357/9
f 173/358/10 175/359/10 176/351/10 174/350/10
f 38/193/19 83/192/19 171/360/19 172/361/19
f 80/181/13 36/180/13 169/362/13 170/363/13
f 188/364/47 187/365/47 178/366/47 177/367/47
f 186/368/48 185/369/48 182/370/48 181/371/48
f 190/372/49 189/373/49 184/374/49 183/375/49
f 192/376/50 191/377/50 180/378/50 179/379/50
f 189/373/51 192/376/51 179/379/51 184/374/51
f 191/380/52 186/381/52 181/382/52 180/383/52
f 185/369/53 188/364/53 177/367/53 182/370/53
f 187/384/54 190/385/54 183/386/54 178/387/54
f 92/388/20 103/389/27 190/390/55 187/391/56
f 100/392/24 91/393/21 188/394/57 185/395/58
f 96/396/22 99/397/25 186/398/59 191/399/60
f 104/400/26 95/401/23 192/402/61 189/403/62
f 95/401/23 96/396/22 191/399/60 192/402/61
f 103/389/27 104/400/26 189/403/62 190/390/55
f 99/397/25 100/392/24 185/395/58 186/398/59
f 91/393/21 92/388/20 187/391/56 188/394/57
f 64/404/4 79/405/4 80/406/4 170/407/4 150/408/4 87/409/4 88/410/4 71/411/4 72/412/4 63/413/4
f 58/414/4 65/415/4 66/416/4 81/417/4 82/418/4 152/419/4 153/420/4 73/421/4 74/422/4 57/423/4
f 78/424/4 61/425/4 62/426/4 69/427/4 70/428/4 85/429/4 86/430/4 156/431/4 161/432/4 77/433/4
f 59/434/4 60/435/4 75/436/4 76/437/4 164/438/4 171/439/4 83/440/4 84/441/4 67/442/4 68/443/4
f 8/444/4 69/427/4 62/426/4 7/445/4 59/434/4 68/443/4 5/446/4 63/413/4 72/412/4 6/447/4 65/415/4 58/414/4
