# Blender 4.1.1
# www.blender.org
mtllib Room2way2.mtl
o Plane.011
v 10.500000 0.300000 10.500000
v 10.500000 0.300000 -10.500000
v -10.500000 0.000000 10.500000
v 10.500000 0.000000 10.500000
v 10.500000 0.300000 -2.020000
v 10.500000 0.300000 2.020000
v 10.500000 8.020000 -2.020000
v 10.520000 8.000000 -2.000000
v 10.520000 8.000000 2.000000
v 10.500000 8.020000 2.020000
v 11.000000 3.300000 -2.020000
v 11.000000 3.300000 2.020000
v 10.980000 8.000000 -2.000000
v 11.000000 8.020000 -2.020000
v 11.000000 8.020000 2.020000
v 10.980000 8.000000 2.000000
v 10.520000 0.000000 -2.000000
v 10.500000 0.000000 -2.020000
v 10.500000 0.000000 2.020000
v 10.520000 0.000000 2.000000
v 11.000000 0.000000 -2.020000
v 10.980000 0.000000 -2.000000
v 10.980000 0.000000 2.000000
v 11.000000 0.000000 2.020000
v 11.000000 3.300000 10.980000
v 10.980000 3.300000 11.000000
v 10.980000 15.000000 11.000000
v 11.000000 15.000000 10.980000
v -11.000000 3.300000 10.980000
v -10.980000 3.300000 11.000000
v -11.000000 15.000000 10.980000
v -10.980000 15.000000 11.000000
v 10.980000 15.000000 -11.000000
v -10.300000 12.000000 10.300000
v -10.356765 11.923899 10.356765
v 10.300000 12.000000 10.300000
v 10.500000 11.800000 10.500000
v 10.356765 11.923899 10.356765
v 10.423899 11.856765 10.423899
v 10.500000 11.800000 -10.500000
v 10.356765 11.923899 -10.356765
v 10.464644 0.050000 -10.464644
v 10.464644 0.250000 -2.020000
v 10.464644 0.050000 -2.020000
v -10.464644 0.250000 10.464644
v -10.464644 0.050000 10.464644
v 10.464644 0.250000 10.464644
v 10.464644 0.050000 10.464644
v 10.464644 0.250000 2.020000
v 10.464644 0.050000 2.020000
v 11.070711 3.300000 11.050711
v 11.050711 3.300000 11.070711
v 11.050711 0.000000 11.070711
v 11.070711 0.000000 11.050711
v 11.070711 3.300000 2.090711
v 11.070711 0.000000 2.090711
v 11.070711 0.000000 -2.090711
v 11.070711 3.300000 -2.090711
v 11.070711 3.300000 -11.050711
v 11.050711 3.300000 -11.070711
v 11.070711 0.000000 -11.050711
v -11.050711 3.300000 11.070711
v -11.050711 0.000000 11.070711
v 11.179999 15.200000 11.200000
v 11.200000 15.200000 11.179999
v -11.200000 15.200000 11.179999
v -11.160862 15.100000 11.140752
v 11.160862 15.100000 11.140752
v 11.140752 15.100000 11.160862
v 11.140752 15.100000 -11.160862
v -10.500004 0.300000 -10.499996
v -10.499996 0.300000 10.500004
v 10.499996 0.000000 -10.500004
v -10.500004 0.000000 -10.499996
v -10.499999 0.300000 2.020003
v -10.500001 0.300000 -2.019997
v -10.499999 8.020000 2.020003
v -10.520000 8.000000 2.000003
v -10.520001 8.000000 -1.999997
v -10.500001 8.020000 -2.019997
v -10.999999 3.300000 2.020004
v -11.000001 3.300000 -2.019996
v -10.979999 8.000000 2.000004
v -10.999999 8.020000 2.020004
v -11.000001 8.020000 -2.019996
v -10.980000 8.000000 -1.999996
v -10.520000 0.000000 2.000003
v -10.499999 0.000000 2.020003
v -10.500001 0.000000 -2.019997
v -10.520001 0.000000 -1.999997
v -10.999999 0.000000 2.020004
v -10.979999 0.000000 2.000004
v -10.980000 0.000000 -1.999996
v -11.000001 0.000000 -2.019996
v -11.000004 3.300000 -10.979996
v -10.980003 3.300000 -10.999996
v -10.980003 15.000000 -10.999996
v -11.000004 15.000000 -10.979996
v 10.999996 3.300000 -10.980003
v 10.979996 3.300000 -11.000004
v 10.999996 15.000000 -10.980003
v 10.299996 12.000000 -10.300004
v 10.423895 11.856765 -10.423903
v -10.300004 12.000000 -10.299996
v -10.500004 11.800000 -10.499996
v -10.356769 11.923899 -10.356761
v -10.423903 11.856765 -10.423895
v -10.499996 11.800000 10.500004
v -10.423895 11.856765 10.423903
v -10.464643 0.250000 2.020003
v -10.464643 0.050000 2.020003
v 10.464641 0.250000 -10.464648
v -10.464648 0.250000 -10.464641
v -10.464648 0.050000 -10.464641
v -10.464645 0.250000 -2.019997
v -10.464645 0.050000 -2.019997
v -11.070715 3.300000 -11.050707
v -11.050714 3.300000 -11.070707
v -11.050714 0.000000 -11.070707
v -11.070715 0.000000 -11.050707
v -11.070712 3.300000 -2.090707
v -11.070712 0.000000 -2.090707
v -11.070710 0.000000 2.090714
v -11.070710 3.300000 2.090714
v -11.070707 3.300000 11.050714
v -11.070707 0.000000 11.050714
v 11.050707 0.000000 -11.070715
v -11.180003 15.200000 -11.199996
v -11.200004 15.200000 -11.179996
v 11.199996 15.200000 -11.180003
v 11.179996 15.200000 -11.200004
v -11.179996 15.200000 11.200004
v 11.160858 15.100000 -11.140756
v -11.160866 15.100000 -11.140748
v -11.140756 15.100000 -11.160858
v -11.140748 15.100000 11.160866
vn -0.0000 -0.0000 -1.0000
vn -0.0000 -1.0000 -0.0000
vn 1.0000 -0.0000 -0.0000
vn -0.0000 1.0000 -0.0000
vn -1.0000 -0.0000 -0.0000
vn -0.0000 0.5774 -0.8165
vn -0.8165 0.5774 -0.0000
vn 0.7071 -0.0000 0.7071
vn -0.7071 -0.0000 0.7071
vn -0.7071 -0.7071 -0.0000
vn -0.0000 -0.5774 -0.8165
vn -0.7071 -0.0000 -0.7071
vn 0.7071 -0.7071 -0.0000
vn -0.0000 -0.0000 1.0000
vn 0.7071 -0.0000 -0.7071
vn -0.0000 -0.8016 -0.5979
vn -0.0000 -0.7751 -0.6319
vn -0.0000 -0.6736 -0.7391
vn -0.0000 -0.5979 -0.8016
vn -0.5979 -0.8016 -0.0000
vn -0.6319 -0.7751 -0.0000
vn -0.7391 -0.6736 -0.0000
vn -0.8016 -0.5979 -0.0000
vn -0.8165 -0.5773 -0.0000
vn -0.8165 -0.5774 -0.0000
vn 0.6185 -0.4848 0.6185
vn -0.6185 -0.4848 0.6185
vn 0.6184 -0.4848 -0.6185
vn -0.0000 -0.3645 0.9312
vn 0.9312 -0.3645 -0.0000
vn 0.4362 -0.8920 0.1184
vn 0.4362 -0.8920 -0.1184
vn 0.3775 -0.9070 -0.1865
vn 0.3775 -0.9070 0.1865
vn -0.1184 -0.8920 0.4362
vn 0.1184 -0.8920 0.4362
vn 0.1865 -0.9070 0.3775
vn -0.1865 -0.9070 0.3775
vn 0.1184 -0.8920 -0.4362
vn 0.1865 -0.9070 -0.3775
vn -0.4362 -0.8920 0.1184
vn -0.3775 -0.9070 0.1865
vn -0.0000 0.5773 0.8165
vn 0.8165 0.5773 -0.0000
vn 0.8165 0.5774 -0.0000
vn -0.0000 -0.5774 0.8165
vn -0.0000 -0.8016 0.5979
vn -0.0000 -0.7751 0.6319
vn -0.0000 -0.6736 0.7391
vn -0.0000 -0.5979 0.8016
vn 0.5979 -0.8016 -0.0000
vn 0.6319 -0.7751 -0.0000
vn 0.7391 -0.6736 -0.0000
vn 0.8016 -0.5979 -0.0000
vn 0.8165 -0.5774 -0.0000
vn -0.6185 -0.4848 -0.6185
vn -0.0000 -0.3645 -0.9312
vn -0.9312 -0.3645 -0.0000
vn -0.4362 -0.8920 -0.1184
vn -0.3775 -0.9070 -0.1865
vn -0.1184 -0.8920 -0.4362
vn -0.1865 -0.9070 -0.3775
vt 0.943613 0.000476
vt 0.943613 0.282394
vt 0.940921 0.282394
vt 0.940922 0.000476
vt 0.535363 0.739707
vt 0.529167 0.739707
vt 0.529167 0.685827
vt 0.535363 0.685827
vt 0.560353 0.597698
vt 0.560353 0.301896
vt 0.654321 0.422587
vt 0.654321 0.477006
vt 0.547755 0.578157
vt 0.547755 0.685827
vt 0.541559 0.685827
vt 0.541559 0.578157
vt 0.879039 0.600141
vt 0.879039 0.895943
vt 0.878087 0.896895
vt 0.878087 0.599189
vt 0.611241 0.713145
vt 0.611241 0.767564
vt 0.560353 0.881790
vt 0.560353 0.598920
vt 0.715172 0.767564
vt 0.715172 0.881790
vt 0.785492 -0.000000
vt 0.940268 0.000000
vt 0.940268 0.282870
vt 0.785492 0.282870
vt 0.715172 0.598920
vt 0.715172 0.713145
vt 0.717865 0.422587
vt 0.717865 0.301896
vt 0.717865 0.597698
vt 0.717865 0.477006
vt 0.469319 0.007687
vt 0.414900 0.007687
vt 0.415169 0.007418
vt 0.415169 0.001222
vt 0.414900 0.000952
vt 0.413947 -0.000000
vt 0.470271 -0.000000
vt 0.469319 0.000952
vt 0.469049 0.001222
vt 0.469049 0.007418
vt 0.158421 0.880568
vt 0.158690 0.880837
vt 0.157738 0.881790
vt 0.157468 0.881521
vt 0.715829 0.599396
vt 0.715829 0.713145
vt 0.715829 0.767564
vt 0.715829 0.881314
vt 0.654600 0.476737
vt 0.762300 0.476737
vt 0.762291 0.477006
vt 0.719220 0.713415
vt 0.611519 0.713415
vt 0.719211 0.713145
vt 0.611519 0.767295
vt 0.944306 0.000000
vt 0.944306 0.282870
vt 0.719211 0.767564
vt 0.719220 0.767295
vt 0.654600 0.422857
vt 0.440339 0.578157
vt 0.440339 0.873958
vt 0.282870 0.873958
vt 0.282870 0.578157
vt 0.762291 0.422587
vt 0.762300 0.422857
vt 0.529167 0.578157
vt 0.535363 0.578157
vt 0.541559 0.689865
vt 0.542035 0.686500
vt 0.542035 0.689192
vt 0.560362 0.301627
vt 0.717874 0.301627
vt 0.741065 0.297293
vt 0.583554 0.297293
vt 0.583545 0.297023
vt 0.741056 0.297023
vt 0.717874 0.597967
vt 0.560362 0.597967
vt 0.000000 0.583544
vt 0.000000 0.300674
vt 0.001025 0.301699
vt 0.001025 0.582519
vt 0.555947 0.578157
vt 0.555947 0.858977
vt 0.555007 0.858073
vt 0.555007 0.579061
vt 0.553952 0.857308
vt 0.553952 0.579825
vt 0.282870 0.583544
vt 0.281845 0.582519
vt 0.559927 0.578157
vt 0.559927 0.858977
vt 0.558993 0.858073
vt 0.558993 0.579061
vt 0.557943 0.857308
vt 0.557943 0.579826
vt 0.718522 0.599396
vt 0.718522 0.713145
vt 0.719211 0.598920
vt 0.878356 0.598919
vt 0.999048 0.598919
vt 1.000000 0.599872
vt 0.879309 0.599872
vt 0.879309 0.896212
vt 0.878356 0.897165
vt 0.718522 0.767564
vt 0.718522 0.881314
vt 0.719211 0.881790
vt 0.542988 0.685827
vt 0.542988 0.689865
vt 0.542512 0.689192
vt 0.542512 0.686500
vt 0.717833 0.421635
vt 0.762259 0.421635
vt 0.717833 0.300943
vt 0.762259 0.300943
vt 0.717842 0.300674
vt 0.762268 0.300674
vt 0.717833 0.477959
vt 0.762259 0.477959
vt 0.762259 0.598650
vt 0.717833 0.598650
vt 0.762268 0.598920
vt 0.717842 0.598919
vt 0.279381 0.880838
vt 0.278429 0.881790
vt 0.741025 0.297976
vt 0.785451 0.297976
vt 0.785460 0.298245
vt 0.741034 0.298245
vt 0.282733 0.884475
vt 0.282744 0.884746
vt 0.281376 0.885273
vt 0.281365 0.885004
vt 0.282744 0.584072
vt 0.282733 0.584343
vt 0.281365 0.583814
vt 0.281376 0.583545
vt 0.945684 0.000527
vt 0.945673 0.000798
vt 0.944306 0.000269
vt 0.944317 -0.000000
vt 0.944306 0.283399
vt 0.944306 0.583531
vt 0.942942 0.584060
vt 0.942942 0.282870
vt 0.002436 0.298507
vt 0.298238 0.298507
vt 0.300403 0.300674
vt 0.000271 0.300674
vt 0.002167 0.002436
vt 0.002167 0.298238
vt -0.000000 0.300403
vt -0.000000 0.000271
vt 0.298507 0.298238
vt 0.300674 0.300403
vt 0.002436 0.002167
vt 0.000271 0.000000
vt 0.484753 0.578157
vt 0.484753 0.875863
vt 0.440339 0.875863
vt 0.920422 0.301150
vt 0.920422 0.583068
vt 0.917730 0.583068
vt 0.917730 0.301150
vt 0.541559 0.739707
vt 0.583545 0.001222
vt 0.677513 0.121913
vt 0.677513 0.176332
vt 0.158421 0.584766
vt 0.157468 0.583814
vt 0.770108 0.713145
vt 0.770108 0.767564
vt 0.719220 0.881790
vt 0.719220 0.598920
vt 0.874039 0.767564
vt 0.874039 0.881790
vt 0.762300 0.300674
vt 0.917076 0.300674
vt 0.917076 0.583544
vt 0.762300 0.583544
vt 0.874039 0.598920
vt 0.874039 0.713145
vt 0.741056 0.121913
vt 0.741056 0.001222
vt 0.741056 0.176332
vt 0.414900 0.290558
vt 0.469319 0.290558
vt 0.469049 0.290827
vt 0.469049 0.297024
vt 0.469319 0.297293
vt 0.470271 0.298245
vt 0.413947 0.298245
vt 0.414900 0.297293
vt 0.415169 0.297024
vt 0.415169 0.290827
vt 0.874696 0.599396
vt 0.874696 0.713145
vt 0.874696 0.767564
vt 0.874696 0.881314
vt 0.677791 0.176063
vt 0.785492 0.176063
vt 0.785483 0.176332
vt 0.878087 0.713415
vt 0.770386 0.713415
vt 0.878078 0.713145
vt 0.770386 0.767295
vt 0.921114 0.300674
vt 0.921114 0.583544
vt 0.878078 0.767564
vt 0.878087 0.767295
vt 0.677791 0.122183
vt 0.000000 0.879346
vt -0.000000 0.583545
vt 0.157468 0.583544
vt 0.157468 0.879346
vt 0.785483 0.121913
vt 0.785492 0.122183
vt 0.553952 0.685827
vt 0.553952 0.578157
vt 0.543464 0.686500
vt 0.543464 0.689192
vt 0.583554 0.000952
vt 0.741065 0.000952
vt 0.282870 0.300674
vt 0.281845 0.301699
vt 0.557943 0.578157
vt 0.557943 0.858977
vt 0.557003 0.858073
vt 0.557003 0.579061
vt 0.555947 0.857308
vt 0.555947 0.579825
vt 0.279381 0.864365
vt 0.279381 0.583545
vt 0.280315 0.584449
vt 0.280315 0.863460
vt 0.281365 0.585213
vt 0.281365 0.862696
vt 0.877389 0.599396
vt 0.877389 0.713145
vt 0.878078 0.598920
vt 0.157738 0.583545
vt 0.278429 0.583545
vt 0.279381 0.584497
vt 0.158690 0.584497
vt 0.877389 0.767564
vt 0.877389 0.881314
vt 0.878078 0.881790
vt 0.542512 0.685827
vt 0.542512 0.689865
vt 0.542035 0.689192
vt 0.542035 0.686500
vt 0.741025 0.120961
vt 0.785451 0.120961
vt 0.741025 0.000269
vt 0.785451 0.000269
vt 0.741034 -0.000000
vt 0.785460 -0.000000
vt 0.741025 0.177285
vt 0.785451 0.177285
vt 1.000000 0.896212
vt 0.999047 0.897165
vt 0.945673 0.300930
vt 0.945684 0.301201
vt 0.944317 0.301728
vt 0.944306 0.301459
vt 0.942942 0.283399
vt 0.942942 0.583531
vt 0.941578 0.584060
vt 0.941578 0.282870
vt 0.298238 0.002167
vt 0.300403 0.000000
vt 0.298507 0.002436
vt 0.300674 0.000271
vt 0.583545 0.007688
vt 0.583544 0.290558
vt 0.300674 0.290558
vt 0.300674 0.007687
vt 0.484753 0.578157
vt 0.529167 0.578157
vt 0.529167 0.875863
vt 0.484753 0.875863
vt 0.560353 0.300674
vt 0.560353 0.578157
vt 0.282870 0.578157
vt 0.282870 0.300674
s 1
usemtl Material.004
f 48/1/1 46/2/1 45/3/1 47/4/1
f 8/5/2 13/6/2 16/7/2 9/8/2
f 101/9/3 28/10/3 15/11/3 14/12/3
f 16/13/1 23/14/1 20/15/1 9/16/1
f 26/17/4 30/18/4 62/19/4 52/20/4
f 7/21/5 10/22/5 37/23/5 40/24/5
f 6/25/5 1/26/5 37/23/5 10/22/5
f 37/27/1 1/28/1 72/29/1 108/30/1
f 2/31/5 5/32/5 7/21/5 40/24/5
f 12/33/3 15/11/3 28/10/3 25/34/3
f 99/35/3 101/9/3 14/12/3 11/36/3
f 18/37/4 19/38/4 20/39/4 23/40/4 24/41/4 56/42/4 57/43/4 21/44/4 22/45/4 17/46/4
f 1/28/6 47/4/6 45/3/6 72/29/6
f 100/47/4 99/48/4 59/49/4 60/50/4
f 5/32/7 2/31/7 112/51/7 43/52/7
f 1/26/7 6/25/7 49/53/7 47/54/7
f 11/36/8 14/12/8 13/55/8 22/56/8 21/57/8
f 17/58/9 8/59/9 7/21/9 5/32/9 18/60/9
f 10/22/10 7/21/10 8/59/10 9/61/10
f 48/1/11 4/62/11 3/63/11 46/2/11
f 19/64/12 6/25/12 10/22/12 9/61/12 20/65/12
f 16/66/13 13/55/13 14/12/13 15/11/13
f 30/67/14 26/68/14 27/69/14 32/70/14
f 12/33/15 24/71/15 23/72/15 16/66/15 15/11/15
f 17/8/14 22/7/14 13/73/14 8/74/14
f 18/75/14 5/15/14 43/76/14 44/77/14
f 25/34/8 28/10/8 27/78/8 26/79/8
f 30/80/9 32/81/9 31/82/9 29/83/9
f 100/84/15 33/85/15 101/9/15 99/35/15
f 37/86/16 108/87/16 109/88/17 39/89/17
f 39/90/17 109/91/17 35/92/18 38/93/18
f 38/93/18 35/92/18 34/94/19 36/95/19
f 40/96/20 37/86/20 39/89/21 103/97/21
f 103/98/21 39/99/21 38/100/22 41/101/22
f 41/101/22 38/100/22 36/102/23 102/103/23
f 43/52/5 112/51/5 42/104/5 44/105/5
f 73/106/24 18/60/24 44/105/24 42/104/24
f 51/107/4 55/108/4 12/109/4 25/110/4
f 29/111/4 125/112/4 62/19/4 30/18/4
f 47/54/5 49/53/5 50/113/5 48/114/5
f 19/64/25 4/115/25 48/114/25 50/113/25
f 6/116/1 19/117/1 50/118/1 49/119/1
f 24/71/15 12/33/15 55/120/15 56/121/15
f 51/122/3 54/123/3 56/121/3 55/120/3
f 52/124/8 53/125/8 54/123/8 51/122/8
f 58/126/3 57/127/3 61/128/3 59/129/3
f 127/130/15 60/131/15 59/129/15 61/128/15
f 11/36/8 21/57/8 57/127/8 58/126/8
f 99/48/4 11/132/4 58/133/4 59/49/4
f 52/20/4 51/107/4 25/110/4 26/17/4
f 125/134/9 126/135/9 63/136/9 62/137/9
f 69/138/26 68/139/26 65/140/26 64/141/26
f 67/142/27 136/143/27 132/144/27 66/145/27
f 133/146/28 70/147/28 131/148/28 130/149/28
f 136/143/29 69/138/29 64/141/29 132/144/29
f 68/150/30 133/151/30 130/152/30 65/153/30
f 28/154/31 101/155/32 133/156/33 68/157/34
f 32/158/35 27/159/36 69/160/37 136/161/38
f 101/155/32 33/162/39 70/163/40 133/156/33
f 31/164/41 32/158/35 136/161/38 67/165/42
f 27/159/36 28/154/31 68/157/34 69/160/37
f 62/67/14 63/166/14 53/167/14 52/168/14
f 18/37/4 73/282/4 74/283/4 89/195/4 88/194/4 3/284/4 4/285/4 19/38/4
f 34/290/2 104/291/2 102/292/2 36/293/2
usemtl Material.005
f 114/169/14 42/170/14 112/171/14 113/172/14
f 78/8/2 83/15/2 86/173/2 79/5/2
f 31/82/5 98/174/5 85/175/5 84/176/5
f 86/16/14 93/15/14 90/8/14 79/74/14
f 96/177/4 100/47/4 60/50/4 118/178/4
f 77/179/3 80/180/3 105/181/3 108/182/3
f 76/183/3 71/184/3 105/181/3 80/180/3
f 105/185/14 71/186/14 2/187/14 40/188/14
f 72/189/3 75/190/3 77/179/3 108/182/3
f 82/191/5 85/175/5 98/174/5 95/192/5
f 29/83/5 31/82/5 84/176/5 81/193/5
f 88/194/4 89/195/4 90/196/4 93/197/4 94/198/4 122/199/4 123/200/4 91/201/4 92/202/4 87/203/4
f 71/186/43 113/172/43 112/171/43 2/187/43
f 75/190/44 72/189/44 45/204/44 110/205/44
f 71/184/45 76/183/45 115/206/45 113/207/45
f 81/193/12 84/176/12 83/208/12 92/209/12 91/210/12
f 87/211/15 78/212/15 77/179/15 75/190/15 88/213/15
f 80/180/13 77/179/13 78/212/13 79/214/13
f 114/169/46 74/215/46 73/216/46 42/170/46
f 89/217/8 76/183/8 80/180/8 79/214/8 90/218/8
f 86/219/10 83/208/10 84/176/10 85/175/10
f 100/220/1 96/221/1 97/222/1 33/223/1
f 82/191/9 94/224/9 93/225/9 86/219/9 85/175/9
f 87/226/1 92/14/1 83/13/1 78/227/1
f 88/117/1 75/116/1 110/228/1 111/229/1
f 95/192/12 98/174/12 97/230/12 96/231/12
f 105/232/47 40/96/47 103/97/48 107/233/48
f 107/234/48 103/235/48 41/236/49 106/237/49
f 106/237/49 41/236/49 102/238/50 104/239/50
f 108/87/51 105/232/51 107/233/52 109/88/52
f 109/240/52 107/241/52 106/242/53 35/243/53
f 35/243/53 106/242/53 104/244/54 34/245/54
f 110/205/3 45/204/3 46/246/3 111/247/3
f 3/248/55 88/213/55 111/247/55 46/246/55
f 117/249/4 121/250/4 82/251/4 95/252/4
f 113/207/3 115/206/3 116/253/3 114/254/3
f 89/217/55 74/255/55 114/254/55 116/253/55
f 76/256/14 89/257/14 116/258/14 115/259/14
f 94/224/9 82/191/9 121/260/9 122/261/9
f 117/262/5 120/263/5 122/261/5 121/260/5
f 118/264/12 119/265/12 120/263/12 117/262/12
f 124/266/5 123/267/5 126/135/5 125/134/5
f 81/193/12 91/210/12 123/267/12 124/266/12
f 29/111/4 81/268/4 124/269/4 125/112/4
f 118/178/4 117/249/4 95/252/4 96/177/4
f 135/270/56 134/271/56 129/272/56 128/273/56
f 70/147/57 135/270/57 128/273/57 131/148/57
f 134/274/58 67/275/58 66/276/58 129/277/58
f 98/278/59 31/164/41 67/165/42 134/279/60
f 33/162/39 97/280/61 135/281/62 70/163/40
f 97/280/61 98/278/59 134/279/60 135/281/62
f 60/286/1 127/287/1 119/288/1 118/289/1
