# Blender 4.1.1
# www.blender.org
mtllib Halloween Environment.mtl
o Plane.001
v -11.000000 0.000000 -11.000000
v 11.000000 0.000000 -11.000000
v -11.000000 1.000000 -11.000000
v 11.000000 1.000000 -11.000000
v -11.000000 15.000000 -11.000000
v 11.000000 15.000000 -11.000000
v 2.000000 0.000000 -11.000000
v 2.000000 1.000000 -11.000000
v -11.000000 0.000000 11.000000
v -11.000000 1.000000 11.000000
v -11.000000 15.000000 11.000000
v 11.000000 0.000000 11.000000
v 11.000000 1.000000 11.000000
v 11.000000 15.000000 11.000000
v 11.000000 1.000000 2.000000
v 11.000000 0.000000 2.000000
v 11.000000 8.000000 -2.000000
v -10.000000 0.000000 10.000000
v 10.000000 0.000000 10.000000
v -10.000000 0.000000 -10.000000
v 10.000000 0.000000 -10.000000
v -10.000000 1.000000 10.000000
v 10.000000 1.000000 10.000000
v -10.000000 1.000000 -10.000000
v 10.000000 1.000000 -10.000000
v -10.000000 15.000000 10.000000
v 10.000000 15.000000 10.000000
v -10.000000 15.000000 -10.000000
v 10.000000 15.000000 -10.000000
v 10.000000 0.000000 2.000000
v 10.000000 1.000000 2.000000
v 10.000000 0.000000 -2.000000
v 10.000000 1.000000 -2.000000
v 2.000000 0.000000 -10.000000
v 2.000000 1.000000 -10.000000
v 2.000000 0.000000 2.000000
v 2.000000 0.000000 -2.000000
v -2.000000 0.000000 -10.000000
v -2.000000 1.000000 -10.000000
v -2.000000 0.000000 2.000000
v -2.000000 0.000000 -2.000000
v 10.000000 8.000000 2.000000
v 10.000000 8.000000 -2.000000
v 2.000000 8.000000 -10.000000
v -2.000000 8.000000 -10.000000
v -2.000000 0.000000 -11.000000
v -2.000000 1.000000 -11.000000
v 2.000000 8.000000 -11.000000
v -2.000000 8.000000 -11.000000
v 11.000000 8.000000 2.000000
v 11.000000 1.000000 -2.000000
v 11.000000 0.000000 -2.000000
vn -0.0000 -0.0000 -1.0000
vn 1.0000 -0.0000 -0.0000
vn -1.0000 -0.0000 -0.0000
vn -0.0000 -0.0000 1.0000
vn -0.0000 1.0000 -0.0000
vn -0.0000 -1.0000 -0.0000
vt -0.500000 2.999999
vt -4.999998 2.999999
vt -5.000000 3.000001
vt -0.500000 3.000000
vt 6.000000 2.999998
vt 1.500000 2.999999
vt 1.500000 3.000000
vt 6.000000 3.000000
vt -5.000002 3.000002
vt 6.000001 3.000001
vt 6.000000 3.000000
vt 1.500000 2.999999
vt 1.500000 2.999999
vt 6.000000 3.000000
vt -0.500000 3.000000
vt -5.000001 3.000000
vt -5.000001 3.000000
vt -0.499999 2.999999
vt 0.000000 0.000000
vt -1.999999 -4.500000
vt 4.227272 2.727273
vt 3.000000 6.000000
vt 5.999998 -2.000000
vt 4.772727 1.272728
vt 1.500000 1.500000
vt 5.500000 1.500000
vt 5.500000 5.500000
vt 1.500000 5.499999
vt 3.000000 1.500001
vt 3.000002 1.500001
vt 3.000000 5.499999
vt 2.999999 -4.499999
vt 3.000000 -0.500000
vt 3.000000 -0.500000
vt 5.499999 -4.499999
vt -4.499999 -4.499999
vt 3.000000 -0.500000
vt 2.999998 -4.500001
vt 2.999997 5.500000
vt 2.999999 1.500000
vt 1.500000 -0.500000
vt 5.499999 -0.500000
vt 5.500000 1.500000
vt 1.500000 1.500000
vt -0.500001 -0.500000
vt 1.499999 -0.500000
vt 1.500000 1.500000
vt -0.500000 1.500000
vt -0.500001 -0.500000
vt 5.499999 -0.500000
vt 1.499999 -0.500000
vt -0.500000 1.500000
vt 1.500000 1.500000
vt 1.500000 5.499999
vt -0.500000 5.499999
vt -4.500000 5.499999
vt -4.500000 -4.499999
vt -1.999999 -4.500000
vt -2.000000 -4.500000
vt 3.000001 -4.499998
vt 2.999997 -4.500000
vt 3.000001 -0.499999
vt 3.000001 1.500000
vt 2.999999 5.500000
vt 3.000002 5.500000
vt 1.500000 5.999999
vt -0.500000 5.999999
vt 5.111665 5.330009
vt -3.539052 -2.765688
vt -0.500000 -0.500000
vt -0.500000 1.500000
vt -0.500001 5.500000
s 0
f 47/1/1 3/2/1 5/3/1 49/4/1
f 4/5/1 8/6/1 48/7/1 6/8/1
f 48/7/1 49/4/1 5/9/1 6/10/1
f 2/11/1 7/12/1 8/13/1 4/14/1
f 46/15/1 1/16/1 3/17/1 47/18/1
f 51/19/2 4/19/2 6/19/2 17/19/2
f 51/19/2 52/19/2 2/19/2 4/19/2
f 3/17/3 10/20/3 11/19/3 5/3/3
f 13/19/2 12/19/2 16/19/2 15/19/2
f 13/19/2 15/19/2 50/19/2 14/19/2
f 17/21/2 6/22/2 14/23/2 50/24/2
f 14/19/4 11/19/4 10/20/4 13/19/4
f 1/16/3 9/20/3 10/20/3 3/17/3
f 37/25/5 32/26/5 21/27/5 34/28/5
f 32/29/3 33/30/3 25/31/3 21/31/3
f 19/32/3 23/32/3 31/33/3 30/34/3
f 19/35/1 18/36/1 22/20/1 23/32/1
f 42/37/3 27/38/3 29/39/3 43/40/3
f 36/41/5 30/42/5 32/43/5 37/44/5
f 40/45/5 36/46/5 37/47/5 41/48/5
f 40/49/5 18/36/5 19/35/5 30/50/5 36/51/5
f 44/7/6 45/4/6 49/4/6 48/7/6
f 41/52/5 37/53/5 34/54/5 38/55/5
f 20/56/2 24/19/2 22/20/2 18/57/2
f 10/20/4 9/20/4 12/19/4 13/19/4
f 22/58/2 24/19/2 28/19/2 26/59/2
f 34/12/3 35/13/3 8/13/3 7/12/3
f 23/60/3 27/61/3 42/37/3 31/62/3
f 45/4/2 39/1/2 47/1/2 49/4/2
f 33/63/3 43/40/3 29/64/3 25/65/3
f 39/18/2 38/15/2 46/15/2 47/18/2
f 34/54/5 7/66/5 46/67/5 38/55/5
f 35/6/3 44/7/3 48/7/3 8/6/3
f 29/68/4 28/69/4 45/4/4 44/7/4
f 25/19/4 29/19/4 44/19/4 35/19/4
f 35/19/4 34/19/4 21/19/4 25/19/4
f 39/19/4 24/19/4 20/19/4 38/19/4
f 28/19/4 24/19/4 39/19/4 45/19/4
f 42/37/6 43/40/6 17/21/6 50/24/6
f 42/37/1 50/24/1 15/19/1 31/62/1
f 31/62/1 15/19/1 16/19/1 30/34/1
f 33/30/4 32/29/4 52/19/4 51/19/4
f 43/40/4 33/30/4 51/19/4 17/21/4
f 32/29/5 30/34/5 16/19/5 52/19/5
f 26/59/1 27/61/1 23/32/1 22/58/1
f 18/57/5 40/70/5 41/71/5 38/72/5 20/56/5
