# Blender 4.1.1
# www.blender.org
mtllib Test Room.mtl
o Plane.004
v -10.000000 0.000000 10.000000
v 10.000000 0.000000 10.000000
v -10.000000 0.000000 -10.000000
v 10.000000 0.000000 -10.000000
v 10.000000 0.000000 -2.000000
v -10.000000 0.000000 -2.000000
v -2.000000 0.000000 -10.000000
v -2.000000 0.000000 10.000000
v -2.000000 0.000000 -2.000000
v 10.000000 0.000000 2.000000
v -10.000000 0.000000 2.000000
v -2.000000 0.000000 2.000000
v 2.000000 0.000000 -10.000000
v 2.000000 0.000000 10.000000
v 2.000000 0.000000 -2.000000
v 2.000000 0.000000 2.000000
v -10.000000 8.000000 10.000000
v 10.000000 8.000000 10.000000
v -10.000000 8.000000 -10.000000
v 10.000000 8.000000 -10.000000
v 10.000000 8.000000 -2.000000
v -10.000000 8.000000 -2.000000
v -2.000000 8.000000 -10.000000
v -2.000000 8.000000 10.000000
v 10.000000 8.000000 2.000000
v -10.000000 8.000000 2.000000
v 2.000000 8.000000 -10.000000
v 2.000000 8.000000 10.000000
v -10.000000 12.000000 10.000000
v 10.000000 12.000000 10.000000
v -10.000000 12.000000 -10.000000
v 10.000000 12.000000 -10.000000
v 10.000000 12.000000 -2.000000
v -10.000000 12.000000 -2.000000
v -2.000000 12.000000 -10.000000
v -2.000000 12.000000 10.000000
v -3.000000 12.000000 -3.000000
v 10.000000 12.000000 2.000000
v -10.000000 12.000000 2.000000
v -3.000000 12.000000 3.000000
v 2.000000 12.000000 -10.000000
v 2.000000 12.000000 10.000000
v 3.000000 12.000000 -3.000000
v 3.000000 12.000000 3.000000
v -2.000000 12.500000 -2.000000
v -2.000000 12.500000 2.000000
v 2.000000 12.500000 -2.000000
v 2.000000 12.500000 2.000000
v -11.000000 0.000000 11.000000
v 11.000000 0.000000 11.000000
v -11.000000 0.000000 -11.000000
v 11.000000 0.000000 -11.000000
v 11.000000 0.000000 -2.000000
v -11.000000 0.000000 -2.000000
v -2.000000 0.000000 -11.000000
v -2.000000 0.000000 11.000000
v 11.000000 0.000000 2.000000
v -11.000000 0.000000 2.000000
v 2.000000 0.000000 -11.000000
v 2.000000 0.000000 11.000000
v -11.000000 8.000000 11.000000
v 11.000000 8.000000 11.000000
v -11.000000 8.000000 -11.000000
v 11.000000 8.000000 -11.000000
v 11.000000 8.000000 -2.000000
v -11.000000 8.000000 -2.000000
v -2.000000 8.000000 -11.000000
v -2.000000 8.000000 11.000000
v 11.000000 8.000000 2.000000
v -11.000000 8.000000 2.000000
v 2.000000 8.000000 -11.000000
v 2.000000 8.000000 11.000000
v -11.000000 15.000000 11.000000
v 11.000000 15.000000 11.000000
v -11.000000 15.000000 -11.000000
v 11.000000 15.000000 -11.000000
v -15.000000 15.000000 -15.000000
v 15.000000 15.000000 -15.000000
v -15.000000 15.000000 15.000000
v 15.000000 15.000000 15.000000
v 15.000000 0.000000 -15.000000
v -15.000000 0.000000 -15.000000
v -15.000000 0.000000 15.000000
v 15.000000 0.000000 15.000000
vn -0.0000 1.0000 -0.0000
vn -1.0000 -0.0000 -0.0000
vn -0.0000 -0.0000 -1.0000
vn -0.0000 -0.0000 1.0000
vn 1.0000 -0.0000 -0.0000
vn -0.0000 -1.0000 -0.0000
vn -0.0000 -0.8944 0.4472
vn -0.0000 -0.8944 -0.4472
vn -0.4472 -0.8944 -0.0000
vn 0.4472 -0.8944 -0.0000
vt 0.000000 0.000000
vt 0.500000 0.500000
s 0
f 13/1/1 7/1/1 9/2/1 15/2/1
f 12/2/1 11/1/1 1/1/1 8/1/1
f 10/1/1 16/2/1 14/1/1 2/1/1
f 12/2/1 8/1/1 14/1/1 16/2/1
f 4/1/1 13/1/1 15/2/1 5/1/1
f 12/2/1 16/2/1 15/2/1 9/2/1
f 6/1/1 9/2/1 7/1/1 3/1/1
f 12/2/1 9/2/1 6/1/1 11/1/1
f 25/1/2 18/1/2 30/1/2 38/1/2
f 28/1/3 24/1/3 36/1/3 42/1/3
f 21/1/2 25/1/2 38/1/2 33/1/2
f 18/1/3 28/1/3 42/1/3 30/1/3
f 27/1/4 20/1/4 32/1/4 41/1/4
f 23/1/4 27/1/4 41/1/4 35/1/4
f 17/1/5 26/1/5 39/1/5 29/1/5
f 19/1/4 23/1/4 35/1/4 31/1/4
f 26/1/5 22/1/5 34/1/5 39/1/5
f 2/1/3 14/1/3 28/1/3 18/1/3
f 8/1/3 1/1/3 17/1/3 24/1/3
f 4/1/2 5/1/2 21/1/2 20/1/2
f 6/1/5 3/1/5 19/1/5 22/1/5
f 1/1/5 11/1/5 26/1/5 17/1/5
f 3/1/4 7/1/4 23/1/4 19/1/4
f 13/1/4 4/1/4 20/1/4 27/1/4
f 10/1/2 2/1/2 18/1/2 25/1/2
f 41/1/6 43/2/6 37/2/6 35/1/6
f 40/2/6 36/1/6 29/1/6 39/1/6
f 44/2/6 43/2/6 33/1/6 38/1/6
f 38/1/6 30/1/6 42/1/6 44/2/6
f 40/2/6 44/2/6 42/1/6 36/1/6
f 32/1/6 33/1/6 43/2/6 41/1/6
f 37/2/7 43/2/7 47/2/7 45/2/7
f 34/1/6 31/1/6 35/1/6 37/2/6
f 40/2/6 39/1/6 34/1/6 37/2/6
f 20/1/2 21/1/2 33/1/2 32/1/2
f 22/1/5 19/1/5 31/1/5 34/1/5
f 24/1/3 17/1/3 29/1/3 36/1/3
f 46/2/6 45/2/6 47/2/6 48/2/6
f 44/2/8 40/2/8 46/2/8 48/2/8
f 43/2/9 44/2/9 48/2/9 47/2/9
f 40/2/10 37/2/10 45/2/10 46/2/10
f 68/1/3 61/1/3 73/1/3 74/1/3 62/1/3 72/1/3
f 64/1/2 65/1/2 69/1/2 62/1/2 74/1/2 76/1/2
f 67/1/4 71/1/4 64/1/4 76/1/4 75/1/4 63/1/4
f 70/1/5 66/1/5 63/1/5 75/1/5 73/1/5 61/1/5
f 50/1/3 60/1/3 72/1/3 62/1/3
f 56/1/3 49/1/3 61/1/3 68/1/3
f 52/1/2 53/1/2 65/1/2 64/1/2
f 54/1/5 51/1/5 63/1/5 66/1/5
f 49/1/5 58/1/5 70/1/5 61/1/5
f 51/1/4 55/1/4 67/1/4 63/1/4
f 59/1/4 52/1/4 64/1/4 71/1/4
f 57/1/2 50/1/2 62/1/2 69/1/2
f 16/2/1 10/1/1 5/1/1 15/2/1
f 6/1/4 22/1/4 66/1/4 54/1/4
f 26/1/6 70/1/6 66/1/6 22/1/6
f 26/1/3 11/1/3 58/1/3 70/1/3
f 8/1/5 24/1/5 68/1/5 56/1/5
f 24/1/6 28/1/6 72/1/6 68/1/6
f 28/1/2 14/1/2 60/1/2 72/1/2
f 21/1/6 65/1/6 69/1/6 25/1/6
f 21/1/4 5/1/4 53/1/4 65/1/4
f 10/1/3 25/1/3 69/1/3 57/1/3
f 23/1/5 7/1/5 55/1/5 67/1/5
f 27/1/6 23/1/6 67/1/6 71/1/6
f 13/1/2 27/1/2 71/1/2 59/1/2
f 14/1/1 8/1/1 56/1/1 60/1/1
f 10/1/1 57/1/1 53/1/1 5/1/1
f 11/1/1 6/1/1 54/1/1 58/1/1
f 13/1/1 59/1/1 55/1/1 7/1/1
f 75/1/1 77/1/1 79/1/1 73/1/1
f 76/1/1 78/1/1 77/1/1 75/1/1
f 74/1/1 80/1/1 78/1/1 76/1/1
f 74/1/1 73/1/1 79/1/1 80/1/1
f 52/1/6 81/1/6 84/1/6 50/1/6 57/1/6 53/1/6
f 81/1/6 52/1/6 59/1/6 55/1/6 51/1/6 82/1/6
f 51/1/6 54/1/6 58/1/6 49/1/6 83/1/6 82/1/6
f 50/1/6 84/1/6 83/1/6 49/1/6 56/1/6 60/1/6
