# Blender 4.1.1
# www.blender.org
mtllib Box1.mtl
o Cube
v -0.953387 0.013458 0.985477
v -0.953591 0.033638 1.005944
v -0.973352 0.033913 0.986258
v -0.946651 3.999426 1.096999
v -0.947028 4.019289 1.077463
v -0.967051 3.998869 1.077596
v -0.919118 -0.012868 -0.955382
v -0.939579 0.007556 -0.955318
v -0.919339 0.006957 -0.975929
v -1.010298 3.997737 -1.060706
v -1.010266 3.977609 -1.080192
v -1.029855 3.977657 -1.060703
v 0.943685 -0.029291 0.954923
v 0.963684 -0.009738 0.954920
v 0.943602 -0.009123 0.975247
v 0.944515 4.058393 1.020586
v 0.944252 4.038738 1.040279
v 0.964517 4.038800 1.019672
v 0.956157 -0.053525 -1.012539
v 0.956398 -0.033689 -1.032532
v 0.976300 -0.033958 -1.013141
v 0.985476 4.006804 -1.009799
v 1.005326 3.986891 -1.009306
v 0.985604 3.986457 -1.029814
vn 0.0230 -0.0195 0.9995
vn 0.9999 -0.0038 0.0134
vn -0.0124 0.9998 -0.0175
vn -0.9999 -0.0106 0.0072
vn -0.0017 -0.0127 -0.9999
vn -0.5767 -0.5846 0.5707
vn -0.5753 0.5680 0.5886
vn -0.5866 -0.5859 -0.5591
vn -0.5809 0.5657 -0.5853
vn 0.5694 -0.5823 0.5802
vn 0.5849 0.5702 0.5769
vn 0.5581 -0.5924 -0.5810
vn 0.5862 0.5700 -0.5757
vn -0.7111 -0.7031 -0.0029
vn -0.6973 -0.0153 0.7166
vn -0.7151 0.6989 0.0141
vn -0.7093 -0.0348 -0.7040
vn -0.0367 -0.7143 -0.6989
vn 0.0150 0.6984 -0.7155
vn 0.7096 -0.0046 -0.7046
vn 0.6980 -0.7160 0.0133
vn 0.7040 0.7102 -0.0039
vn 0.7121 -0.0114 0.7020
vn -0.0047 -0.7109 0.7032
vn 0.0067 0.7045 0.7097
vn -0.0218 -0.9997 0.0127
vt 0.525164 0.359694
vt 0.528467 0.000437
vt 0.763266 0.000000
vt 0.760812 0.354391
vt 0.268052 0.508451
vt 0.268052 0.009080
vt 0.520076 0.002424
vt 0.512467 0.505227
vt 0.518067 0.765263
vt 0.270509 0.778940
vt 0.270475 0.513273
vt 0.505539 0.513290
vt 0.018622 0.494758
vt 0.002428 0.002509
vt 0.268052 0.002468
vt 0.259736 0.495721
vt 0.011667 0.991579
vt 0.002437 0.498285
vt 0.250301 0.498296
vt 0.244609 0.997505
vt 0.760770 0.357961
vt 0.763266 0.356118
vt 0.000000 0.002491
vt 0.002402 -0.000000
vt 0.259751 0.498285
vt 0.262278 0.495798
vt 0.270555 0.781403
vt 0.268052 0.779056
vt 0.525136 0.363250
vt 0.522669 0.361531
vt 0.520221 0.000000
vt 0.522669 0.002439
vt 0.244565 1.000000
vt 0.247077 0.997580
vt 0.252746 0.498285
vt 0.254493 0.500021
vt 0.252746 0.501829
vt 0.018726 0.497324
vt 0.016160 0.494842
vt 0.268010 -0.000000
vt 0.009149 0.991526
vt -0.000000 0.498299
vt 0.011680 0.994073
vt 0.518127 0.767791
vt 0.252746 0.498285
vt 0.512503 0.507665
vt 0.268162 0.510891
vt 0.507996 0.513374
vt 0.520499 0.765172
vt 0.515025 0.505158
vt 0.270420 0.510891
vt 0.505404 0.510891
vt 0.756453 0.531611
vt 0.523527 0.539079
s 1
usemtl Material.002
f 15/1/1 17/2/1 4/3/1 2/4/1
f 21/5/2 23/6/2 18/7/2 14/8/2
f 22/9/3 10/10/3 5/11/3 16/12/3
f 3/13/4 6/14/4 12/15/4 8/16/4
f 9/17/5 11/18/5 24/19/5 20/20/5
f 1/21/6 2/4/6 3/22/6
f 4/23/7 5/24/7 6/14/7
f 7/25/8 8/16/8 9/26/8
f 10/10/9 11/27/9 12/28/9
f 13/29/10 14/30/10 15/1/10
f 16/31/11 17/32/11 18/7/11
f 19/33/12 20/20/12 21/34/12
f 22/35/13 23/36/13 24/37/13
f 7/25/14 1/38/14 3/13/14 8/16/14
f 2/39/15 4/23/15 6/14/15 3/13/15
f 5/24/16 10/40/16 12/15/16 6/14/16
f 11/18/17 9/17/17 8/41/17 12/42/17
f 19/33/18 7/43/18 9/17/18 20/20/18
f 10/10/19 22/9/19 24/44/19 11/27/19
f 23/45/20 21/34/20 20/20/20 24/19/20
f 13/46/21 19/47/21 21/5/21 14/8/21
f 22/9/22 16/12/22 18/48/22 23/49/22
f 17/32/23 15/50/23 14/8/23 18/7/23
f 1/21/24 13/29/24 15/1/24 2/4/24
f 16/12/25 5/11/25 4/51/25 17/52/25
f 7/53/26 19/54/26 13/29/26 1/21/26
