# Blender 4.1.1
# www.blender.org
mtllib Box2.mtl
o Plane.013
v -0.973906 0.033803 0.967206
v -0.953277 0.013864 0.968435
v -0.954275 0.034136 0.988119
v 1.012728 0.038952 1.078287
v 1.012758 0.018760 1.058806
v 1.032119 0.038794 1.059212
v -0.940107 0.007634 -0.937103
v -0.919768 0.007476 -0.958215
v -0.919219 -0.012234 -0.937573
v 0.970243 0.017716 -1.042429
v 0.949905 -0.002393 -1.041839
v 0.949671 0.017401 -1.061319
v -1.035632 1.950187 0.936640
v -1.015790 1.951321 0.957291
v -1.016297 1.971061 0.936967
v 0.944955 2.038289 1.021628
v 0.965333 2.038658 1.002292
v 0.944685 2.057753 1.001069
v -1.023020 1.926151 -0.994281
v -1.003895 1.946723 -0.994841
v -1.002899 1.926500 -1.014243
v 1.004974 1.987048 -0.991504
v 0.985369 1.985935 -1.011557
v 0.985344 2.006466 -0.991048
vn -0.0398 0.0210 0.9990
vn -0.0260 -0.0019 -0.9997
vn 0.0039 -0.9999 0.0118
vn -0.0367 0.9991 -0.0198
vn 1.0000 0.0081 -0.0056
vn -0.5910 -0.5767 0.5640
vn 0.5750 -0.5676 0.5892
vn -0.5801 -0.5968 -0.5544
vn 0.5559 -0.5797 -0.5957
vn -0.6130 0.5591 0.5583
vn 0.5360 0.6166 0.5767
vn -0.5977 0.5395 -0.5930
vn 0.5641 0.5839 -0.5838
vn -0.6921 -0.7218 -0.0024
vn -0.0312 -0.6956 0.7178
vn 0.7109 -0.7031 -0.0140
vn -0.0351 -0.7125 -0.7008
vn -0.7330 0.6801 -0.0133
vn -0.0545 0.7202 0.6916
vn 0.6911 0.7227 -0.0047
vn -0.0198 0.6993 -0.7146
vn 0.6959 0.0059 -0.7181
vn 0.6939 0.0438 0.7187
vn -0.7248 -0.0123 0.6888
vn -0.7114 -0.0515 -0.7009
vn -0.9992 -0.0380 -0.0116
vt 0.331711 0.684332
vt 0.003108 0.694902
vt 0.003274 0.360751
vt 0.331138 0.364018
vt 1.000000 0.015547
vt 0.992350 0.327942
vt 0.671646 0.332008
vt 0.671646 0.000000
vt 0.330926 0.028040
vt 0.315880 0.346013
vt 0.003409 0.354212
vt 0.003241 0.003291
vt 0.342046 0.358696
vt 0.669958 0.357425
vt 0.666807 0.690209
vt 0.334641 0.681192
vt 0.671646 0.000000
vt 0.671646 0.350983
vt 0.342981 0.339215
vt 0.337569 0.006281
vt 0.675105 0.335460
vt 0.671646 0.335343
vt 0.674987 0.332008
vt 0.003330 0.000000
vt 0.000000 0.003088
vt 0.675091 0.653500
vt 0.674987 0.657066
vt 0.671646 0.653667
vt 0.673969 0.669855
vt 0.673969 0.674632
vt 0.671646 0.672271
vt 0.334588 0.364019
vt 0.331241 0.360646
vt 0.671646 0.666486
vt 0.674977 0.669790
vt 0.671646 0.669855
vt 0.671646 0.666486
vt 0.671646 0.661795
vt 0.674125 0.664092
vt 0.669958 0.690442
vt 0.666585 0.693695
vt 0.334351 0.028307
vt 0.319357 0.345998
vt 0.331178 0.024720
vt 0.000000 0.354171
vt 0.315859 0.349422
vt 0.003341 0.357425
vt 0.995827 0.658422
vt 0.995288 0.335988
vt 0.998647 0.335924
vt 0.999140 0.658507
vt 0.003341 0.357425
vt 0.339713 0.339125
vt 0.334351 0.006473
vt 0.334588 0.684498
vt 0.671640 0.354156
vt 0.343107 0.342583
vt 0.000000 0.694966
vt 0.000000 0.360731
vt 0.995302 0.332578
vt 0.995806 0.661795
s 1
usemtl Material.002
f 3/1/1 4/2/1 16/3/1 14/4/1
f 12/5/2 8/6/2 21/7/2 23/8/2
f 2/9/3 9/10/3 11/11/3 5/12/3
f 15/13/4 18/14/4 24/15/4 20/16/4
f 6/17/5 10/18/5 22/19/5 17/20/5
f 1/21/6 2/22/6 3/23/6
f 4/24/7 5/12/7 6/25/7
f 7/26/8 8/27/8 9/28/8
f 10/29/9 11/30/9 12/31/9
f 13/32/10 14/4/10 15/33/10
f 16/34/11 17/35/11 18/36/11
f 19/37/12 20/38/12 21/39/12
f 22/40/13 23/41/13 24/15/13
f 9/10/14 2/9/14 1/42/14 7/43/14
f 2/9/15 5/12/15 4/24/15 3/44/15
f 5/12/16 11/11/16 10/45/16 6/25/16
f 11/11/17 9/10/17 8/46/17 12/47/17
f 19/48/18 13/49/18 15/50/18 20/51/18
f 14/4/19 16/3/19 18/52/19 15/33/19
f 17/20/20 22/19/20 24/53/20 18/54/20
f 23/41/21 21/55/21 20/16/21 24/15/21
f 12/56/22 23/57/22 22/19/22 10/18/22
f 16/3/23 4/2/23 6/58/23 17/59/23
f 3/23/24 14/60/24 13/49/24 1/21/24
f 21/61/25 8/27/25 7/26/25 19/48/25
f 7/26/26 1/21/26 13/49/26 19/48/26
