# Blender 4.1.1
# www.blender.org
o Cube.011
v -0.109823 0.208999 0.261127
v -0.038430 0.081611 -1.000000
v -0.038430 0.152104 -1.000000
v 0.109823 0.208999 0.261127
v 0.038430 0.081611 -1.000000
v 0.038430 0.152104 -1.000000
v -0.064994 0.093125 0.811319
v 0.064994 0.093125 0.811319
v -0.083895 -0.020710 1.295350
v -0.083895 0.213005 1.295350
v 0.083895 0.213005 1.295350
v 0.083895 -0.020710 1.295350
v -0.109823 0.024717 0.261127
v 0.109823 0.024717 0.261127
v -0.064994 -0.140590 0.811319
v 0.064994 -0.140590 0.811319
v -0.030833 -0.036398 0.319857
v 0.030833 -0.036398 0.319857
v -0.023557 -0.074647 0.419712
v 0.023557 -0.074647 0.419712
v -0.030833 0.029827 0.277333
v 0.030833 0.029827 0.277333
v -0.030833 -0.036398 0.499225
v 0.030833 -0.036398 0.499225
v -0.030833 -0.002542 0.499225
v 0.030833 -0.002542 0.499225
v -0.023557 -0.035194 0.584623
v 0.023557 -0.035194 0.584623
v -0.030833 -0.020483 0.296867
v 0.030833 -0.020483 0.296867
v -0.030833 0.030245 0.266965
v 0.030833 0.030245 0.266965
v -0.030833 -0.049821 0.319857
v 0.030833 -0.049821 0.319857
v -0.023557 -0.088070 0.419712
v 0.023557 -0.088070 0.419712
v -0.023557 -0.048617 0.584623
v 0.023557 -0.048617 0.584623
v -0.030833 -0.033907 0.296867
v 0.030833 -0.033907 0.296867
v -0.030833 0.016822 0.266965
v 0.030833 0.016822 0.266965
v -0.054042 0.167716 -1.000000
v -0.054042 0.066000 -1.000000
v 0.054042 0.066000 -1.000000
v 0.054042 0.167716 -1.000000
v -0.038430 0.152104 -0.655865
v -0.038430 0.081611 -0.655865
v 0.038430 0.081611 -0.655865
v 0.038430 0.152104 -0.655865
vn -0.9990 -0.0000 -0.0442
vn -1.0000 -0.0000 -0.0000
vn 0.9990 -0.0000 -0.0442
vn -0.0000 -0.9995 -0.0327
vn -0.0000 0.9995 -0.0327
vn -0.0000 0.9707 -0.2404
vn -0.0000 0.9785 0.2061
vn 0.9967 -0.0000 0.0812
vn -0.9967 -0.0000 0.0812
vn -0.0000 -0.0000 1.0000
vn 0.9992 -0.0000 -0.0390
vn -0.0000 -0.9707 0.2404
vn -0.9992 -0.0000 -0.0390
vn -0.0000 -0.0000 -1.0000
vn -0.0000 -0.9895 -0.1443
vn -0.0000 1.0000 -0.0000
vn 1.0000 -0.0000 -0.0000
vn -0.0000 0.5403 0.8415
vn -0.0000 -0.9577 -0.2877
vn -0.9974 -0.0000 0.0727
vn -0.0000 -0.9338 -0.3577
vn -0.0000 -0.9726 0.2327
vn -0.0000 -0.8222 -0.5692
vn -0.0000 -0.5078 -0.8615
vn 0.9974 -0.0000 0.0727
vn -0.0000 0.9338 0.3577
vn -0.0000 0.9726 -0.2327
vn -0.0000 0.8222 0.5692
vn -0.0000 0.5078 0.8615
vn -0.0000 -1.0000 -0.0000
vt 0.628090 0.467935
vt 0.651125 0.467935
vt 0.645964 0.625155
vt 0.633250 0.625155
vt 0.644013 0.754804
vt 0.635201 0.754804
vt 0.508250 0.624845
vt 0.520965 0.624845
vt 0.526125 0.782065
vt 0.503090 0.782065
vt 0.243245 0.625000
vt 0.256755 0.625000
vt 0.263728 0.782480
vt 0.236272 0.782480
vt 0.743245 0.625000
vt 0.756755 0.625000
vt 0.763728 0.782480
vt 0.736272 0.782480
vt 0.043512 0.280705
vt 0.044232 0.280705
vt 0.044336 0.283348
vt 0.043407 0.283348
vt 0.043264 0.277720
vt 0.044480 0.277720
vt 0.044232 0.280793
vt 0.043512 0.280793
vt 0.503090 0.657641
vt 0.526125 0.657641
vt 0.511641 0.725631
vt 0.482426 0.725631
vt 0.033956 0.252649
vt 0.032936 0.252649
vt 0.032020 0.249637
vt 0.033314 0.249637
vt 0.497411 0.864513
vt 0.526626 0.864513
vt 0.526626 0.885487
vt 0.497411 0.885487
vt 0.482426 0.727455
vt 0.511641 0.727455
vt 0.526626 0.786427
vt 0.497411 0.786427
vt 0.021366 0.280705
vt 0.022086 0.280705
vt 0.022190 0.283348
vt 0.021261 0.283348
vt 0.033314 0.249557
vt 0.032020 0.249557
vt 0.032684 0.246945
vt 0.033978 0.246945
vt 0.246146 0.662216
vt 0.253854 0.662216
vt 0.253854 0.662564
vt 0.246146 0.662564
vt 0.253854 0.658619
vt 0.253854 0.660971
vt 0.253854 0.659769
vt 0.532494 0.425873
vt 0.534470 0.425873
vt 0.534470 0.427470
vt 0.532494 0.427470
vt 0.532494 0.432906
vt 0.534470 0.432906
vt 0.532494 0.426181
vt 0.532494 0.425578
vt 0.000000 0.000000
vt 0.032936 0.277686
vt 0.028649 0.280724
vt 0.024193 0.280714
vt 0.532727 0.433740
vt 0.532727 0.430040
vt 0.532727 0.429972
vt 0.532727 0.433672
vt 0.253854 0.663986
vt 0.253854 0.665998
vt 0.253854 0.666548
vt 0.253854 0.664535
vt 0.532494 0.427470
vt 0.532494 0.427585
vt 0.532727 0.430155
vt 0.534470 0.427585
vt 0.534237 0.430155
vt 0.534237 0.429972
vt 0.534237 0.433672
vt 0.246146 0.666547
vt 0.246146 0.664535
vt 0.253854 0.664333
vt 0.246146 0.664333
vt 0.252945 0.690454
vt 0.247055 0.690454
vt 0.247055 0.690188
vt 0.252945 0.690188
vt 0.532494 0.426954
vt 0.532494 0.426500
vt 0.532494 0.426590
vt 0.532494 0.427043
vt 0.252945 0.676020
vt 0.252945 0.676470
vt 0.253854 0.666448
vt 0.532494 0.427095
vt 0.532494 0.427611
vt 0.252945 0.675754
vt 0.469384 0.256713
vt 0.534237 0.433740
vt 0.534470 0.426501
vt 0.534470 0.426954
vt 0.644013 0.745196
vt 0.635201 0.745196
vt 0.633250 0.743245
vt 0.645965 0.743245
vt 0.633250 0.756755
vt 0.645964 0.756755
s 0
f 13/1/1 1/2/1 43/3/1 44/4/1
f 6/5/2 5/6/2 49/6/2 50/5/2
f 45/7/3 46/8/3 4/9/3 14/10/3
f 44/11/4 45/12/4 14/13/4 13/14/4
f 46/15/5 43/16/5 1/17/5 4/18/5
f 8/19/6 7/20/6 10/21/6 11/22/6
f 4/23/7 1/24/7 7/25/7 8/26/7
f 14/27/8 4/28/8 8/29/8 16/30/8
f 1/31/9 13/32/9 15/33/9 7/34/9
f 12/35/10 11/36/10 10/37/10 9/38/10
f 16/39/11 8/40/11 11/41/11 12/42/11
f 15/43/12 16/44/12 12/45/12 9/46/12
f 7/47/13 15/48/13 9/49/13 10/50/13
f 31/51/14 32/52/14 42/53/14 41/54/14
f 22/55/2 18/56/2 24/56/2 26/57/2
f 21/58/15 22/59/15 26/59/15 25/58/15
f 18/60/16 17/61/16 23/62/16 24/63/16
f 17/64/17 21/65/17 25/58/17 23/64/17
f 21/66/18 17/66/18 18/66/18 22/66/18
f 14/67/19 16/68/19 15/69/19 13/32/19
f 27/70/2 19/71/2 35/72/2 37/73/2
f 30/74/17 18/75/17 34/76/17 40/77/17
f 19/71/20 17/78/20 33/79/20 35/80/20
f 33/79/21 34/81/21 36/82/21 35/80/21
f 35/72/22 36/83/22 38/84/22 37/73/22
f 34/76/23 33/85/23 39/86/23 40/77/23
f 40/87/24 39/88/24 41/54/24 42/53/24
f 28/89/10 27/90/10 37/91/10 38/92/10
f 29/93/2 31/94/2 41/95/2 39/96/2
f 18/75/25 20/97/25 36/98/25 34/99/25
f 17/78/2 29/93/2 39/100/2 33/101/2
f 20/97/17 28/89/17 38/92/17 36/102/17
f 32/52/17 30/74/17 40/87/17 42/53/17
f 17/103/26 19/103/26 20/103/26 18/103/26
f 27/70/27 28/104/27 20/103/27 19/71/27
f 29/103/28 17/103/28 18/103/28 30/103/28
f 32/105/29 31/94/29 29/103/29 30/106/29
f 3/107/14 2/108/14 44/109/14 43/110/14
f 2/108/14 5/6/14 45/111/14 44/109/14
f 6/5/14 3/107/14 43/110/14 46/112/14
f 5/6/14 6/5/14 46/112/14 45/111/14
f 48/108/14 47/107/14 50/5/14 49/6/14
f 5/6/16 2/108/16 48/108/16 49/6/16
f 3/107/30 6/5/30 50/5/30 47/107/30
f 2/108/17 3/107/17 47/107/17 48/108/17
