# Blender 4.1.1
# www.blender.org
mtllib PlasBar.mtl
o Plane.014
v -1.022545 1.050000 -0.423552
v -0.979608 0.100000 -0.000000
v -0.782622 1.050000 -0.782622
v -0.905040 0.100000 0.374880
v -0.423552 1.050000 -1.022545
v -0.692688 0.100000 0.692688
v -0.000000 1.050000 -1.106794
v -0.374880 0.100000 0.905040
v 0.423551 1.050000 -1.022545
v 0.000000 0.100000 0.979608
v 0.782622 1.050000 -0.782622
v 0.374880 0.100000 0.905040
v 1.022545 1.050000 -0.423552
v 0.692688 0.100000 0.692688
v 1.106794 1.050000 -0.000000
v 0.905040 0.100000 0.374880
v 1.022545 1.050000 0.423552
v 0.979608 0.100000 -0.000000
v 0.782622 1.050000 0.782622
v 0.905040 0.100000 -0.374880
v 0.423552 1.050000 1.022545
v 0.692687 0.100000 -0.692688
v 0.000000 1.050000 1.106794
v 0.374880 0.100000 -0.905040
v -0.423552 1.050000 1.022545
v -0.000000 0.100000 -0.979608
v -0.782622 1.050000 0.782622
v -0.374880 0.100000 -0.905040
v -1.022545 1.050000 0.423552
v -0.692688 0.100000 -0.692687
v -1.106794 1.050000 -0.000000
v -0.905040 0.100000 -0.374880
v -1.151849 2.450000 0.000000
v -1.064169 2.450000 0.440794
v -0.814480 2.450000 0.814480
v -0.440794 2.450000 1.064170
v 0.000000 2.450000 1.151849
v 0.440794 2.450000 1.064170
v 0.814480 2.450000 0.814480
v 1.064170 2.450000 0.440793
v 1.151849 2.450000 -0.000000
v 1.064170 2.450000 -0.440793
v 0.814480 2.450000 -0.814480
v 0.440793 2.450000 -1.064170
v -0.000000 2.450000 -1.151849
v -0.440794 2.450000 -1.064169
v -0.814480 2.450000 -0.814480
v -1.064170 2.450000 -0.440793
v -0.979608 3.150000 -0.000000
v -0.905040 3.150000 0.374880
v -0.692688 3.150000 0.692688
v -0.374880 3.150000 0.905040
v 0.000000 3.150000 0.979608
v 0.374880 3.150000 0.905040
v 0.692688 3.150000 0.692688
v 0.905040 3.150000 0.374880
v 0.979608 3.150000 -0.000000
v 0.905040 3.150000 -0.374880
v 0.692687 3.150000 -0.692688
v 0.374880 3.150000 -0.905040
v -0.000000 3.150000 -0.979608
v -0.374880 3.150000 -0.905040
v -0.692688 3.150000 -0.692687
v -0.905040 3.150000 -0.374880
v -0.979608 3.200000 -0.000000
v -0.905040 3.200000 0.374880
v -0.692688 3.200000 0.692688
v -0.374880 3.200000 0.905040
v 0.000000 3.200000 0.979608
v 0.374880 3.200000 0.905040
v 0.692688 3.200000 0.692688
v 0.905040 3.200000 0.374880
v 0.979608 3.200000 -0.000000
v 0.905040 3.200000 -0.374880
v 0.692687 3.200000 -0.692688
v 0.374880 3.200000 -0.905040
v -0.000000 3.200000 -0.979608
v -0.374880 3.200000 -0.905040
v -0.692688 3.200000 -0.692687
v -0.905040 3.200000 -0.374880
v -1.106127 3.300000 -0.000000
v -1.021928 3.300000 0.423296
v -0.782150 3.300000 0.782150
v -0.423296 3.300000 1.021928
v 0.000000 3.300000 1.106127
v 0.423297 3.300000 1.021928
v 0.782150 3.300000 0.782150
v 1.021928 3.300000 0.423296
v 1.106127 3.300000 -0.000000
v 1.021928 3.300000 -0.423296
v 0.782150 3.300000 -0.782150
v 0.423296 3.300000 -1.021928
v -0.000000 3.300000 -1.106127
v -0.423297 3.300000 -1.021928
v -0.782150 3.300000 -0.782149
v -1.021928 3.300000 -0.423296
v -1.085735 3.400000 -0.000000
v -1.106127 3.380000 -0.000000
v -1.021928 3.380000 0.423296
v -1.003088 3.400000 0.415493
v -0.782150 3.380000 0.782150
v -0.767730 3.400000 0.767731
v -0.423296 3.380000 1.021928
v -0.415493 3.400000 1.003088
v 0.000000 3.380000 1.106127
v 0.000000 3.400000 1.085735
v 0.423297 3.380000 1.021928
v 0.415493 3.400000 1.003088
v 0.782150 3.380000 0.782150
v 0.767731 3.400000 0.767731
v 1.021928 3.380000 0.423296
v 1.003089 3.400000 0.415493
v 1.106127 3.380000 -0.000000
v 1.085735 3.400000 -0.000000
v 1.021928 3.380000 -0.423296
v 1.003088 3.400000 -0.415493
v 0.782150 3.380000 -0.782150
v 0.767730 3.400000 -0.767731
v 0.423296 3.380000 -1.021928
v 0.415492 3.400000 -1.003089
v 0.000000 3.380000 -1.106127
v 0.000000 3.400000 -1.085735
v -0.423297 3.380000 -1.021928
v -0.415493 3.400000 -1.003088
v -0.782150 3.380000 -0.782149
v -0.767731 3.400000 -0.767730
v -1.003088 3.400000 -0.415493
v -1.021928 3.380000 -0.423296
v -0.959216 0.000000 -0.000000
v -0.979608 0.020000 -0.000000
v -0.905040 0.020000 0.374880
v -0.886200 0.000000 0.367076
v -0.692688 0.020000 0.692688
v -0.678268 0.000000 0.678268
v -0.374880 0.020000 0.905040
v -0.367076 0.000000 0.886200
v 0.000000 0.020000 0.979608
v 0.000000 0.000000 0.959216
v 0.374880 0.020000 0.905040
v 0.367076 0.000000 0.886200
v 0.692688 0.020000 0.692688
v 0.678268 0.000000 0.678268
v 0.905040 0.020000 0.374880
v 0.886200 0.000000 0.367076
v 0.979608 0.020000 -0.000000
v 0.959216 0.000000 -0.000000
v 0.905040 0.020000 -0.374880
v 0.886200 0.000000 -0.367076
v 0.692687 0.020000 -0.692688
v 0.678268 0.000000 -0.678268
v 0.374880 0.020000 -0.905040
v 0.367076 0.000000 -0.886200
v -0.000000 0.020000 -0.979608
v -0.000000 0.000000 -0.959216
v -0.374880 0.020000 -0.905040
v -0.367076 0.000000 -0.886200
v -0.692688 0.020000 -0.692687
v -0.678269 0.000000 -0.678268
v -0.886200 0.000000 -0.367076
v -0.905040 0.020000 -0.374880
v -0.886200 0.050000 0.367076
v -0.959216 0.050000 -0.000000
v -0.678268 0.050000 0.678268
v -0.367076 0.050000 0.886200
v 0.000000 0.050000 0.959216
v 0.367076 0.050000 0.886200
v 0.678268 0.050000 0.678268
v 0.886200 0.050000 0.367076
v 0.959216 0.050000 -0.000000
v 0.886200 0.050000 -0.367076
v 0.678268 0.050000 -0.678268
v 0.367076 0.050000 -0.886200
v -0.000000 0.050000 -0.959216
v -0.367076 0.050000 -0.886200
v -0.678269 0.050000 -0.678268
v -0.886200 0.050000 -0.367076
vn 0.3825 0.0322 -0.9234
vn 0.7067 0.0322 -0.7067
vn 0.3825 0.0322 0.9234
vn -0.0000 0.0322 0.9995
vn 0.9234 0.0322 -0.3825
vn -0.9234 0.0322 -0.3825
vn -0.7067 0.0322 -0.7067
vn -0.0000 0.0322 -0.9995
vn 0.9995 0.0322 -0.0000
vn -0.7009 0.1327 -0.7009
vn -0.3793 0.1327 -0.9157
vn -0.0000 0.1327 -0.9912
vn 0.3793 0.1327 -0.9157
vn 0.7009 0.1327 -0.7009
vn 0.9157 0.1327 -0.3793
vn 0.9157 0.1327 0.3793
vn 0.7009 0.1327 0.7009
vn -0.9912 0.1327 -0.0000
vn -0.9157 0.1327 -0.3793
vn 0.3793 0.1327 0.9157
vn -0.3825 0.0322 -0.9234
vn -0.3825 0.0322 0.9234
vn -0.7067 0.0322 0.7067
vn -0.9995 0.0322 -0.0000
vn -0.9234 0.0322 0.3825
vn 0.9234 0.0322 0.3825
vn 0.7067 0.0322 0.7067
vn -0.0000 -1.0000 -0.0000
vn -0.0000 0.1327 0.9912
vn -0.3793 0.1327 0.9157
vn -0.7009 0.1327 0.7009
vn -0.9157 0.1327 0.3793
vn 0.9912 0.1327 -0.0000
vn 0.9239 -0.0000 -0.3827
vn 0.7071 -0.0000 -0.7071
vn 0.6866 0.2389 -0.6866
vn 0.8971 0.2389 -0.3716
vn -0.6866 0.2389 -0.6866
vn -0.8971 0.2389 -0.3716
vn 0.3716 0.2389 -0.8971
vn -0.3716 0.2389 -0.8971
vn -0.0000 0.2389 -0.9710
vn 0.9710 0.2389 -0.0000
vn 0.8971 0.2389 0.3716
vn 0.6866 0.2389 0.6866
vn 0.3716 0.2389 0.8971
vn -0.0000 0.2389 0.9710
vn -0.3716 0.2389 0.8971
vn -0.6866 0.2389 0.6866
vn -0.8971 0.2389 0.3716
vn -0.9710 0.2389 -0.0000
vn -0.5729 -0.7845 -0.2373
vn -0.6201 -0.7845 -0.0000
vn -0.7071 -0.0000 0.7071
vn -0.3827 -0.0000 0.9239
vn 0.3827 -0.0000 -0.9239
vn -0.0000 -0.0000 1.0000
vn -0.0000 -0.0000 -1.0000
vn 0.3827 -0.0000 0.9239
vn -0.3827 -0.0000 -0.9239
vn 0.7071 -0.0000 0.7071
vn -0.7071 -0.0000 -0.7071
vn 0.9239 -0.0000 0.3827
vn -0.9239 -0.0000 -0.3827
vn -1.0000 -0.0000 -0.0000
vn 1.0000 -0.0000 -0.0000
vn -0.9239 -0.0000 0.3827
vn 0.5729 -0.7845 0.2373
vn 0.6201 -0.7845 -0.0000
vn -0.5729 -0.7845 0.2373
vn -0.4385 -0.7845 -0.4385
vn 0.5729 -0.7845 -0.2373
vn -0.4385 -0.7845 0.4385
vn 0.4385 -0.7845 -0.4385
vn -0.2373 -0.7845 0.5729
vn 0.2373 -0.7845 -0.5729
vn -0.0000 -0.7845 0.6201
vn -0.0000 -0.7845 -0.6201
vn 0.2373 -0.7845 0.5729
vn -0.2373 -0.7845 -0.5729
vn 0.4385 -0.7845 0.4385
vn -0.0000 1.0000 -0.0000
vn -0.6469 0.7139 0.2680
vn -0.7002 0.7139 -0.0000
vn -0.4951 0.7139 0.4951
vn -0.2680 0.7139 0.6469
vn -0.0000 0.7139 0.7002
vn 0.2680 0.7139 0.6469
vn 0.4951 0.7139 0.4951
vn 0.6469 0.7139 0.2680
vn 0.7002 0.7139 -0.0000
vn 0.6469 0.7139 -0.2680
vn 0.4951 0.7139 -0.4951
vn 0.2680 0.7139 -0.6469
vn -0.0000 0.7139 -0.7002
vn -0.2680 0.7139 -0.6469
vn -0.4951 0.7139 -0.4951
vn -0.6469 0.7139 -0.2680
vt 0.607775 0.506414
vt 0.551209 0.508029
vt 0.546913 0.309573
vt 0.605781 0.307892
vt 0.486050 0.506414
vt 0.424818 0.506183
vt 0.424319 0.307652
vt 0.488044 0.307892
vt 0.995435 0.509801
vt 0.952127 0.507373
vt 0.954929 0.308890
vt 1.000000 0.311418
vt 0.047872 0.827742
vt 0.004565 0.830170
vt -0.000000 0.631787
vt 0.045070 0.629259
vt 0.669007 0.506183
vt 0.669506 0.307652
vt 0.895551 0.506183
vt 0.896050 0.307652
vt 0.754405 0.644917
vt 0.716074 0.642768
vt 0.725584 0.507373
vt 0.768892 0.509801
vt 0.665999 0.641715
vt 0.611803 0.641919
vt 0.561738 0.643349
vt 0.980949 0.644917
vt 0.942618 0.642768
vt 0.838347 0.641919
vt 0.788281 0.643349
vt 0.777753 0.508029
vt 0.834319 0.506414
vt 0.107457 0.962084
vt 0.057382 0.963137
vt 0.104449 0.826552
vt 0.019051 0.965286
vt 0.532088 0.643349
vt 0.482022 0.641919
vt 0.542616 0.508029
vt 0.728386 0.308890
vt 0.368242 0.507373
vt 0.324934 0.509801
vt 0.320369 0.311418
vt 0.365440 0.308890
vt 0.103950 0.628021
vt 0.222247 0.828398
vt 0.165681 0.826783
vt 0.167675 0.628261
vt 0.226544 0.629942
vt 0.773456 0.309573
vt 0.832325 0.307892
vt 0.320369 0.128322
vt 0.320369 0.192047
vt 0.295982 0.250922
vt 0.250922 0.295982
vt 0.192047 0.320369
vt 0.128322 0.320369
vt 0.069447 0.295982
vt 0.024387 0.250922
vt 0.000000 0.192047
vt 0.000000 0.128322
vt 0.024387 0.069447
vt 0.069447 0.024387
vt 0.128322 0.000000
vt 0.192047 0.000000
vt 0.250922 0.024387
vt 0.295982 0.069447
vt 0.427826 0.641715
vt 0.377751 0.642768
vt 0.339420 0.644917
vt 0.211719 0.963718
vt 0.161653 0.962288
vt 0.892543 0.641715
vt 0.773456 0.311418
vt 0.531693 0.713703
vt 0.533530 0.675356
vt 0.540606 0.675272
vt 0.538769 0.713619
vt 0.433407 0.656240
vt 0.431246 0.701330
vt 0.657801 0.675356
vt 0.757924 0.656240
vt 0.760085 0.701330
vt 0.659639 0.713703
vt 0.543525 0.882791
vt 0.541365 0.823938
vt 0.641811 0.817977
vt 0.643649 0.868030
vt 0.541365 0.701330
vt 0.641811 0.713703
vt 0.641166 0.763785
vt 0.540606 0.760217
vt 0.543525 0.656240
vt 0.643649 0.675356
vt 0.531047 0.763785
vt 0.430488 0.760217
vt 0.531693 0.817977
vt 0.431246 0.823938
vt 0.533530 0.868030
vt 0.433407 0.882791
vt 0.427569 0.882791
vt 0.327445 0.868030
vt 0.329283 0.817977
vt 0.429729 0.823938
vt 0.329928 0.763785
vt 0.430488 0.760217
vt 0.329283 0.713703
vt 0.429729 0.701330
vt 0.327445 0.675356
vt 0.427569 0.656240
vt 0.757924 0.882791
vt 0.657801 0.868030
vt 0.659639 0.817977
vt 0.760085 0.823938
vt 0.760844 0.760217
vt 0.660284 0.763785
vt 0.230995 0.358704
vt 0.180924 0.337964
vt 0.184424 0.320369
vt 0.240962 0.343788
vt 0.322206 0.713619
vt 0.320369 0.675272
vt 0.648888 0.817893
vt 0.650725 0.867946
vt 0.322852 0.763701
vt 0.648242 0.763701
vt 0.322206 0.817893
vt 0.648888 0.713619
vt 0.320369 0.867946
vt 0.650725 0.675272
vt 0.538769 0.817893
vt 0.540606 0.867946
vt 0.653208 0.763701
vt 0.652562 0.713619
vt 0.538124 0.763701
vt 0.652562 0.817893
vt 0.650725 0.675272
vt 0.650725 0.867946
vt 0.789861 0.817337
vt 0.788110 0.873865
vt 0.776787 0.873795
vt 0.778538 0.817267
vt 0.076657 0.589687
vt 0.126728 0.610427
vt 0.123228 0.628021
vt 0.066691 0.604603
vt 0.126728 0.337964
vt 0.123228 0.320369
vt 0.269318 0.397026
vt 0.284234 0.387060
vt 0.180924 0.610427
vt 0.184424 0.628021
vt 0.076657 0.358704
vt 0.066691 0.343788
vt 0.230995 0.589687
vt 0.240962 0.604603
vt 0.038335 0.397026
vt 0.023419 0.387060
vt 0.269318 0.551364
vt 0.284234 0.561330
vt 0.017595 0.447097
vt 0.000000 0.443597
vt 0.290058 0.501293
vt 0.307652 0.504793
vt 0.017595 0.501293
vt 0.000000 0.504793
vt 0.290058 0.447097
vt 0.307652 0.443597
vt 0.038335 0.551364
vt 0.023419 0.561330
vt 0.803885 0.699597
vt 0.804937 0.756142
vt 0.793614 0.756072
vt 0.792562 0.699527
vt 0.761896 0.699597
vt 0.764219 0.656310
vt 0.775541 0.656240
vt 0.773219 0.699527
vt 0.807066 0.873865
vt 0.805315 0.817337
vt 0.816638 0.817267
vt 0.818389 0.873795
vt 0.801562 0.656310
vt 0.790239 0.656240
vt 0.804937 0.756142
vt 0.816260 0.756072
vt 0.804559 0.817337
vt 0.802808 0.873865
vt 0.791485 0.873795
vt 0.793236 0.817267
vt 0.805989 0.699597
vt 0.817312 0.699527
vt 0.444161 0.304816
vt 0.388666 0.281829
vt 0.346192 0.239355
vt 0.323205 0.183860
vt 0.323205 0.123792
vt 0.346192 0.068297
vt 0.388666 0.025823
vt 0.444161 0.002836
vt 0.504229 0.002836
vt 0.559724 0.025823
vt 0.602198 0.068297
vt 0.625185 0.123792
vt 0.625185 0.183860
vt 0.602198 0.239355
vt 0.559724 0.281829
vt 0.504229 0.304816
vt 0.808312 0.656310
vt 0.819635 0.656240
vt 0.786864 0.656310
vt 0.789187 0.699597
vt 0.777864 0.699527
vt 0.775541 0.656240
vt 0.762973 0.873865
vt 0.761222 0.817337
vt 0.772544 0.817267
vt 0.774295 0.873795
vt 0.790239 0.756142
vt 0.778916 0.756072
vt 0.760844 0.756142
vt 0.772166 0.756072
vt 0.790239 0.816684
vt 0.790610 0.756618
vt 0.320369 0.184424
vt 0.320369 0.123228
vt 0.343788 0.066691
vt 0.387060 0.023419
vt 0.775541 0.816684
vt 0.775912 0.756618
vt 0.443597 -0.000000
vt 0.504793 -0.000000
vt 0.561331 0.023419
vt 0.819264 0.756618
vt 0.819635 0.816684
vt 0.604603 0.066691
vt 0.628021 0.123228
vt 0.628021 0.184424
vt 0.604603 0.240962
vt 0.775170 0.756618
vt 0.775541 0.816684
vt 0.561331 0.284233
vt 0.504793 0.307652
vt 0.443597 0.307652
vt 0.387060 0.284234
vt 0.343788 0.240962
vt 0.377708 0.654090
vt 0.339378 0.656240
vt 0.666042 0.653038
vt 0.611846 0.653242
vt 0.427784 0.653038
vt 0.716117 0.654090
vt 0.481979 0.653242
vt 0.754448 0.656240
vt 0.532045 0.654671
vt 0.057339 0.974460
vt 0.019008 0.976609
vt 0.838390 0.653242
vt 0.788324 0.654671
vt 0.107414 0.973407
vt 0.942661 0.654091
vt 0.892585 0.653038
vt 0.161610 0.973611
vt 0.980991 0.656240
vt 0.211676 0.975041
vt 0.561780 0.654671
vt 0.272107 0.731724
vt 0.292415 0.780753
vt 0.290011 0.782359
vt 0.269271 0.732288
vt 0.272107 0.678656
vt 0.269271 0.678092
vt 0.292415 0.629628
vt 0.290011 0.628021
vt 0.665489 0.656040
vt 0.612421 0.656240
vt 0.256027 0.674190
vt 0.226544 0.630066
vt 0.228588 0.628021
vt 0.258698 0.673084
vt 0.266380 0.726239
vt 0.269271 0.726239
vt 0.256027 0.778287
vt 0.258698 0.779393
vt 0.226544 0.822411
vt 0.228588 0.824456
vt 0.161035 0.976609
vt 0.107967 0.976409
vt 0.312724 0.678656
vt 0.292415 0.629628
vt 0.294819 0.628021
vt 0.315559 0.678092
vt 0.312724 0.731724
vt 0.315559 0.732288
vt 0.292415 0.780753
vt 0.294820 0.782359
vt 0.481404 0.656240
vt 0.428336 0.656040
vt 0.851048 0.709395
vt 0.861401 0.761443
vt 0.858730 0.762550
vt 0.848157 0.709395
vt 0.892033 0.656040
vt 0.838965 0.656240
vt 0.858730 0.656240
vt 0.861401 0.657347
vt 0.826711 0.656324
vt 0.828510 0.693873
vt 0.821434 0.693789
vt 0.819635 0.656240
vt 0.628021 0.159930
vt 0.628021 0.106862
vt 0.648329 0.057833
vt 0.685854 0.020308
vt 0.734883 0.000000
vt 0.787951 0.000000
vt 0.836979 0.020308
vt 0.874504 0.057833
vt 0.894813 0.106862
vt 0.894813 0.159930
vt 0.874504 0.208958
vt 0.836979 0.246483
vt 0.787951 0.266791
vt 0.734883 0.266791
vt 0.685854 0.246483
vt 0.648330 0.208958
vt 0.311494 0.460106
vt 0.310862 0.407042
vt 0.317938 0.406957
vt 0.318570 0.460022
vt 0.829142 0.742913
vt 0.829774 0.693873
vt 0.836850 0.693789
vt 0.836218 0.742828
vt 0.848157 0.742913
vt 0.847525 0.795977
vt 0.840448 0.795893
vt 0.841080 0.742828
vt 0.828510 0.795977
vt 0.826711 0.844988
vt 0.819635 0.844903
vt 0.821434 0.795893
vt 0.831573 0.844988
vt 0.829774 0.795977
vt 0.836850 0.795893
vt 0.838649 0.844903
vt 0.845726 0.656324
vt 0.847525 0.693873
vt 0.840448 0.693789
vt 0.838649 0.656240
vt 0.822066 0.742828
vt 0.311494 0.358002
vt 0.318570 0.357918
vt 0.831573 0.656324
vt 0.838649 0.656240
vt 0.845726 0.844988
vt 0.838649 0.844903
vt 0.313293 0.509117
vt 0.320369 0.509032
vt 0.313293 0.320453
vt 0.320369 0.320369
s 1
usemtl Material.011
f 25/1/1 27/2/2 35/3/2 36/4/1
f 5/5/3 7/6/4 45/7/4 46/8/3
f 27/9/2 29/10/5 34/11/5 35/12/2
f 17/13/6 19/14/7 39/15/7 40/16/6
f 23/17/8 25/1/1 36/4/1 37/18/8
f 29/10/5 31/19/9 33/20/9 34/11/5
f 14/21/10 12/22/11 21/23/11 19/24/10
f 12/22/11 10/25/12 23/17/12 21/23/11
f 10/25/12 8/26/13 25/1/13 23/17/12
f 8/26/13 6/27/14 27/2/14 25/1/13
f 6/28/14 4/29/15 29/10/15 27/9/14
f 32/30/16 30/31/17 3/32/17 1/33/16
f 18/34/18 16/35/19 17/13/19 15/36/18
f 16/35/19 14/37/10 19/14/10 17/13/19
f 30/38/17 28/39/20 5/5/20 3/40/17
f 21/23/21 23/17/8 37/18/8 38/41/21
f 9/42/22 11/43/23 43/44/23 44/45/22
f 15/36/24 17/13/6 40/16/6 41/46/24
f 11/47/23 13/48/25 42/49/25 43/50/23
f 1/33/26 3/32/27 47/51/27 48/52/26
f 7/6/4 9/42/22 44/45/22 45/7/4
f 13/48/25 15/36/24 41/46/24 42/49/25
f 47/53/28 46/54/28 45/55/28 44/56/28 43/57/28 42/58/28 41/59/28 40/60/28 39/61/28 38/62/28 37/63/28 36/64/28 35/65/28 34/66/28 33/67/28 48/68/28
f 28/39/20 26/69/29 7/6/29 5/5/20
f 26/69/29 24/70/30 9/42/30 7/6/29
f 24/70/30 22/71/31 11/43/31 9/42/30
f 22/72/31 20/73/32 13/48/32 11/47/31
f 20/73/32 18/34/18 15/36/18 13/48/32
f 4/29/15 2/74/33 31/19/33 29/10/15
f 2/74/33 32/30/16 1/33/16 31/19/33
f 31/19/9 1/33/26 48/52/26 33/20/9
f 3/40/27 5/5/3 46/8/3 47/3/27
f 19/24/7 21/23/21 38/41/21 39/75/7
f 58/76/34 59/77/35 75/78/35 74/79/34
f 43/80/36 59/77/36 58/76/37 42/81/37
f 63/82/38 47/83/38 48/84/39 64/85/39
f 43/86/36 44/87/40 60/88/40 59/89/36
f 46/90/41 62/91/41 61/92/42 45/93/42
f 45/93/42 61/92/42 60/88/40 44/87/40
f 47/94/38 63/95/38 62/91/41 46/90/41
f 42/81/37 58/76/37 57/96/43 41/97/43
f 41/97/43 57/96/43 56/98/44 40/99/44
f 40/99/44 56/98/44 55/100/45 39/101/45
f 39/102/45 55/103/45 54/104/46 38/105/46
f 38/105/46 54/104/46 53/106/47 37/107/47
f 37/107/47 53/106/47 52/108/48 36/109/48
f 36/109/48 52/108/48 51/110/49 35/111/49
f 35/112/49 51/113/49 50/114/50 34/115/50
f 33/116/51 49/117/51 64/85/39 48/84/39
f 34/115/50 50/114/50 49/117/51 33/116/51
f 80/118/52 65/119/53 81/120/53 96/121/52
f 51/110/54 52/108/55 68/122/55 67/123/54
f 59/89/35 60/88/56 76/124/56 75/125/35
f 52/108/55 53/106/57 69/126/57 68/122/55
f 60/88/56 61/92/58 77/127/58 76/124/56
f 53/106/57 54/104/59 70/128/59 69/126/57
f 61/92/58 62/91/60 78/129/60 77/127/58
f 54/104/59 55/103/61 71/130/61 70/128/59
f 62/91/60 63/95/62 79/131/62 78/129/60
f 55/100/61 56/98/63 72/132/63 71/133/61
f 64/85/64 49/117/65 65/134/65 80/135/64
f 56/98/63 57/96/66 73/136/66 72/132/63
f 49/117/65 50/114/67 66/137/67 65/134/65
f 63/82/62 64/85/64 80/135/64 79/138/62
f 57/96/66 58/76/34 74/79/34 73/136/66
f 50/114/67 51/113/54 67/139/54 66/137/67
f 86/140/59 87/141/61 109/142/61 107/143/59
f 72/144/68 73/145/69 89/146/69 88/147/68
f 65/119/53 66/148/70 82/149/70 81/120/53
f 79/150/71 80/118/52 96/121/52 95/151/71
f 73/145/69 74/152/72 90/153/72 89/146/69
f 66/148/70 67/154/73 83/155/73 82/149/70
f 74/152/72 75/156/74 91/157/74 90/153/72
f 67/154/73 68/158/75 84/159/75 83/155/73
f 75/156/74 76/160/76 92/161/76 91/157/74
f 68/158/75 69/162/77 85/163/77 84/159/75
f 76/160/76 77/164/78 93/165/78 92/161/76
f 69/162/77 70/166/79 86/167/79 85/163/77
f 77/164/78 78/168/80 94/169/80 93/165/78
f 70/166/79 71/170/81 87/171/81 86/167/79
f 78/168/80 79/150/71 95/151/71 94/169/80
f 71/170/81 72/144/68 88/147/68 87/171/81
f 96/172/64 81/173/65 98/174/65 128/175/64
f 94/176/60 95/177/62 125/178/62 123/179/60
f 87/180/61 88/181/63 111/182/63 109/183/61
f 95/184/62 96/172/64 128/175/64 125/185/62
f 88/181/63 89/186/66 113/187/66 111/182/63
f 82/188/67 83/189/54 101/190/54 99/191/67
f 89/186/66 90/192/34 115/193/34 113/187/66
f 126/194/82 127/195/82 97/196/82 100/197/82 102/198/82 104/199/82 106/200/82 108/201/82 110/202/82 112/203/82 114/204/82 116/205/82 118/206/82 120/207/82 122/208/82 124/209/82
f 90/192/34 91/210/35 117/211/35 115/193/34
f 83/212/54 84/213/55 103/214/55 101/215/54
f 91/216/35 92/217/56 119/218/56 117/219/35
f 84/213/55 85/220/57 105/221/57 103/214/55
f 92/217/56 93/222/58 121/223/58 119/218/56
f 85/220/57 86/140/59 107/143/59 105/221/57
f 93/222/58 94/176/60 123/179/60 121/223/58
f 100/224/83 97/225/84 98/174/84 99/191/83
f 102/198/85 100/197/83 99/226/83 101/227/85
f 104/199/86 102/198/85 101/227/85 103/228/86
f 106/200/87 104/199/86 103/228/86 105/229/87
f 108/230/88 106/231/87 105/221/87 107/143/88
f 110/202/89 108/201/88 107/232/88 109/233/89
f 112/203/90 110/202/89 109/233/89 111/234/90
f 114/235/91 112/236/90 111/182/90 113/187/91
f 116/205/92 114/204/91 113/237/91 115/238/92
f 118/206/93 116/205/92 115/238/92 117/239/93
f 120/207/94 118/206/93 117/239/93 119/240/94
f 122/241/95 120/242/94 119/218/94 121/223/95
f 124/209/96 122/208/95 121/243/95 123/244/96
f 126/194/97 124/209/96 123/244/96 125/245/97
f 97/196/84 127/195/98 128/246/98 98/247/84
f 125/245/97 128/246/98 127/195/98 126/194/97
f 81/173/65 82/188/67 99/191/67 98/174/65
f 22/71/54 24/70/55 151/248/55 149/249/54
f 8/26/56 10/25/58 137/250/58 135/251/56
f 24/70/55 26/69/57 153/252/57 151/248/55
f 10/25/58 12/22/60 139/253/60 137/250/58
f 26/69/57 28/39/59 155/254/59 153/252/57
f 12/22/60 14/21/62 141/255/62 139/253/60
f 28/39/59 30/38/61 157/256/61 155/254/59
f 14/37/62 16/35/64 143/257/64 141/258/62
f 30/31/61 32/30/63 160/259/63 157/260/61
f 16/35/64 18/34/65 145/261/65 143/257/64
f 2/74/66 4/29/34 131/262/34 130/263/66
f 18/34/65 20/73/67 147/264/67 145/261/65
f 4/29/34 6/28/35 133/265/35 131/262/34
f 20/73/67 22/72/54 149/266/54 147/264/67
f 6/27/35 8/26/56 135/251/56 133/267/35
f 32/30/63 2/74/66 130/263/66 160/259/63
f 132/268/92 129/269/91 130/270/91 131/271/92
f 134/272/93 132/268/92 131/271/92 133/273/93
f 136/274/94 134/272/93 133/273/93 135/275/94
f 138/276/95 136/277/94 135/251/94 137/250/95
f 140/278/96 138/279/95 137/280/95 139/281/96
f 142/282/97 140/278/96 139/281/96 141/283/97
f 144/284/98 142/282/97 141/283/97 143/285/98
f 146/286/84 144/284/98 143/285/98 145/287/84
f 148/288/83 146/289/84 145/261/84 147/264/83
f 150/290/85 148/291/83 147/292/83 149/293/85
f 152/294/86 150/290/85 149/293/85 151/295/86
f 154/296/87 152/294/86 151/295/86 153/297/87
f 156/298/88 154/299/87 153/252/87 155/254/88
f 158/300/89 156/301/88 155/302/88 157/303/89
f 129/304/91 159/305/90 160/259/90 130/263/91
f 157/303/89 160/306/90 159/307/90 158/300/89
f 134/308/54 136/309/55 164/310/55 163/311/54
f 161/312/82 163/313/82 164/314/82 165/315/82 166/316/82 167/317/82 168/318/82 169/319/82 170/320/82 171/321/82 172/322/82 173/323/82 174/324/82 175/325/82 176/326/82 162/327/82
f 144/328/63 146/329/66 169/330/66 168/331/63
f 154/332/58 156/333/60 174/334/60 173/335/58
f 129/336/65 132/337/67 161/338/67 162/339/65
f 140/340/59 142/341/61 167/342/61 166/343/59
f 150/344/35 152/345/56 172/346/56 171/347/35
f 158/348/62 159/349/64 176/350/64 175/351/62
f 136/309/55 138/332/57 165/352/57 164/310/55
f 146/329/66 148/353/34 170/354/34 169/330/66
f 156/333/60 158/355/62 175/356/62 174/334/60
f 132/337/67 134/357/54 163/358/54 161/338/67
f 142/359/61 144/328/63 168/331/63 167/360/61
f 152/345/56 154/332/58 173/335/58 172/346/56
f 159/349/64 129/336/65 162/339/65 176/350/64
f 138/332/57 140/340/59 166/343/59 165/352/57
f 148/353/34 150/361/35 171/362/35 170/354/34
