# Blender 4.2.3 LTS
# www.blender.org
mtllib statue1.mtl
o Cube
v -2.689993 -0.605577 2.689993
v -2.365743 0.605577 2.365743
v -2.689993 -0.605577 -2.689993
v -2.365743 0.605577 -2.365743
v 2.689993 -0.605577 2.689993
v 2.365743 0.605577 2.365743
v 2.689993 -0.605577 -2.689993
v 2.365743 0.605577 -2.365743
v -2.689993 0.605577 2.689993
v -2.689993 0.605577 -2.689993
v 2.689993 0.605577 -2.689993
v 2.689993 0.605577 2.689993
v -2.114119 0.448713 2.114119
v -2.114119 0.448713 -2.114119
v 2.114119 0.448713 -2.114119
v 2.114119 0.448713 2.114119
v -2.365743 0.448713 2.365743
v -2.365743 0.448713 -2.365743
v 2.365743 0.448713 -2.365743
v 2.365743 0.448713 2.365743
v -2.114119 1.235553 2.114119
v -2.114119 1.235553 -2.114119
v 2.114119 1.235553 -2.114119
v 2.114119 1.235553 2.114119
v -2.643570 1.303347 2.643570
v -2.643570 1.303347 -2.643570
v 2.643570 1.303347 -2.643570
v 2.643570 1.303347 2.643570
v -2.643570 3.257617 2.643570
v -2.643570 3.257617 -2.643570
v 2.643570 3.352105 -2.223849
v 2.643570 3.352105 2.223849
v -1.159473 4.346237 1.159473
v -1.159473 4.346237 -1.159473
v 1.159473 4.346237 -1.159473
v 1.159473 4.346237 1.159473
v -2.643570 4.346237 2.643570
v -2.643570 4.346237 -2.643570
v 2.643570 4.251749 -2.223849
v 2.643570 4.251749 2.223849
v -1.159473 4.994273 1.159473
v -1.159473 4.994273 -1.159473
v 1.159473 4.994273 -1.159473
v 1.159473 4.994273 1.159473
v -1.159473 5.442969 1.159473
v -1.159473 5.442969 -1.159473
v 1.159473 5.442969 -1.159473
v 1.159473 5.442969 1.159473
v 3.303549 4.994273 -1.159473
v 3.303549 4.994273 1.159473
v 3.303549 5.442969 -1.159473
v 3.303549 5.442969 1.159473
v 3.475523 5.120705 -0.549356
v 3.475523 5.120705 0.549356
v 3.475523 5.316537 -0.549356
v 3.475523 5.316537 0.549356
v 3.475523 5.061067 -0.814270
v 3.475523 5.061067 0.814270
v 3.475523 5.376175 -0.814270
v 3.475523 5.376175 0.814270
v 3.600910 5.159841 -0.329781
v 3.600910 5.159841 0.329781
v 3.600910 5.277400 -0.329781
v 3.600910 5.277400 0.329781
v 3.797608 5.184120 -0.193565
v 3.797608 5.184120 0.193565
v 3.797608 5.253121 -0.193565
v 3.797608 5.253121 0.193565
v -1.159473 5.739161 1.159473
v -1.159473 5.739161 -1.159473
v 1.159473 5.739161 -1.159473
v 1.159473 5.739161 1.159473
v -3.551711 5.765810 3.551711
v -3.551711 5.765810 -3.551711
v 3.551711 5.765810 -3.551711
v 3.551711 5.765810 3.551711
v 2.643570 3.257617 -2.643570
v 2.643570 3.257617 2.643570
v 2.643570 4.346237 -2.643570
v 2.643570 4.346237 2.643570
v 3.270231 3.219542 0.561038
v 3.270231 4.325288 0.561038
v 3.270231 3.219542 -0.544708
v 3.270231 4.325288 -0.544708
v 4.375978 3.219542 0.561038
v 4.375978 4.325288 0.561038
v 4.375978 3.219542 -0.544708
v 4.375978 4.325288 -0.544708
vn -1.0000 -0.0000 -0.0000
vn -0.0000 -0.0000 -1.0000
vn 1.0000 -0.0000 -0.0000
vn -0.0000 -0.0000 1.0000
vn -0.0000 -1.0000 -0.0000
vn -0.0000 1.0000 -0.0000
vn -0.0000 -0.9919 -0.1270
vn 0.1270 -0.9919 -0.0000
vn -0.1270 -0.9919 -0.0000
vn -0.0000 -0.9919 0.1270
vn 0.3620 0.9322 -0.0000
vn 0.8684 -0.0000 0.4959
vn 0.8951 -0.0000 -0.4459
vn 0.3620 -0.9322 -0.0000
vn 0.8951 -0.0000 0.4459
vn 0.5693 -0.0000 -0.8221
vn 0.2980 0.9546 -0.0000
vn 0.8684 -0.0000 -0.4959
vn 0.2979 -0.9546 -0.0000
vn 0.1225 -0.9925 -0.0000
vn 0.5693 -0.0000 0.8221
vn 0.1225 0.9925 -0.0000
vn -0.0000 -0.9999 0.0111
vn -0.0000 -0.9999 -0.0111
vn 0.0111 -0.9999 -0.0000
vn -0.0111 -0.9999 -0.0000
vt 0.375000 0.000000
vt 0.625000 0.000000
vt 0.625000 0.250000
vt 0.375000 0.250000
vt 0.625000 0.500000
vt 0.375000 0.500000
vt 0.625000 0.750000
vt 0.375000 0.750000
vt 0.625000 1.000000
vt 0.375000 1.000000
vt 0.125000 0.500000
vt 0.125000 0.750000
vt 0.640067 0.734933
vt 0.640067 0.515067
vt 0.859933 0.734933
vt 0.859933 0.515067
vt 0.875000 0.500000
vt 0.875000 0.750000
vt 0.848240 0.723240
vt 0.651760 0.723240
vt 0.848240 0.526760
vt 0.651760 0.526760
vt 0.651760 0.707642
vt 0.651760 0.542358
vt 0.651760 0.542358
vt 0.651760 0.707642
vt 0.793088 0.668088
vt 0.706912 0.668088
vt 0.793088 0.581912
vt 0.706912 0.581912
vt 0.706912 0.654070
vt 0.706912 0.654070
vt 0.706912 0.595930
vt 0.706912 0.595930
s 0
f 1/1/1 9/2/1 10/3/1 3/4/1
f 3/4/2 10/3/2 11/5/2 7/6/2
f 7/6/3 11/5/3 12/7/3 5/8/3
f 5/8/4 12/7/4 9/9/4 1/10/4
f 3/11/5 7/6/5 5/8/5 1/12/5
f 6/13/1 8/14/1 19/14/1 20/13/1
f 2/15/6 4/16/6 10/17/6 9/18/6
f 4/16/6 8/14/6 11/5/6 10/17/6
f 8/14/6 6/13/6 12/7/6 11/5/6
f 6/13/6 2/15/6 9/18/6 12/7/6
f 13/19/4 16/20/4 24/20/4 21/19/4
f 4/16/3 2/15/3 17/15/3 18/16/3
f 2/15/2 6/13/2 20/13/2 17/15/2
f 8/14/4 4/16/4 18/16/4 19/14/4
f 13/19/6 14/21/6 18/16/6 17/15/6
f 14/21/6 15/22/6 19/14/6 18/16/6
f 15/22/6 16/20/6 20/13/6 19/14/6
f 16/20/6 13/19/6 17/15/6 20/13/6
f 23/22/7 22/21/7 26/21/7 27/22/7
f 15/22/2 14/21/2 22/21/2 23/22/2
f 16/20/3 15/22/3 23/22/3 24/20/3
f 14/21/1 13/19/1 21/19/1 22/21/1
f 28/20/3 27/22/3 77/22/3 78/20/3
f 24/20/8 23/22/8 27/22/8 28/20/8
f 22/21/9 21/19/9 25/19/9 26/21/9
f 21/19/10 24/20/10 28/20/10 25/19/10
f 32/23/3 31/24/3 39/25/3 40/26/3
f 26/21/1 25/19/1 29/19/1 30/21/1
f 25/19/4 28/20/4 78/20/4 29/19/4
f 27/22/2 26/21/2 30/21/2 77/22/2
f 33/27/4 36/28/4 44/28/4 41/27/4
f 30/21/1 29/19/1 37/19/1 38/21/1
f 29/19/4 78/20/4 80/20/4 37/19/4
f 77/22/2 30/21/2 38/21/2 79/22/2
f 33/27/6 34/29/6 38/21/6 37/19/6
f 34/29/6 35/30/6 79/22/6 38/21/6
f 35/30/6 36/28/6 80/20/6 79/22/6
f 36/28/6 33/27/6 37/19/6 80/20/6
f 44/28/5 43/30/5 49/30/5 50/28/5
f 35/30/2 34/29/2 42/29/2 43/30/2
f 36/28/3 35/30/3 43/30/3 44/28/3
f 34/29/1 33/27/1 41/27/1 42/29/1
f 45/27/4 48/28/4 72/28/4 69/27/4
f 42/29/1 41/27/1 45/27/1 46/29/1
f 41/27/4 44/28/4 48/28/4 45/27/4
f 43/30/2 42/29/2 46/29/2 47/30/2
f 51/30/11 52/28/11 60/28/11 59/30/11
f 48/28/4 44/28/4 50/28/4 52/28/4
f 43/30/2 47/30/2 51/30/2 49/30/2
f 47/30/6 48/28/6 52/28/6 51/30/6
f 56/31/12 54/32/12 62/32/12 64/31/12
f 49/30/13 51/30/13 59/30/13 57/30/13
f 50/28/14 49/30/14 57/30/14 58/28/14
f 52/28/15 50/28/15 58/28/15 60/28/15
f 53/33/3 54/32/3 58/28/3 57/30/3
f 56/31/3 55/34/3 59/30/3 60/28/3
f 55/34/3 53/33/3 57/30/3 59/30/3
f 54/32/3 56/31/3 60/28/3 58/28/3
f 61/33/16 63/34/16 67/34/16 65/33/16
f 55/34/17 56/31/17 64/31/17 63/34/17
f 53/33/18 55/34/18 63/34/18 61/33/18
f 54/32/19 53/33/19 61/33/19 62/32/19
f 66/32/3 65/33/3 67/34/3 68/31/3
f 62/32/20 61/33/20 65/33/20 66/32/20
f 64/31/21 62/32/21 66/32/21 68/31/21
f 63/34/22 64/31/22 68/31/22 67/34/22
f 69/27/23 72/28/23 76/28/23 73/27/23
f 47/30/2 46/29/2 70/29/2 71/30/2
f 48/28/3 47/30/3 71/30/3 72/28/3
f 46/29/1 45/27/1 69/27/1 70/29/1
f 75/30/6 74/29/6 73/27/6 76/28/6
f 71/30/24 70/29/24 74/29/24 75/30/24
f 72/28/25 71/30/25 75/30/25 76/28/25
f 70/29/26 69/27/26 73/27/26 74/29/26
f 31/24/3 32/23/3 78/20/3 77/22/3
f 40/26/3 39/25/3 79/22/3 80/20/3
f 39/25/3 31/24/3 77/22/3 79/22/3
f 32/23/3 40/26/3 80/20/3 78/20/3
f 81/1/1 82/2/1 84/3/1 83/4/1
f 83/4/2 84/3/2 88/5/2 87/6/2
f 87/6/3 88/5/3 86/7/3 85/8/3
f 85/8/4 86/7/4 82/9/4 81/10/4
f 83/11/5 87/6/5 85/8/5 81/12/5
f 88/5/6 84/17/6 82/18/6 86/7/6
