# Blender 4.2.3 LTS
# www.blender.org
mtllib statue2.mtl
o Cube
v -2.689993 -0.605577 2.689993
v -2.365743 0.605577 2.365743
v -2.689993 -0.605577 -2.689993
v -2.365743 0.605577 -2.365743
v 2.689993 -0.605577 2.689993
v 2.365743 0.605577 2.365743
v 2.689993 -0.605577 -2.689993
v 2.365743 0.605577 -2.365743
v -2.689993 0.605577 2.689993
v -2.689993 0.605577 -2.689993
v 2.689993 0.605577 -2.689993
v 2.689993 0.605577 2.689993
v -2.114119 0.448713 2.114119
v -2.114119 0.448713 -2.114119
v 2.114119 0.448713 -2.114119
v 2.114119 0.448713 2.114119
v -2.365743 0.448713 2.365743
v -2.365743 0.448713 -2.365743
v 2.365743 0.448713 -2.365743
v 2.365743 0.448713 2.365743
v -2.114119 1.235553 2.114119
v -2.114119 1.235553 -2.114119
v 2.114119 1.235553 -2.114119
v 2.114119 1.235553 2.114119
v -2.643570 1.303347 2.643570
v -2.643570 1.303347 -2.643570
v 2.643570 1.303347 -2.643570
v 2.643570 1.303347 2.643570
v -2.643570 3.257617 2.643570
v -2.643570 3.257617 -2.643570
v 2.643570 3.352105 -2.223849
v 2.643570 3.352105 2.223849
v -1.159473 4.346237 1.159473
v -1.159473 4.346237 -1.159473
v 1.159473 4.346237 -1.159473
v 1.159473 4.346237 1.159473
v -2.643570 4.346237 2.643570
v -2.643570 4.346237 -2.643570
v 2.643570 4.251749 -2.223849
v 2.643570 4.251749 2.223849
v -1.159473 4.994273 1.159473
v -1.159473 4.994273 -1.159473
v 1.159473 4.994273 -1.159473
v 1.159473 4.994273 1.159473
v -1.159473 5.442969 1.159473
v -1.159473 5.442969 -1.159473
v 1.159473 5.442969 -1.159473
v 1.159473 5.442969 1.159473
v 3.303549 4.994273 -1.159473
v 3.303549 4.994273 1.159473
v 3.303549 5.442969 -1.159473
v 3.303549 5.442969 1.159473
v 3.475523 5.120705 -0.549356
v 3.475523 5.120705 0.549356
v 3.475523 5.316537 -0.549356
v 3.475523 5.316537 0.549356
v 3.475523 5.061067 -0.814270
v 3.475523 5.061067 0.814270
v 3.475523 5.376175 -0.814270
v 3.475523 5.376175 0.814270
v 3.600910 5.159841 -0.329781
v 3.600910 5.159841 0.329781
v 3.600910 5.277400 -0.329781
v 3.600910 5.277400 0.329781
v 3.797608 5.184120 -0.193565
v 3.797608 5.184120 0.193565
v 3.797608 5.253121 -0.193565
v 3.797608 5.253121 0.193565
v -1.159473 5.739161 1.159473
v -1.159473 5.739161 -1.159473
v 1.159473 5.739161 -1.159473
v 1.159473 5.739161 1.159473
v -3.551711 5.765810 3.551711
v -3.551711 5.765810 -3.551711
v 3.551711 5.765810 -3.551711
v 3.551711 5.765810 3.551711
v 2.643570 3.257617 -2.643570
v 2.643570 3.257617 2.643570
v 2.643570 4.346237 -2.643570
v 2.643570 4.346237 2.643570
v 3.486565 4.219634 0.533890
v 4.486560 4.219635 0.858814
v 4.933779 3.325195 -0.517560
v 3.933784 3.325195 -0.842484
v 3.315746 3.325199 0.008165
v 3.933784 3.325195 0.858814
v 4.933779 3.325195 0.533890
v 4.210172 2.772415 0.008165
v 3.486565 4.219634 -0.517560
v 4.486560 4.219635 -0.842484
v 5.104598 4.219630 0.008165
v 4.210172 4.772415 0.008165
v 5.161230 3.772415 -0.300847
v 5.161230 3.772415 0.317178
v 4.473041 3.246677 -0.800847
v 3.521982 3.246678 -0.491832
v 4.047717 2.921760 -0.491830
v 3.521982 3.246678 0.508162
v 3.684442 2.921763 0.008165
v 4.635494 2.921761 -0.300846
v 5.060820 3.246679 0.008165
v 4.473041 3.246677 0.817177
v 4.635494 2.921761 0.317177
v 4.047717 2.921760 0.508160
v 4.210172 3.772415 1.008165
v 4.797958 3.772415 0.817182
v 3.259114 3.772415 0.317178
v 3.622386 3.772415 0.817182
v 3.622386 3.772415 -0.800852
v 3.259114 3.772415 -0.300847
v 4.797958 3.772415 -0.800852
v 4.210172 3.772415 -0.991835
v 4.898362 4.298151 0.508162
v 3.947303 4.298152 0.817177
v 3.359524 4.298151 0.008165
v 3.947303 4.298152 -0.800847
v 4.898362 4.298151 -0.491832
v 4.372627 4.623069 0.508160
v 4.735902 4.623066 0.008165
v 3.784849 4.623069 0.317177
v 3.784849 4.623069 -0.300846
v 4.372627 4.623069 -0.491830
vn -1.0000 -0.0000 -0.0000
vn -0.0000 -0.0000 -1.0000
vn 1.0000 -0.0000 -0.0000
vn -0.0000 -0.0000 1.0000
vn -0.0000 -1.0000 -0.0000
vn -0.0000 1.0000 -0.0000
vn -0.0000 -0.9919 -0.1270
vn 0.1270 -0.9919 -0.0000
vn -0.1270 -0.9919 -0.0000
vn -0.0000 -0.9919 0.1270
vn 0.3620 0.9322 -0.0000
vn 0.8684 -0.0000 0.4959
vn 0.8951 -0.0000 -0.4459
vn 0.3620 -0.9322 -0.0000
vn 0.8951 -0.0000 0.4459
vn 0.5693 -0.0000 -0.8221
vn 0.2980 0.9546 -0.0000
vn 0.8684 -0.0000 -0.4959
vn 0.2979 -0.9546 -0.0000
vn 0.1225 -0.9925 -0.0000
vn 0.5693 -0.0000 0.8221
vn 0.1225 0.9925 -0.0000
vn -0.0000 -0.9999 0.0111
vn -0.0000 -0.9999 -0.0111
vn 0.0111 -0.9999 -0.0000
vn -0.0111 -0.9999 -0.0000
vn 0.9050 -0.3304 0.2680
vn 0.1024 -0.9435 -0.3151
vn -0.2680 -0.9435 -0.1947
vn -0.2680 -0.9435 0.1947
vn 0.7002 -0.6617 0.2680
vn 0.1024 -0.9435 0.3151
vn 0.0247 -0.3304 0.9435
vn -0.8897 -0.3304 0.3151
vn -0.5746 -0.3304 -0.7488
vn 0.5346 -0.3304 -0.7779
vn 0.8026 -0.1256 0.5831
vn -0.3066 -0.1256 0.9435
vn -0.9921 -0.1256 -0.0000
vn -0.3066 -0.1256 -0.9435
vn 0.8026 -0.1256 -0.5831
vn 0.4089 0.6617 0.6284
vn -0.4713 0.6617 0.5831
vn -0.7002 0.6617 -0.2680
vn 0.0385 0.6617 -0.7488
vn 0.7240 0.6617 -0.1947
vn 0.2680 0.9435 -0.1947
vn 0.4911 0.7947 -0.3568
vn 0.4089 0.6617 -0.6284
vn -0.1024 0.9435 -0.3151
vn -0.1876 0.7947 -0.5773
vn -0.4713 0.6617 -0.5831
vn -0.3313 0.9435 -0.0000
vn -0.6071 0.7947 -0.0000
vn -0.7002 0.6617 0.2680
vn -0.1024 0.9435 0.3151
vn -0.1876 0.7947 0.5773
vn 0.0385 0.6617 0.7488
vn 0.2680 0.9435 0.1947
vn 0.4911 0.7947 0.3568
vn 0.7240 0.6617 0.1947
vn 0.8897 0.3304 -0.3151
vn 0.7947 0.1876 -0.5773
vn 0.5746 0.3304 -0.7488
vn -0.0247 0.3304 -0.9435
vn -0.3035 0.1876 -0.9342
vn -0.5346 0.3304 -0.7779
vn -0.9050 0.3304 -0.2680
vn -0.9822 0.1876 -0.0000
vn -0.9050 0.3304 0.2680
vn -0.5346 0.3304 0.7779
vn -0.3035 0.1876 0.9342
vn -0.0247 0.3304 0.9435
vn 0.5746 0.3304 0.7488
vn 0.7947 0.1876 0.5773
vn 0.8897 0.3304 0.3151
vn 0.3066 0.1256 -0.9435
vn 0.3035 -0.1876 -0.9342
vn 0.0247 -0.3304 -0.9435
vn -0.8026 0.1256 -0.5831
vn -0.7947 -0.1876 -0.5773
vn -0.8897 -0.3304 -0.3151
vn -0.8026 0.1256 0.5831
vn -0.7947 -0.1876 0.5773
vn -0.5746 -0.3304 0.7488
vn 0.3066 0.1256 0.9435
vn 0.3035 -0.1876 0.9342
vn 0.5346 -0.3304 0.7779
vn -0.0385 -0.6617 0.7488
vn 0.1876 -0.7947 0.5773
vn 0.4713 -0.6617 0.5831
vn 0.7002 -0.6617 -0.2680
vn 0.6071 -0.7947 -0.0000
vn 0.3313 -0.9435 -0.0000
vn -0.7240 -0.6617 0.1947
vn -0.4911 -0.7947 0.3568
vn -0.4089 -0.6617 0.6284
vn -0.4089 -0.6617 -0.6284
vn -0.4911 -0.7947 -0.3568
vn -0.7240 -0.6617 -0.1947
vn 0.4713 -0.6617 -0.5831
vn 0.1876 -0.7947 -0.5773
vn -0.0385 -0.6617 -0.7488
vn 0.9921 0.1256 -0.0000
vn 0.9822 -0.1876 -0.0000
vn 0.9050 -0.3304 -0.2680
vt 0.375000 0.000000
vt 0.625000 0.000000
vt 0.625000 0.250000
vt 0.375000 0.250000
vt 0.625000 0.500000
vt 0.375000 0.500000
vt 0.625000 0.750000
vt 0.375000 0.750000
vt 0.625000 1.000000
vt 0.375000 1.000000
vt 0.125000 0.500000
vt 0.125000 0.750000
vt 0.640067 0.734933
vt 0.640067 0.515067
vt 0.859933 0.734933
vt 0.859933 0.515067
vt 0.875000 0.500000
vt 0.875000 0.750000
vt 0.848240 0.723240
vt 0.651760 0.723240
vt 0.848240 0.526760
vt 0.651760 0.526760
vt 0.651760 0.707642
vt 0.651760 0.542358
vt 0.651760 0.542358
vt 0.651760 0.707642
vt 0.793088 0.668088
vt 0.706912 0.668088
vt 0.793088 0.581912
vt 0.706912 0.581912
vt 0.706912 0.654070
vt 0.706912 0.654070
vt 0.706912 0.595930
vt 0.706912 0.595930
vt 0.272728 0.157461
vt 0.363637 0.157461
vt 0.318182 0.236191
vt 0.545455 0.000000
vt 0.590909 0.078731
vt 0.500000 0.078731
vt 0.727273 0.000000
vt 0.772727 0.078731
vt 0.681818 0.078731
vt 0.909091 0.000000
vt 0.954545 0.078731
vt 0.863636 0.078731
vt 0.318182 0.078731
vt 0.181819 0.000000
vt 0.227273 0.078731
vt 0.136365 0.078731
vt 0.090910 0.157461
vt 0.181819 0.157461
vt 0.136365 0.236191
vt 0.818182 0.157461
vt 0.909091 0.157461
vt 0.863636 0.236191
vt 0.636364 0.157461
vt 0.727273 0.157461
vt 0.681818 0.236191
vt 0.454546 0.157461
vt 0.545455 0.157461
vt 0.500000 0.236191
vt 0.227273 0.236191
vt 0.045455 0.236191
vt 0.772727 0.236191
vt 0.590909 0.236191
vt 0.409092 0.236191
vt 0.181819 0.314921
vt 0.272728 0.314921
vt 0.227273 0.393651
vt 0.000000 0.314921
vt 0.090910 0.314921
vt 0.045455 0.393651
vt 0.727273 0.314921
vt 0.818182 0.314921
vt 0.772727 0.393651
vt 0.545455 0.314921
vt 0.636364 0.314921
vt 0.590909 0.393651
vt 0.363637 0.314921
vt 0.454546 0.314921
vt 0.409092 0.393651
vt 0.500000 0.393651
vt 0.454546 0.472382
vt 0.681818 0.393651
vt 0.636364 0.472382
vt 0.863636 0.393651
vt 0.818182 0.472382
vt 0.909091 0.314921
vt 0.136365 0.393651
vt 0.090910 0.472382
vt 0.318182 0.393651
vt 0.272728 0.472382
vt 0.954545 0.236191
vt 1.000000 0.157461
vt 0.409092 0.078731
vt 0.363637 0.000000
s 0
f 1/1/1 9/2/1 10/3/1 3/4/1
f 3/4/2 10/3/2 11/5/2 7/6/2
f 7/6/3 11/5/3 12/7/3 5/8/3
f 5/8/4 12/7/4 9/9/4 1/10/4
f 3/11/5 7/6/5 5/8/5 1/12/5
f 6/13/1 8/14/1 19/14/1 20/13/1
f 2/15/6 4/16/6 10/17/6 9/18/6
f 4/16/6 8/14/6 11/5/6 10/17/6
f 8/14/6 6/13/6 12/7/6 11/5/6
f 6/13/6 2/15/6 9/18/6 12/7/6
f 13/19/4 16/20/4 24/20/4 21/19/4
f 4/16/3 2/15/3 17/15/3 18/16/3
f 2/15/2 6/13/2 20/13/2 17/15/2
f 8/14/4 4/16/4 18/16/4 19/14/4
f 13/19/6 14/21/6 18/16/6 17/15/6
f 14/21/6 15/22/6 19/14/6 18/16/6
f 15/22/6 16/20/6 20/13/6 19/14/6
f 16/20/6 13/19/6 17/15/6 20/13/6
f 23/22/7 22/21/7 26/21/7 27/22/7
f 15/22/2 14/21/2 22/21/2 23/22/2
f 16/20/3 15/22/3 23/22/3 24/20/3
f 14/21/1 13/19/1 21/19/1 22/21/1
f 28/20/3 27/22/3 77/22/3 78/20/3
f 24/20/8 23/22/8 27/22/8 28/20/8
f 22/21/9 21/19/9 25/19/9 26/21/9
f 21/19/10 24/20/10 28/20/10 25/19/10
f 32/23/3 31/24/3 39/25/3 40/26/3
f 26/21/1 25/19/1 29/19/1 30/21/1
f 25/19/4 28/20/4 78/20/4 29/19/4
f 27/22/2 26/21/2 30/21/2 77/22/2
f 33/27/4 36/28/4 44/28/4 41/27/4
f 30/21/1 29/19/1 37/19/1 38/21/1
f 29/19/4 78/20/4 80/20/4 37/19/4
f 77/22/2 30/21/2 38/21/2 79/22/2
f 33/27/6 34/29/6 38/21/6 37/19/6
f 34/29/6 35/30/6 79/22/6 38/21/6
f 35/30/6 36/28/6 80/20/6 79/22/6
f 36/28/6 33/27/6 37/19/6 80/20/6
f 44/28/5 43/30/5 49/30/5 50/28/5
f 35/30/2 34/29/2 42/29/2 43/30/2
f 36/28/3 35/30/3 43/30/3 44/28/3
f 34/29/1 33/27/1 41/27/1 42/29/1
f 45/27/4 48/28/4 72/28/4 69/27/4
f 42/29/1 41/27/1 45/27/1 46/29/1
f 41/27/4 44/28/4 48/28/4 45/27/4
f 43/30/2 42/29/2 46/29/2 47/30/2
f 51/30/11 52/28/11 60/28/11 59/30/11
f 48/28/4 44/28/4 50/28/4 52/28/4
f 43/30/2 47/30/2 51/30/2 49/30/2
f 47/30/6 48/28/6 52/28/6 51/30/6
f 56/31/12 54/32/12 62/32/12 64/31/12
f 49/30/13 51/30/13 59/30/13 57/30/13
f 50/28/14 49/30/14 57/30/14 58/28/14
f 52/28/15 50/28/15 58/28/15 60/28/15
f 53/33/3 54/32/3 58/28/3 57/30/3
f 56/31/3 55/34/3 59/30/3 60/28/3
f 55/34/3 53/33/3 57/30/3 59/30/3
f 54/32/3 56/31/3 60/28/3 58/28/3
f 61/33/16 63/34/16 67/34/16 65/33/16
f 55/34/17 56/31/17 64/31/17 63/34/17
f 53/33/18 55/34/18 63/34/18 61/33/18
f 54/32/19 53/33/19 61/33/19 62/32/19
f 66/32/3 65/33/3 67/34/3 68/31/3
f 62/32/20 61/33/20 65/33/20 66/32/20
f 64/31/21 62/32/21 66/32/21 68/31/21
f 63/34/22 64/31/22 68/31/22 67/34/22
f 69/27/23 72/28/23 76/28/23 73/27/23
f 47/30/2 46/29/2 70/29/2 71/30/2
f 48/28/3 47/30/3 71/30/3 72/28/3
f 46/29/1 45/27/1 69/27/1 70/29/1
f 75/30/6 74/29/6 73/27/6 76/28/6
f 71/30/24 70/29/24 74/29/24 75/30/24
f 72/28/25 71/30/25 75/30/25 76/28/25
f 70/29/26 69/27/26 73/27/26 74/29/26
f 31/24/3 32/23/3 78/20/3 77/22/3
f 40/26/3 39/25/3 79/22/3 80/20/3
f 39/25/3 31/24/3 77/22/3 79/22/3
f 32/23/3 40/26/3 80/20/3 78/20/3
f 87/35/27 101/36/27 94/37/27
f 88/38/28 97/39/28 100/40/28
f 88/41/29 99/42/29 97/43/29
f 88/44/30 104/45/30 99/46/30
f 87/35/31 103/47/31 101/36/31
f 88/48/32 103/49/32 104/50/32
f 86/51/33 102/52/33 105/53/33
f 85/54/34 98/55/34 107/56/34
f 84/57/35 96/58/35 109/59/35
f 83/60/36 95/61/36 111/62/36
f 87/35/37 94/37/37 106/63/37
f 86/51/38 105/53/38 108/64/38
f 85/54/39 107/56/39 110/65/39
f 84/57/40 109/59/40 112/66/40
f 83/60/41 111/62/41 93/67/41
f 82/68/42 113/69/42 118/70/42
f 81/71/43 114/72/43 120/73/43
f 89/74/44 115/75/44 121/76/44
f 90/77/45 116/78/45 122/79/45
f 91/80/46 117/81/46 119/82/46
f 119/82/47 122/83/47 92/84/47
f 119/82/48 117/81/48 122/83/48
f 117/81/49 90/77/49 122/83/49
f 122/79/50 121/85/50 92/86/50
f 122/79/51 116/78/51 121/85/51
f 116/78/52 89/74/52 121/85/52
f 121/76/53 120/87/53 92/88/53
f 121/76/54 115/75/54 120/87/54
f 115/75/55 81/89/55 120/87/55
f 120/73/56 118/90/56 92/91/56
f 120/73/57 114/72/57 118/90/57
f 114/72/58 82/68/58 118/90/58
f 118/70/59 119/92/59 92/93/59
f 118/70/60 113/69/60 119/92/60
f 113/69/61 91/80/61 119/92/61
f 93/67/62 117/81/62 91/80/62
f 93/67/63 111/62/63 117/81/63
f 111/62/64 90/77/64 117/81/64
f 112/66/65 116/78/65 90/77/65
f 112/66/66 109/59/66 116/78/66
f 109/59/67 89/74/67 116/78/67
f 110/65/68 115/75/68 89/74/68
f 110/65/69 107/56/69 115/75/69
f 107/56/70 81/89/70 115/75/70
f 108/64/71 114/72/71 81/71/71
f 108/64/72 105/53/72 114/72/72
f 105/53/73 82/68/73 114/72/73
f 106/63/74 113/69/74 82/68/74
f 106/63/75 94/37/75 113/69/75
f 94/37/76 91/80/76 113/69/76
f 111/62/77 112/66/77 90/77/77
f 111/62/78 95/61/78 112/66/78
f 95/61/79 84/57/79 112/66/79
f 109/59/80 110/65/80 89/74/80
f 109/59/81 96/58/81 110/65/81
f 96/58/82 85/54/82 110/65/82
f 107/56/83 108/94/83 81/89/83
f 107/56/84 98/55/84 108/94/84
f 98/55/85 86/95/85 108/94/85
f 105/53/86 106/63/86 82/68/86
f 105/53/87 102/52/87 106/63/87
f 102/52/88 87/35/88 106/63/88
f 104/50/89 102/52/89 86/51/89
f 104/50/90 103/49/90 102/52/90
f 103/49/91 87/35/91 102/52/91
f 101/36/92 100/96/92 83/60/92
f 101/36/93 103/47/93 100/96/93
f 103/47/94 88/97/94 100/96/94
f 99/46/95 98/55/95 85/54/95
f 99/46/96 104/45/96 98/55/96
f 104/45/97 86/95/97 98/55/97
f 97/43/98 96/58/98 84/57/98
f 97/43/99 99/42/99 96/58/99
f 99/42/100 85/54/100 96/58/100
f 100/40/101 95/61/101 83/60/101
f 100/40/102 97/39/102 95/61/102
f 97/39/103 84/57/103 95/61/103
f 94/37/104 93/67/104 91/80/104
f 94/37/105 101/36/105 93/67/105
f 101/36/106 83/60/106 93/67/106
