# Blender 4.2.3 LTS
# www.blender.org
mtllib statue3.mtl
o Cube
v -2.689993 -0.605577 2.689993
v -2.365743 0.605577 2.365743
v -2.689993 -0.605577 -2.689993
v -2.365743 0.605577 -2.365743
v 2.689993 -0.605577 2.689993
v 2.365743 0.605577 2.365743
v 2.689993 -0.605577 -2.689993
v 2.365743 0.605577 -2.365743
v -2.689993 0.605577 2.689993
v -2.689993 0.605577 -2.689993
v 2.689993 0.605577 -2.689993
v 2.689993 0.605577 2.689993
v -2.114119 0.448713 2.114119
v -2.114119 0.448713 -2.114119
v 2.114119 0.448713 -2.114119
v 2.114119 0.448713 2.114119
v -2.365743 0.448713 2.365743
v -2.365743 0.448713 -2.365743
v 2.365743 0.448713 -2.365743
v 2.365743 0.448713 2.365743
v -2.114119 1.235553 2.114119
v -2.114119 1.235553 -2.114119
v 2.114119 1.235553 -2.114119
v 2.114119 1.235553 2.114119
v -2.643570 1.303347 2.643570
v -2.643570 1.303347 -2.643570
v 2.643570 1.303347 -2.643570
v 2.643570 1.303347 2.643570
v -2.643570 3.257617 2.643570
v -2.643570 3.257617 -2.643570
v 2.643570 3.352105 -2.223849
v 2.643570 3.352105 2.223849
v -1.159473 4.346237 1.159473
v -1.159473 4.346237 -1.159473
v 1.159473 4.346237 -1.159473
v 1.159473 4.346237 1.159473
v -2.643570 4.346237 2.643570
v -2.643570 4.346237 -2.643570
v 2.643570 4.251749 -2.223849
v 2.643570 4.251749 2.223849
v -1.159473 4.994273 1.159473
v -1.159473 4.994273 -1.159473
v 1.159473 4.994273 -1.159473
v 1.159473 4.994273 1.159473
v -1.159473 5.442969 1.159473
v -1.159473 5.442969 -1.159473
v 1.159473 5.442969 -1.159473
v 1.159473 5.442969 1.159473
v 3.303549 4.994273 -1.159473
v 3.303549 4.994273 1.159473
v 3.303549 5.442969 -1.159473
v 3.303549 5.442969 1.159473
v 3.475523 5.120705 -0.549356
v 3.475523 5.120705 0.549356
v 3.475523 5.316537 -0.549356
v 3.475523 5.316537 0.549356
v 3.475523 5.061067 -0.814270
v 3.475523 5.061067 0.814270
v 3.475523 5.376175 -0.814270
v 3.475523 5.376175 0.814270
v 3.600910 5.159841 -0.329781
v 3.600910 5.159841 0.329781
v 3.600910 5.277400 -0.329781
v 3.600910 5.277400 0.329781
v 3.797608 5.184120 -0.193565
v 3.797608 5.184120 0.193565
v 3.797608 5.253121 -0.193565
v 3.797608 5.253121 0.193565
v -1.159473 5.739161 1.159473
v -1.159473 5.739161 -1.159473
v 1.159473 5.739161 -1.159473
v 1.159473 5.739161 1.159473
v -3.551711 5.765810 3.551711
v -3.551711 5.765810 -3.551711
v 3.551711 5.765810 -3.551711
v 3.551711 5.765810 3.551711
v 2.643570 3.257617 -2.643570
v 2.643570 3.257617 2.643570
v 2.643570 4.346237 -2.643570
v 2.643570 4.346237 2.643570
v 4.124027 2.944546 1.011148
v 4.124027 2.937356 -0.988839
v 4.296914 2.852136 1.011480
v 4.296914 2.844946 -0.988507
v 4.484507 2.795231 1.011685
v 4.484507 2.788041 -0.988303
v 4.679597 2.776016 1.011754
v 4.679597 2.768826 -0.988234
v 4.874688 2.795231 1.011685
v 4.874688 2.788041 -0.988303
v 5.062281 2.852136 1.011480
v 5.062281 2.844946 -0.988507
v 5.235168 2.944546 1.011148
v 5.235168 2.937356 -0.988839
v 5.386704 3.068908 1.010701
v 5.386704 3.061717 -0.989287
v 5.511067 3.220443 1.010156
v 5.511067 3.213253 -0.989831
v 5.603477 3.393329 1.009534
v 5.603477 3.386139 -0.990453
v 5.660382 3.580921 1.008860
v 5.660382 3.573730 -0.991127
v 5.679597 3.776010 1.008158
v 5.679597 3.768820 -0.991829
v 5.660382 3.971099 1.007457
v 5.660382 3.963909 -0.992530
v 5.603477 4.158691 1.006783
v 5.603477 4.151501 -0.993205
v 5.511067 4.331577 1.006161
v 5.511067 4.324387 -0.993826
v 5.386704 4.483112 1.005616
v 5.386704 4.475922 -0.994371
v 5.235168 4.607474 1.005169
v 5.235168 4.600284 -0.994818
v 5.062281 4.699884 1.004837
v 5.062281 4.692693 -0.995150
v 4.874688 4.756789 1.004632
v 4.874688 4.749599 -0.995355
v 4.679597 4.776004 1.004563
v 4.679597 4.768814 -0.995424
v 3.972490 3.061717 -0.989287
v 3.972490 3.068908 1.010701
v 3.848128 3.213253 -0.989831
v 3.848128 3.220443 1.010156
v 3.755718 3.386139 -0.990453
v 3.755718 3.393329 1.009534
v 3.698812 3.573730 -0.991127
v 3.698812 3.580921 1.008860
v 3.679597 3.768820 -0.991829
v 3.679597 3.776010 1.008158
v 3.698812 3.963909 -0.992530
v 3.698812 3.971099 1.007457
v 3.755718 4.151501 -0.993205
v 3.755718 4.158691 1.006783
v 3.848128 4.324387 -0.993826
v 3.848128 4.331577 1.006161
v 3.972490 4.475922 -0.994371
v 3.972490 4.483112 1.005616
v 4.124027 4.600284 -0.994818
v 4.124027 4.607474 1.005169
v 4.296914 4.692693 -0.995150
v 4.296914 4.699884 1.004837
v 4.484507 4.749599 -0.995355
v 4.484507 4.756789 1.004632
vn -1.0000 -0.0000 -0.0000
vn -0.0000 -0.0000 -1.0000
vn 1.0000 -0.0000 -0.0000
vn -0.0000 -0.0000 1.0000
vn -0.0000 -1.0000 -0.0000
vn -0.0000 1.0000 -0.0000
vn -0.0000 -0.9919 -0.1270
vn 0.1270 -0.9919 -0.0000
vn -0.1270 -0.9919 -0.0000
vn -0.0000 -0.9919 0.1270
vn 0.3620 0.9322 -0.0000
vn 0.8684 -0.0000 0.4959
vn 0.8951 -0.0000 -0.4459
vn 0.3620 -0.9322 -0.0000
vn 0.8951 -0.0000 0.4459
vn 0.5693 -0.0000 -0.8221
vn 0.2980 0.9546 -0.0000
vn 0.8684 -0.0000 -0.4959
vn 0.2979 -0.9546 -0.0000
vn 0.1225 -0.9925 -0.0000
vn 0.5693 -0.0000 0.8221
vn 0.1225 0.9925 -0.0000
vn -0.0000 -0.9999 0.0111
vn -0.0000 -0.9999 -0.0111
vn 0.0111 -0.9999 -0.0000
vn -0.0111 -0.9999 -0.0000
vn -0.9569 0.2903 -0.0010
vn -0.9952 0.0980 -0.0004
vn -0.9952 -0.0980 0.0004
vn -0.9569 -0.2903 0.0010
vn -0.8819 -0.4714 0.0017
vn -0.7730 -0.6344 0.0023
vn -0.6344 -0.7730 0.0028
vn -0.4714 -0.8819 0.0032
vn -0.2903 -0.9569 0.0034
vn -0.0980 -0.9952 0.0036
vn 0.0980 -0.9952 0.0036
vn 0.2903 -0.9569 0.0034
vn 0.4714 -0.8819 0.0032
vn 0.6344 -0.7730 0.0028
vn 0.7730 -0.6344 0.0023
vn 0.8819 -0.4714 0.0017
vn 0.9569 -0.2903 0.0010
vn 0.9952 -0.0980 0.0004
vn 0.9952 0.0980 -0.0004
vn 0.9569 0.2903 -0.0010
vn 0.8819 0.4714 -0.0017
vn 0.7730 0.6344 -0.0023
vn 0.6344 0.7730 -0.0028
vn 0.4714 0.8819 -0.0032
vn 0.2903 0.9569 -0.0034
vn 0.0980 0.9952 -0.0036
vn -0.8819 0.4714 -0.0017
vn -0.7730 0.6344 -0.0023
vn -0.6344 0.7730 -0.0028
vn -0.4714 0.8819 -0.0032
vn -0.0000 -0.0036 -1.0000
vn -0.2903 0.9569 -0.0034
vn -0.0980 0.9952 -0.0036
vn -0.0000 0.0036 1.0000
vt 0.375000 0.000000
vt 0.625000 0.000000
vt 0.625000 0.250000
vt 0.375000 0.250000
vt 0.625000 0.500000
vt 0.375000 0.500000
vt 0.625000 0.750000
vt 0.375000 0.750000
vt 0.625000 1.000000
vt 0.375000 1.000000
vt 0.125000 0.500000
vt 0.125000 0.750000
vt 0.640067 0.734933
vt 0.640067 0.515067
vt 0.859933 0.734933
vt 0.859933 0.515067
vt 0.875000 0.500000
vt 0.875000 0.750000
vt 0.848240 0.723240
vt 0.651760 0.723240
vt 0.848240 0.526760
vt 0.651760 0.526760
vt 0.651760 0.707642
vt 0.651760 0.542358
vt 0.651760 0.542358
vt 0.651760 0.707642
vt 0.793088 0.668088
vt 0.706912 0.668088
vt 0.793088 0.581912
vt 0.706912 0.581912
vt 0.706912 0.654070
vt 0.706912 0.654070
vt 0.706912 0.595930
vt 0.706912 0.595930
vt 1.000000 0.500000
vt 1.000000 1.000000
vt 0.968750 1.000000
vt 0.968750 0.500000
vt 0.937500 1.000000
vt 0.937500 0.500000
vt 0.906250 1.000000
vt 0.906250 0.500000
vt 0.875000 1.000000
vt 0.843750 1.000000
vt 0.843750 0.500000
vt 0.812500 1.000000
vt 0.812500 0.500000
vt 0.781250 1.000000
vt 0.781250 0.500000
vt 0.750000 1.000000
vt 0.750000 0.500000
vt 0.718750 1.000000
vt 0.718750 0.500000
vt 0.687500 1.000000
vt 0.687500 0.500000
vt 0.656250 1.000000
vt 0.656250 0.500000
vt 0.593750 1.000000
vt 0.593750 0.500000
vt 0.562500 1.000000
vt 0.562500 0.500000
vt 0.531250 1.000000
vt 0.531250 0.500000
vt 0.500000 1.000000
vt 0.500000 0.500000
vt 0.468750 1.000000
vt 0.468750 0.500000
vt 0.437500 1.000000
vt 0.437500 0.500000
vt 0.406250 1.000000
vt 0.406250 0.500000
vt 0.343750 1.000000
vt 0.343750 0.500000
vt 0.312500 1.000000
vt 0.312500 0.500000
vt 0.281250 1.000000
vt 0.281250 0.500000
vt 0.250000 1.000000
vt 0.250000 0.500000
vt 0.218750 1.000000
vt 0.218750 0.500000
vt 0.187500 1.000000
vt 0.187500 0.500000
vt 0.156250 1.000000
vt 0.156250 0.500000
vt 0.125000 1.000000
vt 0.093750 1.000000
vt 0.093750 0.500000
vt 0.062500 1.000000
vt 0.062500 0.500000
vt 0.528269 0.341844
vt 0.550447 0.383337
vt 0.580294 0.419706
vt 0.616663 0.449553
vt 0.658156 0.471731
vt 0.703178 0.485388
vt 0.750000 0.490000
vt 0.796822 0.485388
vt 0.841844 0.471731
vt 0.883337 0.449553
vt 0.919706 0.419706
vt 0.949553 0.383337
vt 0.971731 0.341844
vt 0.985389 0.296822
vt 0.990000 0.250000
vt 0.985389 0.203178
vt 0.971731 0.158156
vt 0.949553 0.116663
vt 0.919706 0.080294
vt 0.883337 0.050447
vt 0.841844 0.028269
vt 0.796822 0.014612
vt 0.750000 0.010000
vt 0.703178 0.014612
vt 0.658156 0.028269
vt 0.616663 0.050447
vt 0.580294 0.080294
vt 0.550447 0.116663
vt 0.528269 0.158156
vt 0.514612 0.203178
vt 0.510000 0.250000
vt 0.514612 0.296822
vt 0.031250 1.000000
vt 0.031250 0.500000
vt 0.000000 1.000000
vt 0.000000 0.500000
vt 0.050447 0.383337
vt 0.028269 0.341844
vt 0.014612 0.296822
vt 0.010000 0.250000
vt 0.014612 0.203178
vt 0.028269 0.158156
vt 0.050447 0.116663
vt 0.080294 0.080294
vt 0.116663 0.050447
vt 0.158156 0.028269
vt 0.203178 0.014612
vt 0.250000 0.010000
vt 0.296822 0.014612
vt 0.341844 0.028269
vt 0.383337 0.050447
vt 0.419706 0.080294
vt 0.449553 0.116663
vt 0.471731 0.158156
vt 0.485389 0.203178
vt 0.490000 0.250000
vt 0.485389 0.296822
vt 0.471731 0.341844
vt 0.449553 0.383337
vt 0.419706 0.419706
vt 0.383337 0.449553
vt 0.341844 0.471731
vt 0.296822 0.485388
vt 0.250000 0.490000
vt 0.203178 0.485388
vt 0.158156 0.471731
vt 0.116663 0.449553
vt 0.080294 0.419706
s 0
f 1/1/1 9/2/1 10/3/1 3/4/1
f 3/4/2 10/3/2 11/5/2 7/6/2
f 7/6/3 11/5/3 12/7/3 5/8/3
f 5/8/4 12/7/4 9/9/4 1/10/4
f 3/11/5 7/6/5 5/8/5 1/12/5
f 6/13/1 8/14/1 19/14/1 20/13/1
f 2/15/6 4/16/6 10/17/6 9/18/6
f 4/16/6 8/14/6 11/5/6 10/17/6
f 8/14/6 6/13/6 12/7/6 11/5/6
f 6/13/6 2/15/6 9/18/6 12/7/6
f 13/19/4 16/20/4 24/20/4 21/19/4
f 4/16/3 2/15/3 17/15/3 18/16/3
f 2/15/2 6/13/2 20/13/2 17/15/2
f 8/14/4 4/16/4 18/16/4 19/14/4
f 13/19/6 14/21/6 18/16/6 17/15/6
f 14/21/6 15/22/6 19/14/6 18/16/6
f 15/22/6 16/20/6 20/13/6 19/14/6
f 16/20/6 13/19/6 17/15/6 20/13/6
f 23/22/7 22/21/7 26/21/7 27/22/7
f 15/22/2 14/21/2 22/21/2 23/22/2
f 16/20/3 15/22/3 23/22/3 24/20/3
f 14/21/1 13/19/1 21/19/1 22/21/1
f 28/20/3 27/22/3 77/22/3 78/20/3
f 24/20/8 23/22/8 27/22/8 28/20/8
f 22/21/9 21/19/9 25/19/9 26/21/9
f 21/19/10 24/20/10 28/20/10 25/19/10
f 32/23/3 31/24/3 39/25/3 40/26/3
f 26/21/1 25/19/1 29/19/1 30/21/1
f 25/19/4 28/20/4 78/20/4 29/19/4
f 27/22/2 26/21/2 30/21/2 77/22/2
f 33/27/4 36/28/4 44/28/4 41/27/4
f 30/21/1 29/19/1 37/19/1 38/21/1
f 29/19/4 78/20/4 80/20/4 37/19/4
f 77/22/2 30/21/2 38/21/2 79/22/2
f 33/27/6 34/29/6 38/21/6 37/19/6
f 34/29/6 35/30/6 79/22/6 38/21/6
f 35/30/6 36/28/6 80/20/6 79/22/6
f 36/28/6 33/27/6 37/19/6 80/20/6
f 44/28/5 43/30/5 49/30/5 50/28/5
f 35/30/2 34/29/2 42/29/2 43/30/2
f 36/28/3 35/30/3 43/30/3 44/28/3
f 34/29/1 33/27/1 41/27/1 42/29/1
f 45/27/4 48/28/4 72/28/4 69/27/4
f 42/29/1 41/27/1 45/27/1 46/29/1
f 41/27/4 44/28/4 48/28/4 45/27/4
f 43/30/2 42/29/2 46/29/2 47/30/2
f 51/30/11 52/28/11 60/28/11 59/30/11
f 48/28/4 44/28/4 50/28/4 52/28/4
f 43/30/2 47/30/2 51/30/2 49/30/2
f 47/30/6 48/28/6 52/28/6 51/30/6
f 56/31/12 54/32/12 62/32/12 64/31/12
f 49/30/13 51/30/13 59/30/13 57/30/13
f 50/28/14 49/30/14 57/30/14 58/28/14
f 52/28/15 50/28/15 58/28/15 60/28/15
f 53/33/3 54/32/3 58/28/3 57/30/3
f 56/31/3 55/34/3 59/30/3 60/28/3
f 55/34/3 53/33/3 57/30/3 59/30/3
f 54/32/3 56/31/3 60/28/3 58/28/3
f 61/33/16 63/34/16 67/34/16 65/33/16
f 55/34/17 56/31/17 64/31/17 63/34/17
f 53/33/18 55/34/18 63/34/18 61/33/18
f 54/32/19 53/33/19 61/33/19 62/32/19
f 66/32/3 65/33/3 67/34/3 68/31/3
f 62/32/20 61/33/20 65/33/20 66/32/20
f 64/31/21 62/32/21 66/32/21 68/31/21
f 63/34/22 64/31/22 68/31/22 67/34/22
f 69/27/23 72/28/23 76/28/23 73/27/23
f 47/30/2 46/29/2 70/29/2 71/30/2
f 48/28/3 47/30/3 71/30/3 72/28/3
f 46/29/1 45/27/1 69/27/1 70/29/1
f 75/30/6 74/29/6 73/27/6 76/28/6
f 71/30/24 70/29/24 74/29/24 75/30/24
f 72/28/25 71/30/25 75/30/25 76/28/25
f 70/29/26 69/27/26 73/27/26 74/29/26
f 31/24/3 32/23/3 78/20/3 77/22/3
f 40/26/3 39/25/3 79/22/3 80/20/3
f 39/25/3 31/24/3 77/22/3 79/22/3
f 32/23/3 40/26/3 80/20/3 78/20/3
f 131/35/27 132/36/27 134/37/27 133/38/27
f 129/38/28 130/37/28 132/39/28 131/40/28
f 127/40/29 128/39/29 130/41/29 129/42/29
f 125/42/30 126/41/30 128/43/30 127/17/30
f 123/17/31 124/43/31 126/44/31 125/45/31
f 121/45/32 122/44/32 124/46/32 123/47/32
f 82/47/33 81/46/33 122/48/33 121/49/33
f 84/49/34 83/48/34 81/50/34 82/51/34
f 86/51/35 85/50/35 83/52/35 84/53/35
f 88/53/36 87/52/36 85/54/36 86/55/36
f 90/55/37 89/54/37 87/56/37 88/57/37
f 92/57/38 91/56/38 89/9/38 90/5/38
f 94/5/39 93/9/39 91/58/39 92/59/39
f 96/59/40 95/58/40 93/60/40 94/61/40
f 98/61/41 97/60/41 95/62/41 96/63/41
f 100/63/42 99/62/42 97/64/42 98/65/42
f 102/65/43 101/64/43 99/66/43 100/67/43
f 104/67/44 103/66/44 101/68/44 102/69/44
f 106/69/45 105/68/45 103/70/45 104/71/45
f 108/71/46 107/70/46 105/10/46 106/6/46
f 110/6/47 109/10/47 107/72/47 108/73/47
f 112/73/48 111/72/48 109/74/48 110/75/48
f 114/75/49 113/74/49 111/76/49 112/77/49
f 116/77/50 115/76/50 113/78/50 114/79/50
f 118/79/51 117/78/51 115/80/51 116/81/51
f 120/81/52 119/80/52 117/82/52 118/83/52
f 133/83/53 134/82/53 136/84/53 135/85/53
f 135/85/54 136/84/54 138/86/54 137/11/54
f 137/11/55 138/86/55 140/87/55 139/88/55
f 139/88/56 140/87/56 142/89/56 141/90/56
f 133/91/57 135/92/57 137/93/57 139/94/57 141/95/57 143/96/57 120/97/57 118/98/57 116/99/57 114/100/57 112/101/57 110/102/57 108/103/57 106/104/57 104/105/57 102/106/57 100/107/57 98/108/57 96/109/57 94/110/57 92/111/57 90/112/57 88/113/57 86/114/57 84/115/57 82/116/57 121/117/57 123/118/57 125/119/57 127/120/57 129/121/57 131/122/57
f 141/90/58 142/89/58 144/123/58 143/124/58
f 143/124/59 144/123/59 119/125/59 120/126/59
f 136/127/60 134/128/60 132/129/60 130/130/60 128/131/60 126/132/60 124/133/60 122/134/60 81/135/60 83/136/60 85/137/60 87/138/60 89/139/60 91/140/60 93/141/60 95/142/60 97/143/60 99/144/60 101/145/60 103/146/60 105/147/60 107/148/60 109/149/60 111/150/60 113/151/60 115/152/60 117/153/60 119/154/60 144/155/60 142/156/60 140/157/60 138/158/60
