# Blender 4.1.1
# www.blender.org
o Cube.008
v -0.500000 0.000000 0.500000
v -0.324440 1.053349 0.324440
v -0.500000 0.000000 -0.500000
v -0.324440 1.053349 -0.324440
v 0.500000 0.000000 0.500000
v 0.324440 1.053349 0.324440
v 0.500000 0.000000 -0.500000
v 0.324440 1.053349 -0.324440
v -0.500000 1.000000 0.500000
v -0.500000 1.000000 -0.500000
v 0.500000 1.000000 -0.500000
v 0.500000 1.000000 0.500000
v 0.236856 2.897650 -0.133232
v 0.133232 2.897650 0.236856
v -0.133232 2.897650 -0.236856
v -0.236856 2.897650 0.133232
v -0.445742 2.252778 0.311895
v -0.311895 2.252778 -0.445742
v 0.311895 2.252778 0.445742
v 0.445742 2.252778 -0.311895
v 0.498421 1.623852 -0.505040
v 0.505040 1.623852 0.498421
v -0.505040 1.623852 -0.498421
v -0.498421 1.623852 0.505040
v 0.035340 3.609262 -0.038214
v 0.038214 3.609262 0.035340
v -0.038214 3.609262 -0.035340
v -0.035340 3.609262 0.038214
v 0.500000 0.231228 -0.000000
v 0.500000 0.481228 0.250000
v 0.500000 0.335728 0.130500
v 0.500000 0.481228 -0.250000
v 0.500000 0.231228 -0.000000
v 0.500000 0.335728 -0.130500
v 0.500000 0.749520 -0.000000
v 0.500000 0.499520 -0.250000
v 0.500000 0.630020 -0.145500
v 0.500000 0.499520 0.250000
v 0.500000 0.749520 -0.000000
v 0.500000 0.630020 0.145500
v 0.554767 0.481228 0.250000
v 0.554767 0.231228 -0.000000
v 0.554767 0.335728 0.130500
v 0.554767 0.231228 -0.000000
v 0.554767 0.481228 -0.250000
v 0.554767 0.335728 -0.130500
v 0.554767 0.499520 -0.250000
v 0.554767 0.749520 -0.000000
v 0.554767 0.630020 -0.145500
v 0.554767 0.749520 -0.000000
v 0.554767 0.499520 0.250000
v 0.554767 0.630020 0.145500
vn -1.0000 -0.0000 -0.0000
vn -0.0000 -0.0000 -1.0000
vn 1.0000 -0.0000 -0.0000
vn -0.0000 -0.0000 1.0000
vn -0.0000 -1.0000 -0.0000
vn -0.1485 0.9777 0.1485
vn -0.1485 0.9777 -0.1485
vn 0.1485 0.9777 -0.1485
vn 0.1485 0.9777 0.1485
vn -0.9446 0.2558 -0.2057
vn -0.9445 0.2565 -0.2055
vn -0.9524 0.2146 -0.2163
vn 0.9985 -0.0402 0.0374
vn 0.9977 -0.0587 0.0345
vn 0.9665 0.2258 0.1222
vn 0.9644 0.2309 0.1285
vn 0.9445 0.2565 0.2055
vn 0.9446 0.2558 0.2057
vn 0.1285 0.2309 -0.9644
vn 0.1222 0.2258 -0.9665
vn 0.2055 0.2565 -0.9445
vn 0.2057 0.2558 -0.9446
vn -0.1285 0.2309 0.9644
vn -0.1222 0.2258 0.9665
vn -0.2055 0.2565 0.9445
vn -0.2057 0.2558 0.9446
vn -0.9549 -0.2968 0.0038
vn -0.9977 -0.0587 -0.0345
vn -0.9985 -0.0402 -0.0374
vn -0.0374 -0.0402 0.9985
vn -0.0345 -0.0587 0.9977
vn -0.9644 0.2309 -0.1285
vn -0.9665 0.2258 -0.1222
vn 0.0374 -0.0402 -0.9985
vn 0.0345 -0.0587 -0.9977
vn 0.9549 -0.2968 -0.0038
vn -0.0038 -0.2968 -0.9549
vn 0.0038 -0.2968 0.9549
vn -0.0000 1.0000 -0.0000
vn 0.9524 0.2146 0.2163
vn -0.2163 0.2146 0.9524
vn 0.2163 0.2146 -0.9524
vn -0.0000 0.6251 0.7806
vn -0.0000 0.7027 0.7115
vn -0.0000 0.7728 0.6347
vn -0.0000 0.6251 -0.7806
vn -0.0000 0.7027 -0.7115
vn -0.0000 0.7728 -0.6347
vn -0.0000 -0.7806 0.6251
vn -0.0000 -0.7115 0.7027
vn -0.0000 -0.6347 0.7728
vn -0.0000 -0.7806 -0.6251
vn -0.0000 -0.7115 -0.7027
vn -0.0000 -0.6347 -0.7728
vt 0.435869 0.780343
vt 0.435869 0.563102
vt 0.652730 0.564825
vt 0.652730 0.782066
vt 0.652730 0.780343
vt 0.652730 0.563102
vt 0.869590 0.564825
vt 0.869590 0.782066
vt 0.000000 0.998277
vt 0.000000 0.781037
vt 0.216861 0.782760
vt 0.216861 1.000000
vt 0.236993 0.775145
vt 0.236993 0.598240
vt 0.413589 0.599642
vt 0.413589 0.776547
vt 0.217934 0.781037
vt 0.000000 0.781037
vt 0.000000 0.563102
vt 0.217934 0.563102
vt 0.256195 0.601363
vt 0.256195 0.742776
vt 0.217934 0.781037
vt 0.217934 0.563102
vt 0.397608 0.742776
vt 0.435869 0.781037
vt 0.397608 0.601363
vt 0.435869 0.563102
vt 0.261424 0.212831
vt 0.222318 0.223336
vt 0.215135 0.145202
vt 0.222715 0.143368
vt 0.422490 0.341871
vt 0.318812 0.367238
vt 0.322722 0.296774
vt 0.402138 0.276117
vt 0.325995 0.223336
vt 0.365102 0.212831
vt 0.505815 0.276117
vt 0.426399 0.296774
vt 0.429673 0.223336
vt 0.468779 0.212831
vt 0.609492 0.276117
vt 0.530076 0.296774
vt 0.533350 0.223336
vt 0.572456 0.212831
vt 0.317263 0.403284
vt 0.250186 0.419734
vt 0.215135 0.367238
vt 0.318812 0.341871
vt 0.629844 0.341871
vt 0.526167 0.367238
vt 0.298460 0.276117
vt 0.219044 0.296774
vt 0.526167 0.341871
vt 0.422490 0.367238
vt 0.420941 0.403284
vt 0.353863 0.419734
vt 0.524618 0.403284
vt 0.457541 0.419734
vt 0.628295 0.403284
vt 0.561218 0.419734
vt 0.310869 0.032066
vt 0.326911 0.032066
vt 0.326911 0.048108
vt 0.310869 0.048108
vt 0.318812 0.145202
vt 0.326392 0.143368
vt 0.526167 0.145202
vt 0.533747 0.143368
vt 0.422490 0.145202
vt 0.430070 0.143368
vt 0.504862 0.882779
vt 0.503158 0.882779
vt 0.529161 0.867221
vt 0.525443 0.871748
vt 0.521382 0.875000
vt 0.517322 0.871748
vt 0.513604 0.867221
vt 0.513604 0.866652
vt 0.516855 0.862592
vt 0.521382 0.858874
vt 0.525909 0.862592
vt 0.529161 0.866652
vt 0.501454 0.882779
vt 0.499750 0.883348
vt 0.499750 0.882779
vt 0.501454 0.883348
vt 0.498046 0.882779
vt 0.498046 0.875000
vt 0.499750 0.875000
vt 0.503158 0.890557
vt 0.501454 0.890557
vt 0.501454 0.875000
vt 0.503158 0.875000
vt 0.504862 0.875000
vt 0.499750 0.891126
vt 0.498046 0.891126
vt 0.498046 0.883348
vt 0.499750 0.883348
vt 0.504862 0.890557
vt 0.501454 0.891126
s 1
f 1/1/1 9/2/1 10/3/1 3/4/1
f 3/5/2 10/6/2 11/7/2 7/8/2
f 7/9/3 11/10/3 12/11/3 5/12/3
f 5/13/4 12/14/4 9/15/4 1/16/4
f 3/17/5 7/18/5 5/19/5 1/20/5
f 2/21/6 4/22/7 10/23/7 9/24/6
f 4/22/7 8/25/8 11/26/8 10/23/7
f 8/25/8 6/27/9 12/28/9 11/26/8
f 6/27/9 2/21/6 9/24/6 12/28/9
f 15/29/10 16/30/11 28/31/12 27/32/12
f 22/33/13 21/34/14 20/35/15 19/36/16
f 19/36/16 20/35/15 13/37/17 14/38/18
f 20/39/19 18/40/20 15/41/21 13/42/22
f 17/43/23 19/44/24 14/45/25 16/46/26
f 4/47/27 2/48/27 24/49/28 23/50/29
f 24/51/30 22/52/31 19/44/24 17/43/23
f 18/53/32 17/54/33 16/30/11 15/29/10
f 21/55/34 23/56/35 18/40/20 20/39/19
f 6/57/36 8/58/36 21/34/14 22/33/13
f 23/50/29 24/49/28 17/54/33 18/53/32
f 8/59/37 4/60/37 23/56/35 21/55/34
f 2/61/38 6/62/38 22/52/31 24/51/30
f 28/63/39 26/64/39 25/65/39 27/66/39
f 14/38/18 13/37/17 25/67/40 26/68/40
f 16/46/26 14/45/25 26/69/41 28/70/41
f 13/42/22 15/41/21 27/71/42 25/72/42
f 29/73/39 33/73/39 44/74/39 42/74/39
f 41/75/3 43/76/3 42/77/3 44/77/3 46/78/3 45/79/3 47/80/3 49/81/3 48/82/3 50/82/3 52/83/3 51/84/3
f 35/74/39 39/74/39 50/85/39 48/85/39
f 32/86/2 36/87/2 47/85/2 45/88/2
f 38/87/43 51/89/43 52/90/44 40/91/44
f 40/92/44 52/93/44 50/85/45 39/74/45
f 47/85/46 36/87/46 37/91/47 49/94/47
f 49/94/47 37/95/47 35/74/48 48/85/48
f 29/73/49 42/74/49 43/95/50 31/96/50
f 31/97/50 43/98/50 41/99/51 30/100/51
f 44/74/52 33/73/52 34/101/53 46/92/53
f 46/102/53 34/97/53 32/86/54 45/88/54
f 38/87/4 30/100/4 41/99/4 51/89/4
