# Blender 4.1.1
# www.blender.org
o Cube.008
v -0.500000 0.000000 0.500000
v -0.324440 1.053349 0.324440
v -0.500000 0.000000 -0.500000
v -0.324440 1.053349 -0.324440
v 0.500000 0.000000 0.500000
v 0.324440 1.053349 0.324440
v 0.500000 0.000000 -0.500000
v 0.324440 1.053349 -0.324440
v -0.500000 1.000000 0.500000
v -0.500000 1.000000 -0.500000
v 0.500000 1.000000 -0.500000
v 0.500000 1.000000 0.500000
v 0.236856 2.897650 -0.133232
v 0.133232 2.897650 0.236856
v -0.133232 2.897650 -0.236856
v -0.236856 2.897650 0.133232
v -0.445742 2.252778 0.311895
v -0.311895 2.252778 -0.445742
v 0.311895 2.252778 0.445742
v 0.445742 2.252778 -0.311895
v 0.498421 1.623852 -0.505040
v 0.505040 1.623852 0.498421
v -0.505040 1.623852 -0.498421
v -0.498421 1.623852 0.505040
v 0.035340 3.609262 -0.038214
v 0.038214 3.609262 0.035340
v -0.038214 3.609262 -0.035340
v -0.035340 3.609262 0.038214
v -0.500000 0.231228 -0.250000
v -0.500000 0.231228 0.250000
v -0.500000 0.749520 0.250000
v -0.500000 0.749520 -0.250000
v -0.554767 0.231228 -0.250000
v -0.554767 0.231228 0.250000
v -0.554767 0.749520 0.250000
v -0.554767 0.749520 -0.250000
v -0.500000 0.490374 -0.125000
v -0.500000 0.360801 -0.000000
v -0.500000 0.619947 -0.000000
v -0.500000 0.490374 0.125000
v -0.554767 0.490374 -0.125000
v -0.554767 0.360801 -0.000000
v -0.554767 0.619947 -0.000000
v -0.554767 0.490374 0.125000
vn -1.0000 -0.0000 -0.0000
vn -0.0000 -0.0000 -1.0000
vn 1.0000 -0.0000 -0.0000
vn -0.0000 -0.0000 1.0000
vn -0.0000 -1.0000 -0.0000
vn -0.1485 0.9777 0.1485
vn -0.1485 0.9777 -0.1485
vn 0.1485 0.9777 -0.1485
vn 0.1485 0.9777 0.1485
vn -0.9446 0.2558 -0.2057
vn -0.9445 0.2565 -0.2055
vn -0.9524 0.2146 -0.2163
vn 0.9985 -0.0402 0.0374
vn 0.9977 -0.0587 0.0345
vn 0.9665 0.2258 0.1222
vn 0.9644 0.2309 0.1285
vn 0.9445 0.2565 0.2055
vn 0.9446 0.2558 0.2057
vn 0.1285 0.2309 -0.9644
vn 0.1222 0.2258 -0.9665
vn 0.2055 0.2565 -0.9445
vn 0.2057 0.2558 -0.9446
vn -0.1285 0.2309 0.9644
vn -0.1222 0.2258 0.9665
vn -0.2055 0.2565 0.9445
vn -0.2057 0.2558 0.9446
vn -0.9549 -0.2968 0.0038
vn -0.9977 -0.0587 -0.0345
vn -0.9985 -0.0402 -0.0374
vn -0.0374 -0.0402 0.9985
vn -0.0345 -0.0587 0.9977
vn -0.9644 0.2309 -0.1285
vn -0.9665 0.2258 -0.1222
vn 0.0374 -0.0402 -0.9985
vn 0.0345 -0.0587 -0.9977
vn 0.9549 -0.2968 -0.0038
vn -0.0038 -0.2968 -0.9549
vn 0.0038 -0.2968 0.9549
vn -0.0000 1.0000 -0.0000
vn 0.9524 0.2146 0.2163
vn -0.2163 0.2146 0.9524
vn 0.2163 0.2146 -0.9524
vn -0.0000 0.8878 0.4602
vn -0.0000 0.4345 -0.9007
vn -0.0000 -0.4345 0.9007
vn -0.0000 -0.8878 -0.4602
vn -0.0000 -0.8878 0.4602
vn -0.0000 0.4345 0.9007
vn -0.0000 -0.4345 -0.9007
vn -0.0000 0.8878 -0.4602
vt 0.435869 0.780343
vt 0.435869 0.563102
vt 0.652730 0.564825
vt 0.652730 0.782066
vt 0.652730 0.780343
vt 0.652730 0.563102
vt 0.869590 0.564825
vt 0.869590 0.782066
vt 0.000000 0.998277
vt 0.000000 0.781037
vt 0.216861 0.782760
vt 0.216861 1.000000
vt 0.236993 0.775145
vt 0.236993 0.598240
vt 0.413589 0.599642
vt 0.413589 0.776547
vt 0.217934 0.781037
vt 0.000000 0.781037
vt 0.000000 0.563102
vt 0.217934 0.563102
vt 0.256195 0.601363
vt 0.256195 0.742776
vt 0.217934 0.781037
vt 0.217934 0.563102
vt 0.397608 0.742776
vt 0.435869 0.781037
vt 0.397608 0.601363
vt 0.435869 0.563102
vt 0.261424 0.212831
vt 0.222318 0.223336
vt 0.215135 0.145202
vt 0.222715 0.143368
vt 0.422490 0.341871
vt 0.318812 0.367238
vt 0.322722 0.296774
vt 0.402138 0.276117
vt 0.325995 0.223336
vt 0.365102 0.212831
vt 0.505815 0.276117
vt 0.426399 0.296774
vt 0.429673 0.223336
vt 0.468779 0.212831
vt 0.609492 0.276117
vt 0.530076 0.296774
vt 0.533350 0.223336
vt 0.572456 0.212831
vt 0.317263 0.403284
vt 0.250186 0.419734
vt 0.215135 0.367238
vt 0.318812 0.341871
vt 0.629844 0.341871
vt 0.526167 0.367238
vt 0.298460 0.276117
vt 0.219044 0.296774
vt 0.526167 0.341871
vt 0.422490 0.367238
vt 0.420941 0.403284
vt 0.353863 0.419734
vt 0.524618 0.403284
vt 0.457541 0.419734
vt 0.628295 0.403284
vt 0.561218 0.419734
vt 0.310869 0.032066
vt 0.326911 0.032066
vt 0.326911 0.048108
vt 0.310869 0.048108
vt 0.318812 0.145202
vt 0.326392 0.143368
vt 0.526167 0.145202
vt 0.533747 0.143368
vt 0.422490 0.145202
vt 0.430070 0.143368
vt 0.789791 0.884304
vt 0.789791 0.876118
vt 0.791383 0.876118
vt 0.791383 0.884304
vt 0.789791 0.884482
vt 0.789791 0.889689
vt 0.788199 0.889689
vt 0.788199 0.884482
vt 0.792975 0.882811
vt 0.792975 0.876118
vt 0.794567 0.876118
vt 0.794567 0.882811
vt 0.797752 0.876118
vt 0.797752 0.882668
vt 0.796159 0.882668
vt 0.796159 0.876118
vt 0.791383 0.884304
vt 0.791383 0.876118
vt 0.792975 0.876118
vt 0.792975 0.884304
vt 0.796159 0.882811
vt 0.789791 0.876118
vt 0.789791 0.884483
vt 0.788199 0.876118
vt 0.789791 0.889023
vt 0.789791 0.884304
vt 0.791383 0.889023
vt 0.810002 0.872351
vt 0.802734 0.876118
vt 0.806368 0.868584
vt 0.802734 0.861051
vt 0.810002 0.864817
vt 0.817270 0.861051
vt 0.813636 0.868584
vt 0.817270 0.876118
s 1
f 1/1/1 9/2/1 10/3/1 3/4/1
f 3/5/2 10/6/2 11/7/2 7/8/2
f 7/9/3 11/10/3 12/11/3 5/12/3
f 5/13/4 12/14/4 9/15/4 1/16/4
f 3/17/5 7/18/5 5/19/5 1/20/5
f 2/21/6 4/22/7 10/23/7 9/24/6
f 4/22/7 8/25/8 11/26/8 10/23/7
f 8/25/8 6/27/9 12/28/9 11/26/8
f 6/27/9 2/21/6 9/24/6 12/28/9
f 15/29/10 16/30/11 28/31/12 27/32/12
f 22/33/13 21/34/14 20/35/15 19/36/16
f 19/36/16 20/35/15 13/37/17 14/38/18
f 20/39/19 18/40/20 15/41/21 13/42/22
f 17/43/23 19/44/24 14/45/25 16/46/26
f 4/47/27 2/48/27 24/49/28 23/50/29
f 24/51/30 22/52/31 19/44/24 17/43/23
f 18/53/32 17/54/33 16/30/11 15/29/10
f 21/55/34 23/56/35 18/40/20 20/39/19
f 6/57/36 8/58/36 21/34/14 22/33/13
f 23/50/29 24/49/28 17/54/33 18/53/32
f 8/59/37 4/60/37 23/56/35 21/55/34
f 2/61/38 6/62/38 22/52/31 24/51/30
f 28/63/39 26/64/39 25/65/39 27/66/39
f 14/38/18 13/37/17 25/67/40 26/68/40
f 16/46/26 14/45/25 26/69/41 28/70/41
f 13/42/22 15/41/21 27/71/42 25/72/42
f 39/73/43 32/74/43 36/75/43 43/76/43
f 37/77/44 29/78/44 33/79/44 41/80/44
f 40/81/45 31/82/45 35/83/45 44/84/45
f 38/85/46 30/86/46 34/87/46 42/88/46
f 29/89/47 38/90/47 42/91/47 33/92/47
f 30/84/48 40/83/48 44/88/48 34/93/48
f 32/94/49 37/95/49 41/80/49 36/96/49
f 31/97/50 39/98/50 43/76/50 35/99/50
f 42/100/1 34/101/1 44/102/1 35/103/1 43/104/1 36/105/1 41/106/1 33/107/1
